{"glyphs":{"0":{"ha":615,"x_min":46,"x_max":653,"o":"m 431 831 q 588 755 524 831 q 653 585 653 679 q 600 328 653 465 q 453 90 547 190 q 260 -10 360 -10 q 105 49 164 -10 q 46 211 46 108 q 99 500 46 357 q 242 737 151 643 q 431 831 332 831 m 233 86 q 367 183 299 86 q 475 406 435 279 q 515 629 515 533 q 451 746 515 746 q 331 644 399 746 q 218 410 264 543 q 172 186 172 278 q 233 86 172 86 z "},"1":{"ha":411,"x_min":81,"x_max":540,"o":"m 386 797 q 419 808 394 808 q 500 786 460 808 q 540 731 540 764 q 533 703 540 719 q 506 658 532 700 q 463 586 481 615 q 415 501 446 557 q 360 401 383 444 q 310 303 338 358 q 267 204 283 247 q 238 119 250 161 q 226 49 226 76 q 250 -4 226 8 q 233 -19 250 -14 q 200 -25 217 -25 q 172 -22 188 -25 q 133 -8 157 -18 q 95 26 110 1 q 81 88 81 51 q 332 642 81 183 q 179 539 224 539 q 127 559 147 539 q 107 600 107 579 q 128 621 107 621 q 265 690 172 621 q 386 797 357 760 z "},"2":{"ha":706,"x_min":0,"x_max":717,"o":"m 717 567 q 690 468 717 517 q 624 383 663 419 q 524 305 586 346 q 416 238 463 264 q 303 176 369 211 q 268 158 279 164 q 394 163 326 163 q 528 151 501 163 q 588 92 568 136 q 607 6 607 47 q 601 -18 607 -18 q 501 17 579 0 q 338 35 424 35 q 67 7 178 35 l 63 6 q 20 44 40 6 q 0 115 0 82 q 19 149 0 144 q 244 251 107 167 q 490 447 381 335 q 600 639 600 560 q 581 679 600 664 q 538 694 563 694 q 376 627 457 694 q 296 496 296 560 q 299 474 296 488 q 302 462 299 468 q 306 453 306 456 q 292 435 306 435 q 226 488 267 435 q 185 581 185 540 q 281 742 185 661 q 500 822 376 822 q 650 744 583 822 q 717 567 717 667 z "},"3":{"ha":678,"x_min":82,"x_max":701,"o":"m 701 597 q 640 481 701 536 q 511 411 578 425 q 593 256 593 360 q 503 47 593 126 q 293 -32 414 -32 q 142 26 203 -32 q 82 179 82 85 q 105 250 82 224 q 146 276 128 276 q 151 272 151 276 l 151 269 q 140 214 140 240 q 176 145 140 169 q 261 121 213 121 q 428 176 363 121 q 494 293 494 231 q 490 321 494 308 q 436 357 476 357 q 344 328 394 357 l 339 326 q 306 349 325 326 q 288 392 288 372 q 293 407 288 401 q 328 428 300 414 q 376 446 356 443 q 518 535 446 469 q 590 660 590 600 q 532 708 590 708 q 364 651 456 708 q 272 522 272 593 q 281 508 272 517 q 289 497 289 500 q 278 482 289 482 q 222 528 254 482 q 189 632 189 574 q 280 769 189 708 q 500 829 371 829 q 643 765 585 829 q 701 597 701 700 z "},"4":{"ha":674,"x_min":-3,"x_max":742,"o":"m 631 808 q 649 814 635 814 q 709 797 676 814 q 742 756 742 779 q 738 739 742 750 q 526 356 608 518 q 568 346 535 354 q 624 299 606 331 q 642 233 642 267 q 631 185 642 206 q 603 165 619 165 q 471 231 597 214 q 417 43 417 103 q 443 -11 417 1 q 408 -28 443 -28 q 317 2 363 -28 q 271 86 271 32 q 326 244 271 129 q 60 231 156 244 q 24 269 50 231 q -3 325 -3 307 q 4 335 -3 335 q 11 339 8 335 q 235 535 122 394 q 349 751 349 676 q 340 781 349 769 l 339 786 q 353 794 339 794 q 413 772 378 794 q 454 718 447 750 l 454 710 q 379 554 454 664 q 218 356 304 444 q 381 360 274 360 q 487 558 426 450 q 588 736 547 665 q 631 808 629 807 z "},"5":{"ha":640,"x_min":46,"x_max":724,"o":"m 658 806 q 724 703 724 776 q 713 653 724 675 q 689 632 703 632 q 483 689 686 689 q 350 685 467 689 q 353 674 353 676 q 350 667 353 669 q 331 619 347 657 q 306 556 314 581 q 389 564 347 564 q 551 517 488 564 q 615 368 615 469 q 606 286 615 329 q 472 66 578 153 q 239 -21 367 -21 q 97 31 147 -21 q 46 163 46 83 q 71 240 46 203 q 129 276 96 276 q 114 211 114 239 q 142 147 114 171 q 225 124 169 124 q 369 175 306 124 q 462 288 433 226 q 490 400 490 350 q 482 439 490 425 q 425 461 465 461 q 307 434 375 461 q 211 381 239 407 q 192 369 204 369 q 155 399 172 369 q 138 460 138 429 q 146 490 138 481 q 142 506 142 499 l 143 511 q 189 617 151 531 q 236 725 226 704 q 239 729 236 729 q 233 764 233 754 q 257 801 233 800 q 536 819 461 819 q 658 806 626 819 z "},"6":{"ha":693,"x_min":72,"x_max":632,"o":"m 442 514 q 576 463 521 514 q 632 310 632 413 q 535 78 632 189 q 314 -32 438 -32 q 140 30 207 -32 q 72 226 72 92 q 144 489 72 347 q 317 724 217 631 q 497 818 418 818 q 596 785 560 818 q 632 718 632 751 q 625 697 632 704 q 576 714 608 714 q 431 639 517 714 q 286 458 344 564 q 358 498 310 482 q 442 514 407 514 m 421 421 q 270 342 329 421 q 211 179 211 264 q 232 104 211 133 q 293 75 253 75 q 434 161 374 75 q 494 332 494 247 q 476 397 494 372 q 421 421 458 421 z "},"7":{"ha":539,"x_min":43,"x_max":649,"o":"m 524 815 q 535 818 529 818 q 607 778 565 818 q 649 696 649 738 q 631 653 649 672 q 469 481 564 586 q 272 234 374 375 q 169 35 169 93 q 189 0 169 8 q 172 -15 189 -10 q 136 -21 154 -21 q 74 14 106 -21 q 43 93 43 49 q 444 667 43 225 q 200 633 278 633 q 143 639 164 633 q 83 703 110 649 q 57 792 57 757 q 64 806 57 806 q 71 801 67 806 q 208 776 100 776 q 399 790 296 776 q 524 815 501 804 z "},"8":{"ha":633,"x_min":38,"x_max":672,"o":"m 672 632 q 613 506 672 564 q 457 406 553 447 q 572 221 572 307 q 522 78 572 138 q 401 -7 472 18 q 250 -32 331 -32 q 95 23 153 -32 q 38 181 38 78 q 101 314 38 254 q 276 438 164 374 q 186 592 186 510 q 215 699 186 651 q 289 774 244 747 q 377 814 333 800 q 457 828 421 828 q 608 779 544 828 q 672 632 672 731 m 247 119 l 250 119 q 390 162 331 119 q 450 278 450 204 q 376 367 450 315 q 256 308 299 331 q 177 254 214 286 q 140 193 140 222 q 247 119 140 119 m 360 485 q 435 527 408 511 q 492 567 461 543 q 538 616 524 592 q 551 667 551 640 q 528 708 551 693 q 481 725 504 724 l 457 726 q 342 690 389 726 q 296 581 296 654 q 360 485 296 528 z "},"9":{"ha":622,"x_min":68,"x_max":631,"o":"m 260 276 q 125 327 181 276 q 69 481 69 378 q 167 710 69 599 q 388 822 265 822 q 563 760 494 822 q 631 563 631 699 q 558 301 631 442 q 385 66 486 160 q 206 -28 285 -28 q 106 4 143 -28 q 68 69 68 36 q 76 93 68 85 q 125 72 94 72 q 269 149 185 72 q 415 332 353 225 q 343 292 392 308 q 260 276 294 276 m 281 369 q 432 448 372 369 q 492 611 492 526 q 470 686 492 657 q 408 715 449 715 q 268 629 329 715 q 207 458 207 543 q 226 394 207 418 q 281 369 244 369 z "}," ":{"ha":288,"x_min":0,"x_max":0,"o":""},"!":{"ha":311,"x_min":35,"x_max":457,"o":"m 315 807 q 349 817 324 817 q 421 797 385 817 q 457 747 457 776 q 449 719 457 731 q 397 638 443 710 q 310 497 351 565 q 232 349 268 428 q 196 232 196 271 q 176 228 186 228 q 128 256 150 228 q 106 326 106 283 q 191 585 106 414 q 315 807 276 757 m 110 156 q 163 133 140 156 q 185 81 185 111 q 163 28 185 50 q 110 6 140 6 q 57 28 79 6 q 35 81 35 50 q 56 133 35 111 q 110 156 78 156 z "},"\"":{"ha":460,"x_min":76,"x_max":379,"o":"m 236 833 l 238 832 q 202 754 238 810 q 129 678 167 699 q 121 675 126 675 q 92 684 107 675 q 76 701 76 693 q 78 706 76 704 q 147 875 110 747 q 167 893 151 893 q 210 873 186 893 q 236 833 233 853 m 289 875 q 308 893 293 893 q 351 873 328 893 q 379 833 375 853 l 379 832 q 344 754 379 810 q 275 678 310 699 q 264 675 269 675 q 234 684 250 675 q 218 701 218 693 q 219 706 218 704 q 289 875 264 763 z "},"#":{"ha":901,"x_min":138,"x_max":817,"o":"m 801 522 q 817 510 817 522 q 797 473 817 493 q 751 453 776 453 l 744 453 q 682 456 708 453 q 657 403 674 438 q 632 350 640 368 q 683 348 651 350 q 725 346 715 346 q 740 331 740 344 q 720 294 740 314 q 675 275 700 275 q 668 276 671 275 q 594 279 625 276 q 541 167 574 238 q 497 72 508 96 q 482 64 493 64 q 444 81 464 64 q 425 118 425 97 q 428 132 425 128 q 494 282 444 178 q 351 286 397 282 q 291 162 328 236 q 247 72 254 88 q 233 64 244 64 q 195 82 215 64 q 175 122 175 100 q 178 136 175 131 q 197 178 186 154 q 223 233 208 201 q 247 286 238 265 q 195 288 228 286 q 150 289 163 289 q 138 304 138 289 q 153 338 138 321 q 188 356 168 356 l 281 356 q 306 412 289 375 q 331 467 322 449 l 224 467 q 214 479 214 467 q 228 515 214 496 q 264 533 243 533 l 364 533 q 423 650 389 583 q 464 731 457 717 q 485 740 469 740 q 528 723 506 740 q 550 685 550 706 q 544 667 550 678 q 475 533 519 624 q 542 531 497 533 q 611 529 588 529 q 711 731 685 683 q 731 742 718 742 q 769 722 749 742 q 790 682 790 703 q 785 663 790 672 q 757 605 779 651 q 718 526 735 558 q 763 524 736 526 q 801 522 790 522 m 526 351 q 576 458 536 375 q 439 463 533 460 q 413 408 431 444 q 386 354 394 372 q 526 351 435 354 z "},"$":{"ha":457,"x_min":-18,"x_max":553,"o":"m 414 751 q 514 702 475 751 q 553 608 553 653 q 485 522 553 572 q 353 471 418 471 q 310 489 317 471 q 417 573 356 510 q 478 658 478 636 q 464 669 478 669 q 360 651 440 669 q 231 364 272 467 q 301 314 276 333 q 350 265 326 294 q 374 206 374 235 q 286 99 374 147 q 119 51 199 51 q 101 -42 101 -18 q 90 -46 94 -46 q 53 -24 71 -46 q 36 26 36 -3 q 43 83 36 31 q -18 203 -18 144 q 4 255 -18 232 q 43 278 26 278 q 54 274 50 278 q 25 194 25 225 q 61 156 25 167 q 122 339 75 211 q 7 486 7 399 q 89 634 7 567 q 283 733 171 701 q 356 878 343 856 q 369 882 360 882 q 424 865 394 882 q 454 825 454 847 q 449 808 454 815 q 414 751 436 788 m 286 225 q 204 294 286 253 q 154 163 181 238 q 249 187 211 169 q 286 225 286 204 m 151 415 q 225 596 186 504 q 108 471 108 533 q 151 415 108 447 z "},"%":{"ha":724,"x_min":65,"x_max":740,"o":"m 663 764 q 669 765 664 765 q 713 740 686 765 q 740 693 740 715 q 728 669 740 678 q 356 305 572 547 q 110 -19 140 63 l 107 -19 q 78 -1 92 -19 q 65 40 65 17 q 71 67 65 56 q 338 427 104 163 q 663 764 572 692 m 222 457 q 159 483 200 457 q 114 558 118 510 l 114 565 q 173 703 114 624 q 281 782 232 782 q 355 749 314 782 q 399 688 396 715 q 400 679 400 685 q 342 534 400 611 q 222 457 285 457 m 319 724 q 236 646 285 724 q 188 529 188 568 q 197 515 188 515 q 284 590 233 515 q 335 706 335 664 q 319 724 335 724 m 525 338 q 603 303 563 338 q 644 244 644 269 l 644 235 q 589 90 644 167 q 471 13 533 13 q 406 38 446 13 q 363 111 365 64 l 363 118 q 421 258 363 178 q 525 338 479 338 m 443 67 q 530 142 479 67 q 581 260 581 217 q 565 281 581 281 q 483 199 533 281 q 433 81 433 118 q 443 67 433 67 z "},"&":{"ha":713,"x_min":17,"x_max":813,"o":"m 801 360 q 813 343 813 356 q 778 284 813 315 q 701 253 744 253 q 611 264 663 253 q 563 177 600 228 q 471 76 525 126 q 344 -9 417 26 q 200 -44 271 -44 q 71 13 125 -44 q 17 157 17 69 q 28 232 17 197 q 242 453 68 378 q 190 578 190 493 q 316 785 190 676 q 525 893 442 893 q 667 838 601 893 q 732 703 732 782 q 676 619 732 663 q 574 576 619 576 q 542 589 554 576 q 599 650 565 592 q 633 750 633 708 q 597 789 633 789 q 424 688 531 789 q 318 536 318 588 q 363 494 318 501 q 476 515 429 515 q 488 513 483 515 q 496 490 496 504 q 463 443 496 460 q 363 422 426 422 q 236 315 292 386 q 181 189 181 243 q 269 122 181 122 q 549 278 413 122 q 483 285 493 285 q 390 253 428 285 q 374 278 374 260 q 422 352 374 310 q 511 394 469 394 q 643 370 554 394 q 761 346 732 346 q 801 360 788 346 z "},"'":{"ha":254,"x_min":72,"x_max":229,"o":"m 143 875 q 163 893 147 893 q 205 872 182 893 q 229 833 228 851 l 229 832 q 195 754 229 810 q 125 678 161 699 q 114 675 119 675 q 87 684 101 675 q 72 701 72 693 q 74 706 72 704 q 143 875 108 757 z "},"(":{"ha":376,"x_min":44,"x_max":664,"o":"m 664 871 q 427 726 549 860 q 231 416 306 593 q 156 97 156 239 q 199 -58 156 -1 q 181 -62 190 -62 q 90 -1 135 -62 q 44 160 44 61 q 158 569 44 350 q 408 886 271 789 q 554 942 485 942 q 664 871 632 942 z "},")":{"ha":547,"x_min":-50,"x_max":576,"o":"m 422 943 q 440 947 431 947 q 531 884 486 947 q 576 722 576 821 q 464 310 576 531 q 214 -8 351 90 q 64 -64 133 -64 q -50 7 -14 -64 q 191 150 68 17 q 390 463 314 283 q 467 785 467 642 q 422 943 467 886 z "},"*":{"ha":376,"x_min":39,"x_max":317,"o":"m 289 954 l 292 954 q 310 944 303 954 q 317 921 317 933 q 310 903 317 908 q 203 882 304 903 q 271 775 249 788 q 243 761 268 761 q 213 775 225 761 q 168 833 196 786 q 136 743 136 760 l 132 743 q 112 757 122 743 q 101 786 101 771 l 101 792 q 126 864 110 826 q 47 836 64 849 q 39 854 39 840 q 61 892 39 879 q 122 917 93 910 q 94 979 99 968 q 93 988 93 982 q 103 1006 93 999 q 125 1014 113 1014 q 140 1010 132 1014 q 168 947 154 975 q 199 1006 193 993 q 218 1015 204 1015 q 242 1007 231 1015 q 254 989 254 999 q 226 940 240 975 q 289 954 254 950 z "},"+":{"ha":615,"x_min":138,"x_max":553,"o":"m 410 460 l 538 460 q 553 446 553 460 q 528 396 553 425 q 479 367 503 367 l 375 367 q 319 222 344 282 q 294 206 314 206 q 259 221 276 206 q 242 254 242 236 q 243 267 242 263 q 282 367 258 311 l 154 367 q 138 385 138 367 q 158 433 138 407 q 199 460 178 460 l 317 460 q 371 606 368 594 q 393 622 379 622 q 429 603 411 622 q 447 561 447 583 q 444 547 447 556 q 410 460 419 485 z "},",":{"ha":215,"x_min":-1,"x_max":179,"o":"m 65 149 q 93 174 65 174 q 150 149 121 174 q 179 90 179 125 q 128 -2 179 47 q 38 -51 78 -51 q 10 -40 22 -51 q -1 -17 -1 -29 q 15 8 -1 -12 q 49 65 32 28 q 65 149 65 101 z "},"-":{"ha":532,"x_min":47,"x_max":465,"o":"m 113 460 l 447 460 q 465 444 465 460 q 440 395 465 424 q 389 367 414 367 l 64 367 q 47 383 47 367 q 69 433 47 406 q 113 460 90 460 z "},".":{"ha":249,"x_min":38,"x_max":193,"o":"m 60 141 q 72 152 60 141 q 115 164 83 164 q 170 141 147 164 q 193 86 193 118 q 170 31 193 54 q 115 8 147 8 q 60 31 83 8 q 38 86 38 54 q 60 141 38 118 z "},"/":{"ha":386,"x_min":7,"x_max":714,"o":"m 640 840 q 647 842 642 842 q 689 818 664 842 q 714 774 714 794 q 703 750 714 760 q 319 351 558 640 q 50 -24 81 63 l 47 -24 q 19 -5 32 -24 q 7 36 7 14 q 11 60 7 47 q 303 465 44 153 q 640 840 561 776 z "},":":{"ha":378,"x_min":38,"x_max":331,"o":"m 60 141 q 72 152 60 141 q 115 164 83 164 q 170 141 147 164 q 193 86 193 118 q 170 31 193 54 q 115 8 147 8 q 60 31 83 8 q 38 86 38 54 q 60 141 38 118 m 198 542 q 209 554 198 542 q 253 565 221 565 q 308 542 285 565 q 331 488 331 519 q 308 433 331 456 q 253 410 285 410 q 198 433 221 410 q 175 488 175 456 q 198 542 175 519 z "},";":{"ha":378,"x_min":-1,"x_max":331,"o":"m 198 542 q 209 554 198 542 q 253 565 221 565 q 308 542 285 565 q 331 488 331 519 q 308 433 331 456 q 253 410 285 410 q 198 433 221 410 q 175 488 175 456 q 198 542 175 519 m 65 149 q 93 174 65 174 q 150 149 121 174 q 179 90 179 125 q 128 -2 179 47 q 38 -51 78 -51 q 10 -40 22 -51 q -1 -17 -1 -29 q 15 8 -1 -12 q 49 65 32 28 q 65 149 65 101 z "},"<":{"ha":551,"x_min":69,"x_max":453,"o":"m 433 592 q 453 568 453 588 q 410 499 453 540 q 208 401 367 456 q 350 315 325 361 q 367 268 367 286 q 333 232 367 239 q 92 367 303 293 q 69 415 69 381 q 81 443 69 439 q 171 472 86 446 q 327 529 256 499 q 433 592 399 560 z "},"=":{"ha":615,"x_min":72,"x_max":575,"o":"m 138 386 l 472 386 q 490 371 490 386 q 465 322 490 350 q 414 293 439 293 l 89 293 q 72 310 72 293 q 94 359 72 332 q 138 386 115 386 m 222 554 l 557 554 q 575 539 575 554 q 549 490 575 518 q 499 461 524 461 l 174 461 q 157 478 157 461 q 178 527 157 500 q 222 554 200 554 z "},">":{"ha":421,"x_min":-31,"x_max":353,"o":"m 332 457 q 353 408 353 444 q 342 381 353 385 q 251 352 335 378 q 95 295 168 326 q -11 232 22 264 q -31 256 -31 236 q 14 325 -31 285 q 214 422 67 374 q 72 508 97 464 q 57 556 57 535 q 89 592 57 585 q 332 457 121 529 z "},"?":{"ha":507,"x_min":1,"x_max":556,"o":"m 343 819 q 490 746 424 819 q 556 576 556 672 q 516 477 556 525 q 420 395 476 429 q 308 331 364 361 q 212 269 251 300 q 172 210 172 238 q 157 204 165 204 q 121 224 138 204 q 104 271 104 244 q 132 329 104 301 q 242 406 156 354 q 387 517 328 458 q 446 646 446 575 q 424 692 446 674 q 365 710 401 710 q 206 648 286 710 q 125 517 125 586 q 129 489 125 503 q 106 483 119 483 q 56 512 78 483 q 33 579 33 540 q 34 590 33 583 q 35 600 35 597 q 135 757 51 694 q 343 819 219 819 m 23 133 q 34 144 23 133 q 76 156 44 156 q 130 133 108 156 q 151 81 151 111 q 129 28 151 50 q 76 6 107 6 q 24 28 46 6 q 1 81 1 50 q 23 133 1 111 z "},"@":{"ha":832,"x_min":35,"x_max":842,"o":"m 571 758 q 775 692 708 758 q 842 524 842 626 l 842 515 q 758 252 842 381 q 578 115 674 124 q 497 144 533 115 q 450 215 461 174 q 339 108 375 108 q 265 153 308 108 q 221 254 221 199 q 307 456 221 339 q 474 572 393 572 q 538 549 504 572 q 589 504 571 525 q 614 508 592 508 q 660 496 636 508 q 685 468 685 483 q 590 338 635 410 q 546 236 546 267 q 564 204 546 204 q 702 305 638 204 q 767 511 767 406 q 720 640 767 586 q 592 693 674 693 q 414 644 500 693 q 269 520 328 594 q 176 359 211 446 q 142 197 142 272 q 185 57 142 110 q 314 4 229 4 q 413 23 369 4 q 472 61 457 42 l 489 79 q 503 44 503 69 q 431 -34 503 6 q 271 -74 360 -74 q 107 0 179 -74 q 35 197 35 74 q 53 323 35 253 q 116 470 72 393 q 219 611 160 547 q 372 717 279 675 q 571 758 464 758 m 343 231 q 367 242 353 231 q 401 272 382 253 q 438 313 419 292 q 476 360 456 333 q 510 406 497 388 q 539 445 524 424 q 557 469 554 467 q 517 501 538 501 q 402 400 475 501 q 329 250 329 299 q 335 233 329 238 q 343 231 340 231 z "},"A":{"ha":665,"x_min":-39,"x_max":850,"o":"m 715 863 q 803 824 757 863 q 850 757 850 786 q 847 746 850 750 q 813 692 840 738 q 738 563 785 646 q 651 401 692 479 q 674 401 661 401 q 690 400 688 400 q 712 388 701 400 q 722 363 722 375 q 713 343 722 351 q 619 336 706 343 q 514 31 514 125 q 528 7 514 18 q 543 -6 543 -4 q 501 -24 543 -24 q 406 7 451 -24 q 360 97 360 38 q 438 322 360 150 q 355 315 410 319 q 275 308 300 310 q 100 51 167 163 q 69 -1 72 4 q 64 -3 69 -3 q 4 29 44 -3 q -36 88 -36 61 q -33 100 -36 92 q 122 294 -4 143 q -25 279 21 286 l -29 279 q -39 292 -39 279 q -8 356 -39 317 q 54 396 24 394 q 210 400 106 397 q 715 863 608 863 m 343 400 q 409 401 365 400 q 474 401 453 401 q 633 707 557 571 q 646 736 646 731 q 643 739 646 739 q 539 638 629 739 q 343 400 449 536 z "},"B":{"ha":528,"x_min":-100,"x_max":628,"o":"m 628 618 q 553 452 628 529 q 368 344 478 375 q 440 283 411 328 q 468 176 468 239 q 467 165 468 172 q 467 154 467 157 q 366 -8 458 60 q 167 -76 274 -76 q 52 -44 106 -76 q -7 15 -1 -12 q -100 122 -100 35 q 251 719 -100 214 q 74 630 149 681 q 0 543 0 579 q 19 533 0 533 q 31 519 31 533 q 22 500 31 508 q -3 492 14 492 q -57 539 -24 492 q -90 635 -90 586 q -81 681 -90 660 q 90 827 -36 774 q 344 881 215 881 q 542 785 456 881 q 628 618 628 690 m 67 42 q 174 62 110 42 q 294 124 239 82 q 350 217 350 167 q 346 244 350 231 q 242 289 331 289 q 128 274 185 289 q 104 231 125 268 q 77 181 83 194 q 58 139 71 167 q 40 92 44 111 q 35 57 35 72 q 67 42 46 42 m 204 406 q 439 517 347 426 q 531 682 531 608 q 524 710 531 699 q 418 756 496 756 q 288 732 365 756 q 338 700 314 722 q 363 656 363 678 q 357 636 363 646 q 204 406 267 507 z "},"C":{"ha":565,"x_min":-17,"x_max":713,"o":"m 499 492 q 497 497 497 493 q 547 600 497 508 q 596 726 596 692 q 579 756 596 750 q 569 757 576 757 q 421 640 524 757 q 232 376 318 524 q 146 153 146 229 q 157 113 146 128 q 203 94 169 94 q 424 184 285 94 q 647 393 564 274 q 654 397 650 397 q 671 382 663 397 q 679 349 679 367 q 675 329 679 338 q 622 243 658 296 q 526 119 585 190 q 390 -1 467 49 q 242 -50 313 -50 q 69 40 154 -50 q -17 240 -17 129 q 63 456 -11 318 q 251 718 138 594 q 458 864 364 842 q 507 869 479 869 q 649 824 586 869 q 713 707 713 779 q 630 564 713 639 q 507 489 547 489 q 499 492 501 489 z "},"D":{"ha":788,"x_min":0,"x_max":821,"o":"m 775 372 q 821 336 821 356 q 819 331 821 332 l 817 331 q 794 333 814 331 q 760 338 774 336 q 575 74 692 185 q 318 -36 458 -36 q 269 -31 290 -36 q 225 -14 247 -26 q 191 26 203 -1 q 178 96 179 54 l 178 99 q 309 278 178 185 q 615 386 440 371 q 678 604 678 508 q 644 704 678 671 q 524 747 603 747 q 407 728 469 747 q 469 646 469 692 q 385 503 469 628 q 215 232 300 378 q 129 18 129 86 q 115 0 129 0 q 38 26 76 0 q 0 108 0 53 q 72 272 0 151 q 239 535 143 393 q 351 708 335 678 q 175 618 249 668 q 101 536 101 568 q 118 526 101 526 q 135 513 135 526 q 125 493 135 503 q 101 483 115 483 q 47 526 74 483 q 21 618 21 568 q 157 795 21 717 q 469 874 293 874 q 697 775 579 874 q 814 547 814 676 q 775 372 814 476 m 283 90 q 428 149 353 90 q 565 301 503 208 q 344 201 433 261 q 256 107 256 140 q 283 90 256 90 z "},"E":{"ha":594,"x_min":-3,"x_max":731,"o":"m 678 393 q 683 397 681 397 q 692 371 692 397 q 683 326 692 350 q 655 269 679 311 q 587 169 631 228 q 492 56 543 110 q 376 -35 442 3 q 253 -72 311 -72 q 76 13 156 -72 q -3 183 -3 97 q 8 235 -3 210 q 226 401 50 325 q 174 475 193 426 q 154 571 154 524 q 163 621 154 600 q 297 779 194 692 q 517 867 400 867 q 663 818 596 867 q 731 683 731 769 q 680 594 731 649 q 592 539 629 539 q 575 543 583 539 q 572 549 572 546 q 600 626 572 558 q 628 725 628 694 q 608 760 628 754 q 588 763 594 763 q 402 658 513 763 q 292 499 292 554 q 296 483 292 489 q 353 467 308 467 q 454 479 379 467 q 472 481 469 481 q 481 454 481 481 q 458 408 481 413 q 260 301 347 386 q 172 151 172 217 q 244 96 172 96 q 365 124 301 96 q 478 191 428 153 q 574 275 528 229 q 644 350 619 321 q 678 393 668 379 z "},"F":{"ha":533,"x_min":-111,"x_max":615,"o":"m 557 443 q 591 428 576 442 q 606 401 606 415 q 600 389 606 394 q 472 385 539 389 q 378 221 429 308 q 278 54 326 133 q 224 -36 231 -25 q 213 -40 222 -40 q 136 -17 183 -40 q 89 28 89 6 q 92 38 89 32 q 126 91 94 42 q 205 217 157 140 q 293 365 253 294 q 110 324 156 342 q 104 322 107 322 q 96 335 96 322 q 117 391 96 358 q 167 428 139 424 q 240 435 182 429 q 336 443 299 440 q 468 749 468 681 q 457 778 468 771 q 436 783 449 783 q 286 728 388 783 q 100 601 185 674 q 15 489 15 529 l 15 483 q 26 472 17 476 q 35 461 35 467 q 8 443 35 443 q -67 488 -24 443 q -111 576 -111 532 q -110 583 -111 579 q -110 588 -110 586 q -15 713 -100 644 q 182 828 69 782 q 378 874 294 874 q 540 804 465 874 q 615 668 615 735 q 610 640 615 657 q 588 590 603 619 q 544 513 572 561 q 507 447 517 465 q 557 443 554 443 z "},"G":{"ha":653,"x_min":0,"x_max":724,"o":"m 0 243 q 51 411 0 307 q 174 615 101 515 q 339 786 247 714 q 504 858 431 858 q 653 788 583 858 q 724 636 724 718 q 665 531 724 588 q 547 442 607 475 q 465 408 486 408 q 460 410 460 408 q 460 411 460 411 q 461 413 461 411 q 607 707 607 644 q 596 732 607 726 q 576 736 588 736 q 419 639 521 736 q 238 413 318 542 q 157 204 157 283 q 172 159 157 178 q 208 140 188 140 q 359 194 265 140 q 533 344 453 249 q 536 350 535 346 q 615 415 581 414 q 649 395 636 415 q 663 354 663 375 l 656 331 q 578 198 628 303 q 482 -10 528 93 q 371 -198 436 -114 q 244 -282 306 -282 q 106 -221 160 -282 q 51 -110 51 -160 q 65 -87 51 -87 q 98 -109 86 -87 q 135 -131 110 -131 q 413 124 257 -131 q 310 38 367 75 q 226 0 253 0 q 71 76 142 0 q 0 243 0 153 z "},"H":{"ha":658,"x_min":-42,"x_max":863,"o":"m 722 819 q 751 835 732 835 q 823 802 783 835 q 863 747 863 769 q 860 739 863 744 q 667 431 738 556 l 692 426 q 729 394 729 419 q 715 372 729 381 q 636 378 690 375 q 500 32 500 131 q 554 -31 500 -31 q 556 -36 556 -32 q 510 -58 556 -58 q 395 -17 447 -58 q 343 82 343 25 q 460 374 343 156 q 321 360 407 371 q 106 0 307 336 q 97 -3 104 -3 q 22 28 71 -3 q -26 83 -26 58 q -24 93 -26 88 q 1 133 -19 100 q 58 222 22 165 q 126 331 94 279 q 21 303 53 318 q 15 301 18 301 q 8 310 8 301 q 40 376 8 335 q 103 422 71 418 q 183 429 114 422 q 333 779 333 690 q 321 814 333 806 q 301 819 314 819 q 165 745 249 819 q 81 610 81 671 q 82 599 81 603 q 92 588 83 593 q 101 576 101 583 q 92 563 101 568 q 75 557 83 557 q 0 598 42 557 q -42 685 -42 639 l -42 696 q 67 833 -32 764 q 253 903 167 903 q 410 833 342 903 q 478 693 478 763 q 472 660 478 672 q 364 439 447 592 q 494 442 453 442 q 557 550 524 493 q 618 652 590 607 q 669 735 646 697 q 707 795 693 772 q 722 819 721 818 z "},"I":{"ha":528,"x_min":-32,"x_max":626,"o":"m 626 675 q 514 390 626 610 q 285 8 411 193 q 378 -1 326 7 q 441 -35 421 -8 q 461 -93 461 -61 q 440 -137 461 -133 q 290 -100 406 -117 q 78 -83 174 -83 q -21 -94 6 -83 q -32 -69 -32 -87 q 21 -11 -32 -29 q 186 10 85 7 q 151 65 151 42 q 154 78 151 74 q 365 433 300 313 q 482 743 482 654 q 447 788 482 788 q 325 722 403 788 q 187 570 247 656 q 126 436 126 485 q 136 424 126 429 q 146 414 146 419 q 119 396 146 396 q 43 435 85 396 q 1 518 1 474 q 39 622 1 561 q 133 738 76 683 q 263 832 190 793 q 399 871 336 871 q 559 808 492 871 q 626 675 626 746 z "},"J":{"ha":611,"x_min":-101,"x_max":697,"o":"m 15 -24 q 153 54 69 -24 q 326 260 236 132 l 314 257 q 83 143 181 229 q -14 4 -14 57 q 15 -24 -14 -22 m 111 -118 q -28 -73 46 -118 q -101 36 -101 -28 q 35 247 -101 143 q 318 350 171 350 q 385 344 356 350 q 514 581 465 465 q 563 753 563 697 q 549 789 563 781 q 510 797 535 797 q 389 753 464 797 q 236 626 314 708 q 156 490 156 542 q 165 481 156 485 q 174 471 174 476 q 149 453 174 453 q 78 490 117 453 q 40 569 40 528 q 124 713 43 631 q 283 835 193 785 q 453 885 374 885 q 621 817 544 885 q 697 681 697 750 l 694 658 q 533 274 644 464 q 560 231 560 247 q 550 218 560 218 q 510 235 546 218 q 324 -2 422 93 q 132 -117 225 -97 l 111 -118 z "},"K":{"ha":738,"x_min":-39,"x_max":933,"o":"m 817 869 q 829 875 822 875 q 896 831 858 875 q 933 743 933 786 q 926 714 933 731 q 808 582 896 656 q 640 456 721 508 q 415 317 558 403 q 570 65 490 156 q 703 -25 650 -25 q 735 -12 722 -25 q 751 -4 743 -4 q 769 -24 769 -4 q 761 -44 769 -33 q 583 -125 694 -125 q 500 -103 529 -125 q 308 251 422 -43 q 257 218 290 240 q 136 10 172 69 q 124 6 133 6 q 42 30 93 6 q -8 79 -8 54 q -6 89 -8 83 q 39 159 -3 93 q 129 304 81 225 q 229 474 178 383 q 314 647 281 565 q 347 769 347 728 q 338 801 347 790 q 314 813 328 813 q 173 736 260 813 q 86 597 86 660 q 97 576 86 585 q 108 564 108 567 q 81 543 108 543 q 3 585 46 543 q -39 674 -39 628 q 68 817 -39 736 q 263 897 175 897 q 415 827 351 897 q 479 685 479 757 q 351 394 479 636 q 664 656 522 508 q 817 869 806 803 z "},"L":{"ha":625,"x_min":-171,"x_max":806,"o":"m 656 913 q 762 862 718 913 q 806 758 806 811 q 631 467 806 625 q 236 254 457 310 q 178 61 178 124 l 178 57 q 447 97 339 97 q 518 92 474 97 q 590 42 567 85 q 613 -40 613 0 q 607 -61 613 -61 l 606 -61 q 357 -32 526 -32 q -36 -100 92 -32 q -49 -78 -49 -100 q 4 -6 -49 -35 q 100 33 32 11 q 29 143 29 75 q 46 221 29 171 l 26 221 q -28 224 6 221 q -128 288 -86 229 q -171 419 -171 347 q -164 460 -171 444 q -147 475 -157 475 q -126 457 -126 475 l -128 444 q 1 392 -128 392 q 126 404 58 392 q 233 581 174 496 q 361 742 292 665 q 508 866 431 819 q 656 913 585 913 m 358 478 q 622 640 518 547 q 725 793 725 733 q 714 824 725 813 q 689 835 703 835 q 544 731 638 835 q 358 478 451 626 z "},"M":{"ha":972,"x_min":-219,"x_max":1126,"o":"m 839 -67 q 735 -12 789 -67 q 678 85 681 42 l 678 90 q 692 167 678 119 q 739 281 707 214 q 791 388 771 347 q 852 505 811 428 q 896 588 893 582 l 896 589 q 800 508 886 589 q 627 322 714 428 q 540 164 540 217 l 540 161 q 518 149 540 149 q 437 174 460 151 q 411 238 414 196 l 411 243 q 487 478 411 301 q 563 661 563 654 l 563 663 q 561 664 563 664 q 358 409 538 661 q 88 -1 178 157 q 83 -4 85 -4 q 22 28 64 -4 q -21 86 -19 61 q -19 99 -21 94 l 0 133 q 41 204 21 168 q 90 294 61 240 q 144 399 119 349 q 192 501 169 450 q 227 594 214 551 q 240 664 240 638 q 217 703 240 703 q 33 584 163 703 q -96 394 -96 465 q -93 378 -96 386 q -87 367 -90 371 l -85 363 q -99 351 -85 351 q -175 390 -132 351 q -219 469 -218 428 q -156 599 -219 524 q -1 731 -92 675 q 156 786 89 786 q 303 736 243 786 q 367 621 364 686 l 367 611 q 344 519 367 586 q 524 750 443 663 q 643 838 606 838 q 735 794 683 838 q 789 719 786 750 q 786 710 789 715 q 751 653 785 707 q 672 523 718 600 q 594 389 626 446 q 630 427 596 389 q 715 520 664 465 q 820 631 767 575 q 921 724 874 686 q 988 763 968 763 q 1076 724 1028 763 q 1126 658 1124 686 q 1124 647 1126 650 q 938 335 1043 543 q 833 19 833 128 l 833 10 q 852 -24 835 -10 q 886 -39 869 -39 l 886 -42 q 839 -67 886 -67 z "},"N":{"ha":681,"x_min":-237,"x_max":851,"o":"m 375 128 q 440 298 375 176 q 571 524 506 419 q 636 638 636 629 q 635 639 636 639 q 518 551 618 639 q 285 319 418 464 q 79 51 153 175 q 49 -3 56 8 q 43 -4 47 -4 q -17 28 24 -4 q -57 86 -57 61 q -54 99 -57 94 q 1 185 -53 101 q 108 355 56 269 q 208 540 161 440 q 254 688 254 639 q 245 719 254 706 q 221 733 236 733 q 18 603 151 733 q -115 400 -115 472 q -107 372 -115 383 q -122 358 -114 358 q -197 397 -156 358 q -237 479 -237 436 q -197 575 -237 517 q -98 686 -157 633 q 36 777 -39 739 q 171 815 111 815 q 315 759 260 815 q 371 633 371 703 q 314 468 371 593 q 717 788 603 788 q 808 749 765 788 q 851 681 851 710 q 849 671 851 676 q 529 58 529 206 q 585 -1 529 -1 q 573 -21 585 -12 q 542 -29 561 -29 q 430 24 485 -29 q 375 128 375 78 z "},"O":{"ha":721,"x_min":0,"x_max":756,"o":"m 444 857 q 673 754 590 857 q 756 529 756 651 q 734 410 756 481 q 668 258 713 339 q 565 109 624 178 q 419 -6 506 40 q 239 -51 333 -51 q 67 28 133 -51 q 0 197 0 108 l 0 200 q 106 447 3 326 q 50 506 75 465 q 25 593 25 547 q 146 766 25 675 q 444 857 267 857 m 213 64 q 356 124 281 64 q 488 268 431 183 q 582 448 544 353 q 619 613 619 543 q 592 700 619 672 q 496 733 558 733 q 343 693 426 733 q 201 594 260 653 q 140 483 142 535 q 210 529 174 514 q 267 540 236 540 q 340 519 308 540 q 372 472 372 499 q 371 460 372 464 q 206 333 283 426 q 129 150 129 239 q 149 89 129 114 q 213 64 168 64 z "},"P":{"ha":717,"x_min":8,"x_max":800,"o":"m 519 882 q 634 842 579 882 q 724 749 689 803 q 779 642 758 694 q 800 558 800 589 q 675 337 800 443 q 397 231 550 231 q 264 257 329 231 q 257 261 258 260 q 156 7 156 83 q 168 -6 156 1 q 181 -21 181 -12 q 172 -35 181 -28 q 151 -42 163 -42 q 58 -8 107 -42 q 8 78 10 26 l 8 79 q 140 359 8 140 q 375 713 272 578 q 199 631 274 681 q 124 543 124 582 q 141 528 124 536 q 158 513 158 521 q 129 488 158 488 q 63 533 94 488 q 32 615 32 578 q 187 801 32 719 q 519 882 342 882 m 306 343 l 314 343 q 481 384 393 343 q 631 494 569 425 q 692 635 692 563 q 682 689 692 664 q 557 747 658 747 q 468 738 524 747 q 519 671 519 700 q 517 661 519 667 q 476 601 510 650 q 394 480 443 553 q 306 343 346 407 z "},"Q":{"ha":736,"x_min":1,"x_max":757,"o":"m 703 -117 q 722 -137 722 -117 q 715 -154 722 -144 q 640 -210 686 -187 q 547 -232 593 -232 q 469 -207 503 -232 q 350 -36 419 -169 q 240 -53 297 -53 q 68 27 135 -53 q 1 196 1 107 l 1 199 q 107 446 4 325 q 51 505 76 464 q 26 592 26 546 q 147 765 26 674 q 446 856 268 856 q 674 753 592 856 q 757 528 757 650 q 725 375 757 467 q 624 181 693 283 q 465 19 554 79 q 574 -93 518 -54 q 674 -132 631 -132 q 689 -124 679 -132 q 703 -117 699 -117 m 214 63 q 296 83 250 63 q 257 228 265 163 l 257 238 q 276 291 257 268 q 315 314 294 314 q 333 308 326 314 q 390 150 357 225 q 553 376 485 239 q 621 611 621 513 q 593 699 621 671 q 501 731 560 731 q 269 642 394 731 q 142 482 143 554 q 211 528 175 513 q 268 539 238 539 q 342 518 310 539 q 374 471 374 497 q 372 458 374 463 q 208 331 285 425 q 131 149 131 238 q 150 88 131 113 q 214 63 169 63 z "},"R":{"ha":700,"x_min":1,"x_max":785,"o":"m 722 -57 q 738 -64 732 -57 q 744 -81 744 -71 q 736 -100 744 -89 q 649 -162 703 -137 q 543 -187 594 -187 q 454 -160 490 -187 q 350 2 403 -121 q 268 250 297 125 q 258 253 265 251 q 249 257 251 256 l 246 258 q 149 13 149 88 q 161 0 149 6 q 174 -15 174 -6 q 164 -30 174 -22 q 144 -37 154 -37 q 51 0 101 -37 q 1 83 1 38 q 133 362 1 143 q 365 715 264 581 q 185 632 261 682 q 108 543 108 582 q 125 528 108 536 q 142 513 142 521 q 114 488 142 488 q 48 532 79 488 q 17 615 17 576 q 171 801 17 719 q 503 882 325 882 q 649 815 581 882 q 751 676 718 749 q 785 558 785 603 q 665 342 785 447 q 396 232 544 238 q 540 10 468 93 q 688 -74 611 -74 q 706 -65 694 -74 q 722 -57 717 -57 m 667 689 q 540 747 643 747 q 465 740 510 747 q 511 675 511 700 q 510 667 511 669 q 469 606 503 656 q 385 483 435 557 q 296 343 336 408 l 297 343 q 465 384 376 343 q 615 494 553 425 q 676 635 676 563 q 667 689 676 664 z "},"S":{"ha":579,"x_min":-61,"x_max":746,"o":"m 436 525 q 558 660 497 586 q 619 768 619 735 q 597 786 619 786 q 430 725 535 786 q 244 584 325 664 q 164 454 164 504 q 181 427 164 440 q 228 402 197 414 q 286 382 260 390 q 350 364 313 374 q 400 350 388 354 q 510 192 510 314 q 444 71 510 135 q 290 -35 379 7 q 133 -76 201 -76 q 2 3 65 -76 q -61 144 -61 83 q -28 219 -61 186 q 31 253 6 253 q 43 247 39 253 q 3 133 3 176 q 3 126 3 131 q 4 121 4 122 q 46 103 6 103 q 253 156 125 103 q 382 249 382 208 q 322 280 382 264 q 189 313 261 296 q 56 378 117 331 q -4 494 -4 425 q 50 622 -4 547 q 184 764 104 697 q 363 878 264 831 q 543 925 463 925 q 689 854 632 925 q 746 715 746 783 q 629 594 746 664 q 450 524 513 524 q 436 525 440 524 z "},"T":{"ha":350,"x_min":-85,"x_max":757,"o":"m 678 878 q 738 844 718 867 q 757 801 757 821 q 747 783 757 786 q 581 800 685 800 q 440 793 519 800 q 483 743 483 763 q 481 736 483 742 q 384 576 454 697 q 229 276 314 456 q 144 22 144 97 q 153 -15 144 0 q 119 -26 146 -26 q 37 3 78 -26 q -4 79 -4 32 q 72 299 -4 136 q 210 574 147 461 q 328 778 274 688 q 106 721 199 757 q 7 649 14 685 l 7 646 q 13 635 7 640 q 18 625 18 629 q 17 621 18 622 q -3 611 14 611 q -15 613 -12 611 q -62 665 -39 622 q -85 750 -85 708 q -74 796 -85 778 q 116 869 -44 844 q 458 894 276 894 q 678 878 618 894 z "},"U":{"ha":708,"x_min":-92,"x_max":883,"o":"m 742 803 q 771 817 751 817 q 843 783 803 817 q 883 728 883 750 q 881 719 883 725 q 780 563 854 683 q 617 267 706 443 q 529 17 529 92 q 572 -35 529 -35 q 592 -51 592 -35 q 583 -69 592 -61 q 561 -76 575 -76 q 433 -32 494 -76 q 371 82 371 13 q 483 363 371 149 q 111 3 169 3 q 33 51 67 3 q -1 156 -1 99 q 66 328 -1 201 q 201 581 133 456 q 269 749 269 706 q 261 769 269 764 q 244 774 256 774 q 110 702 193 774 q 28 571 28 631 q 28 565 28 569 q 29 560 29 561 q 39 549 29 553 q 49 538 49 544 q 22 519 49 519 q -51 559 -11 519 q -92 642 -92 599 q -91 647 -92 644 q -90 653 -90 650 q 15 788 -82 719 q 194 856 111 856 q 347 787 281 856 q 414 650 414 718 q 408 618 414 631 q 288 397 393 578 q 182 189 182 215 q 185 182 182 185 l 188 182 q 395 362 219 182 q 668 683 571 542 q 706 746 689 719 l 707 749 q 742 803 738 799 z "},"V":{"ha":819,"x_min":0,"x_max":964,"o":"m 310 853 q 465 783 397 853 q 532 644 532 714 q 526 614 532 626 q 464 473 515 586 q 374 267 413 360 q 336 150 336 175 q 339 142 336 144 q 343 140 340 140 q 494 273 378 140 q 716 574 611 406 q 821 821 821 742 q 809 837 821 826 q 797 854 797 847 q 825 872 797 872 q 907 815 850 872 q 964 696 964 758 q 954 649 964 669 q 788 410 917 568 q 522 124 658 253 q 336 -6 385 -6 q 236 44 289 -6 q 183 147 183 93 q 285 441 183 201 q 388 738 388 681 q 378 767 388 758 q 364 771 371 771 q 215 679 311 771 q 119 525 119 588 q 120 519 119 522 q 121 515 121 517 q 131 504 122 508 q 140 493 140 500 q 114 475 140 475 q 40 515 81 475 q 0 599 0 554 q 1 604 0 600 q 1 610 1 608 q 119 765 10 678 q 310 853 228 853 z "},"W":{"ha":1139,"x_min":-11,"x_max":1283,"o":"m 1144 872 q 1226 815 1169 872 q 1283 696 1283 758 q 1274 649 1283 669 q 1009 249 1206 504 q 742 -6 813 -6 q 642 44 694 -6 q 589 147 589 93 q 653 356 589 207 q 456 107 558 219 q 318 -6 353 -6 q 218 44 271 -6 q 165 147 165 93 q 283 444 165 203 q 400 740 400 686 q 390 767 400 761 q 376 771 383 771 q 216 678 322 771 q 110 524 110 586 l 110 515 q 120 504 111 508 q 129 493 129 500 q 103 475 129 475 q 29 515 69 475 q -11 599 -11 554 q -10 604 -11 600 q -10 610 -10 608 q 119 765 -1 676 q 324 853 239 853 q 478 784 411 853 q 544 646 544 715 q 539 614 544 626 q 474 481 525 578 q 380 303 422 385 q 338 201 338 221 q 340 194 338 194 l 343 194 q 469 292 372 194 q 653 507 565 390 q 749 672 740 624 q 785 688 764 688 q 838 661 814 688 q 863 599 863 635 q 801 382 863 546 q 740 196 740 218 q 744 186 740 189 q 750 185 746 185 q 877 307 782 185 q 1056 585 972 429 q 1139 821 1139 742 q 1128 837 1139 826 q 1117 854 1117 847 q 1144 872 1117 872 z "},"X":{"ha":542,"x_min":-376,"x_max":771,"o":"m 665 901 q 683 904 676 904 q 745 870 719 904 q 771 796 771 836 q 763 758 771 775 q 358 410 713 653 q 369 311 365 346 q 380 221 372 276 q 395 135 388 165 q 415 72 403 104 q 441 24 426 39 q 474 10 456 10 q 508 33 494 10 q 531 56 522 56 q 547 44 540 56 q 553 24 553 33 q 494 -56 553 -21 q 382 -92 435 -92 q 302 -61 336 -92 q 247 28 268 -31 q 214 148 226 86 q 192 293 201 210 q -192 -158 -192 8 q -210 -160 -199 -160 q -279 -133 -251 -160 q -307 -68 -307 -107 q -306 -51 -307 -57 q 182 408 -279 82 q 151 683 163 638 q 110 743 135 742 q -26 681 60 743 q -180 536 -112 618 q -247 403 -247 454 q -237 390 -247 394 q -228 378 -228 385 q -236 367 -228 372 q -254 361 -244 361 q -332 401 -287 361 q -376 489 -376 442 q -303 632 -376 549 q -128 776 -229 715 q 47 838 -26 838 q 300 717 232 838 q 344 524 328 664 q 569 724 471 619 q 667 892 667 828 q 666 897 667 893 q 665 901 665 900 z "},"Y":{"ha":793,"x_min":-4,"x_max":958,"o":"m 757 713 q 810 801 797 789 q 842 814 822 814 q 917 779 876 814 q 958 722 958 744 q 956 715 958 718 q 874 575 933 688 q 742 333 814 463 q 590 76 671 204 q 419 -137 508 -53 q 257 -222 329 -222 q 135 -168 183 -222 q 88 -68 88 -114 q 103 -46 88 -46 q 135 -73 122 -46 q 174 -100 149 -100 q 601 418 318 -100 q 360 156 456 251 q 228 61 265 61 q 151 108 185 61 q 117 211 117 156 q 235 482 117 268 q 354 743 354 696 q 346 765 354 758 q 328 769 339 769 q 195 698 276 769 q 114 568 114 626 q 115 563 114 567 q 115 557 115 558 q 125 546 115 550 q 135 535 135 542 q 108 517 135 517 q 35 556 75 517 q -4 639 -4 594 q -3 644 -4 640 q -3 650 -3 647 q 101 783 6 715 q 279 850 196 850 q 431 782 365 850 q 497 646 497 714 q 492 615 497 628 q 387 422 476 575 q 297 246 297 269 q 300 239 297 242 l 303 239 q 506 408 338 239 q 757 713 675 578 z "},"Z":{"ha":738,"x_min":-47,"x_max":860,"o":"m 672 856 q 797 763 733 844 q 860 613 860 682 q 856 583 860 597 q 653 396 833 518 q 264 163 472 274 q 528 119 439 119 q 614 142 592 119 q 639 157 629 157 q 651 132 651 157 q 606 16 651 79 q 488 -47 560 -47 q 121 81 374 -47 q 39 56 64 56 l 31 56 q -15 83 8 58 q -44 138 -39 108 q -47 160 -47 151 q -33 208 -47 188 q 1 228 -19 228 q 85 213 26 228 q 344 357 186 254 q 624 561 503 460 q 744 699 744 663 q 743 706 744 704 q 653 726 732 726 q 428 692 547 726 q 296 608 310 657 l 296 606 q 301 594 296 601 q 306 585 306 588 q 304 579 306 581 q 288 569 300 569 q 271 574 283 569 q 240 668 240 588 q 268 788 240 743 q 387 842 292 824 q 585 861 482 861 q 672 856 644 861 z "},"[":{"ha":324,"x_min":44,"x_max":633,"o":"m 433 947 l 617 947 q 633 931 633 947 q 617 899 632 915 q 585 883 603 883 l 474 883 q 457 874 465 883 q 446 856 449 864 q 149 -28 440 836 l 149 -29 q 154 -33 149 -33 l 292 -33 q 308 -49 308 -33 q 292 -81 307 -64 q 260 -97 278 -97 l 114 -97 q 72 -72 99 -97 q 44 -25 44 -47 l 44 -22 q 45 -18 44 -21 q 46 -14 46 -15 q 117 195 49 -6 q 259 612 186 396 q 351 886 332 828 q 381 924 357 900 q 433 947 404 947 z "},"\\":{"ha":790,"x_min":24,"x_max":736,"o":"m 97 840 q 437 465 176 778 q 731 60 697 153 q 736 36 736 49 q 723 -5 736 14 q 696 -24 710 -24 l 693 -24 q 421 352 661 64 q 35 750 181 640 q 24 774 24 760 q 49 818 24 794 q 92 842 75 842 q 97 840 96 842 z "},"]":{"ha":507,"x_min":51,"x_max":640,"o":"m 251 -99 l 68 -99 q 51 -82 51 -99 q 67 -51 53 -67 q 100 -35 82 -35 l 210 -35 q 226 -24 217 -35 q 239 -7 236 -14 q 536 876 251 40 q 531 882 536 882 l 393 882 q 376 896 376 882 l 376 899 q 392 930 378 914 q 424 946 407 946 l 571 946 q 613 921 586 946 q 640 872 640 896 l 640 871 q 639 864 639 868 q 568 653 635 849 q 426 238 501 458 q 332 -37 350 17 q 303 -75 326 -51 q 251 -99 281 -99 z "},"^":{"ha":319,"x_min":35,"x_max":300,"o":"m 300 792 q 282 782 294 782 q 236 800 263 782 q 175 869 192 831 q 90 810 143 825 q 57 804 72 804 q 35 818 36 804 q 158 931 83 831 q 192 939 167 939 q 213 935 211 939 l 228 899 q 260 834 242 863 q 300 792 278 806 z "},"_":{"ha":767,"x_min":32,"x_max":636,"o":"m 79 -37 l 618 -37 q 636 -53 636 -37 q 619 -90 636 -74 q 578 -106 603 -106 l 49 -106 q 32 -89 32 -106 q 44 -52 32 -67 q 79 -37 57 -37 z "},"`":{"ha":382,"x_min":67,"x_max":301,"o":"m 251 951 q 149 987 221 951 q 68 1038 78 1022 q 67 1046 67 1039 q 85 1089 67 1063 q 118 1115 104 1115 q 129 1108 125 1115 q 204 1034 142 1081 q 293 986 267 988 q 301 981 301 986 q 286 962 301 972 q 253 951 271 951 l 251 951 z "},"a":{"ha":592,"x_min":1,"x_max":689,"o":"m 667 365 q 671 368 669 368 q 683 353 678 368 q 689 319 689 338 q 685 297 689 306 q 640 207 669 263 q 554 79 610 151 q 461 7 499 7 q 365 48 407 7 q 310 147 322 89 q 163 0 211 0 q 61 61 121 0 q 1 196 1 122 q 53 367 1 265 q 188 547 106 468 q 342 625 269 625 q 496 532 414 625 q 528 540 506 540 q 592 524 561 540 q 624 485 624 507 q 499 313 558 410 q 440 176 440 215 q 456 158 440 158 q 504 178 476 158 q 559 228 532 197 q 608 285 586 258 q 647 339 629 313 l 667 365 m 147 192 q 165 167 147 167 q 190 176 175 167 q 223 202 204 185 q 260 238 242 219 q 299 284 278 257 q 338 333 321 311 q 377 382 356 354 q 410 426 399 410 q 437 463 421 442 q 454 488 453 485 q 400 531 428 531 q 302 464 364 531 q 194 315 240 397 q 147 192 147 233 z "},"b":{"ha":597,"x_min":-42,"x_max":617,"o":"m 468 603 q 567 555 517 603 q 617 453 617 507 q 570 276 617 383 q 450 85 524 169 q 311 0 376 0 q 210 43 254 0 q 140 147 165 86 q 93 57 99 78 q 90 35 90 40 q 82 11 90 22 q 61 0 74 0 q -3 30 36 0 q -42 100 -42 60 q 96 428 -42 165 q 310 794 233 690 q 374 819 328 819 q 436 803 408 819 q 464 763 464 788 q 236 390 361 628 q 468 603 390 603 m 256 139 q 396 276 317 139 q 475 493 475 413 q 450 531 475 531 q 338 426 422 531 q 172 199 253 321 q 256 139 221 139 z "},"c":{"ha":485,"x_min":14,"x_max":578,"o":"m 511 449 q 411 338 511 371 q 343 328 381 328 q 276 344 276 328 q 279 349 276 347 q 365 428 332 382 q 397 504 397 475 q 390 521 397 517 q 374 525 383 525 q 243 413 321 525 q 165 218 165 301 q 251 138 165 138 q 415 202 335 138 q 557 363 496 267 q 565 368 561 368 q 578 331 578 368 q 574 304 578 317 q 525 207 554 256 q 453 110 496 158 q 350 31 410 61 q 225 0 290 0 q 66 59 118 0 q 14 219 14 118 q 115 485 14 354 q 313 615 215 615 q 451 560 392 615 q 511 449 511 506 z "},"d":{"ha":589,"x_min":1,"x_max":803,"o":"m 667 365 q 671 368 668 368 q 681 355 676 368 q 686 326 686 342 q 681 300 686 310 q 651 240 669 276 q 599 145 633 204 q 528 47 565 86 q 461 7 490 7 q 365 48 407 7 q 310 147 322 89 q 163 0 211 0 q 61 61 121 0 q 1 196 1 122 q 53 367 1 265 q 188 547 106 468 q 342 625 269 625 q 483 544 407 625 q 661 813 625 779 q 704 825 675 825 q 771 806 739 825 q 803 764 803 788 q 587 448 726 676 q 447 169 447 219 q 456 158 447 158 q 504 178 476 158 q 559 228 532 197 q 608 285 586 258 q 647 339 629 313 l 667 365 m 156 169 q 165 167 161 167 q 439 467 225 167 q 445 476 440 468 q 453 490 450 485 q 400 531 425 531 q 302 464 364 531 q 194 315 240 397 q 147 192 147 233 q 156 169 147 175 z "},"e":{"ha":486,"x_min":10,"x_max":583,"o":"m 561 363 q 571 368 565 368 q 583 333 583 368 q 578 300 583 313 q 528 203 558 251 q 453 106 497 154 q 349 28 410 58 q 224 -3 289 -3 q 63 58 117 -3 q 10 219 10 118 q 112 485 10 354 q 311 615 214 615 q 450 560 390 615 q 510 449 510 506 q 424 302 510 369 q 268 235 339 235 q 168 256 207 235 q 163 215 163 228 q 250 138 163 138 q 421 204 335 138 q 561 363 507 271 m 389 521 q 372 525 381 525 q 275 458 333 525 q 185 311 217 390 q 335 395 274 331 q 396 503 396 460 q 389 521 396 517 z "},"f":{"ha":347,"x_min":-92,"x_max":447,"o":"m 432 364 q 438 367 435 367 q 447 349 447 367 q 440 315 447 335 q 264 156 389 178 q 212 -93 264 22 q 79 -208 160 -208 q -33 -157 25 -208 q -92 -56 -92 -106 q 126 469 -92 56 q 261 692 236 669 q 293 700 271 700 q 358 683 325 700 q 393 643 392 665 q 208 333 329 565 q 243 288 231 318 q 254 249 251 263 q 432 364 363 264 m 67 -51 q 141 6 106 -51 q 176 147 176 63 l 176 156 q 128 169 157 158 q 56 -33 56 15 q 67 -51 56 -51 z "},"g":{"ha":569,"x_min":-149,"x_max":560,"o":"m 508 433 q 560 375 560 408 q 558 367 560 369 q 527 256 549 325 q 459 77 506 186 q 356 -122 413 -32 q 216 -277 300 -211 q 42 -343 132 -343 q -94 -297 -40 -343 q -149 -187 -149 -250 q -146 -160 -149 -169 q -127 -125 -142 -140 q -99 -110 -112 -110 q -86 -114 -92 -110 q -93 -143 -93 -131 q -69 -193 -93 -172 q -11 -214 -44 -214 q 353 217 181 -214 q 169 0 201 0 q 63 61 126 0 q 0 196 0 122 q 54 367 0 265 q 192 547 108 468 q 349 625 276 625 q 490 544 410 625 q 514 479 514 521 q 508 433 514 461 m 432 447 l 435 447 l 436 449 q 436 451 436 450 q 442 454 436 454 q 447 453 443 454 q 451 453 450 453 l 451 465 q 407 531 451 531 q 307 460 371 531 q 195 305 243 390 q 147 178 147 219 q 156 156 147 161 q 164 153 161 153 q 292 263 199 153 q 432 447 385 374 z "},"h":{"ha":613,"x_min":-42,"x_max":718,"o":"m 697 364 q 704 368 701 368 q 718 331 718 368 q 711 296 718 314 q 665 203 697 264 q 582 75 633 143 q 497 7 531 7 q 371 65 429 7 q 313 189 313 124 q 369 347 313 244 q 426 451 426 450 q 424 453 426 453 q 326 368 407 450 q 169 183 246 286 q 92 35 92 81 q 83 11 92 22 q 61 0 74 0 q -3 31 36 0 q -42 101 -42 61 q 97 427 -42 167 q 313 796 235 688 q 376 821 331 821 q 439 805 411 821 q 467 763 467 789 q 214 346 354 615 q 518 601 435 601 q 601 565 557 601 q 644 500 644 528 q 642 490 644 496 q 589 412 622 463 q 514 284 556 361 q 472 179 472 207 q 486 163 472 163 q 697 364 550 163 z "},"i":{"ha":326,"x_min":-1,"x_max":444,"o":"m 339 526 q 210 335 275 453 q 146 171 146 217 q 160 151 146 151 q 299 238 218 151 q 403 365 381 324 q 407 368 404 368 q 417 350 413 368 q 422 313 422 332 q 418 286 422 297 q 390 229 413 271 q 333 134 367 188 q 256 40 299 81 q 176 0 213 0 q 56 61 114 0 q -1 189 -1 122 q 81 401 -1 244 q 200 586 163 558 q 226 593 210 593 q 300 572 261 593 q 339 526 339 551 m 308 746 q 342 751 324 751 q 412 730 379 751 q 444 685 444 708 q 383 611 444 664 q 296 556 321 556 l 294 556 q 264 572 279 556 q 247 608 247 590 l 247 613 q 268 690 247 642 q 308 746 289 738 z "},"j":{"ha":293,"x_min":-485,"x_max":439,"o":"m 293 736 q 325 742 306 742 q 399 720 363 742 q 439 675 436 699 l 439 674 q 387 599 439 650 q 310 546 335 547 l 308 546 q 275 563 293 546 q 253 599 257 579 q 251 617 251 603 q 265 689 251 649 q 293 736 278 729 m 24 221 q 65 347 26 263 q 139 494 103 431 l 176 557 q 232 585 194 585 q 314 558 274 585 q 354 504 354 531 q 282 401 322 479 q 204 228 242 322 q 114 28 167 135 q 6 -164 61 -78 q -128 -306 -50 -250 q -293 -362 -207 -362 q -433 -315 -382 -362 q -485 -208 -485 -268 q -467 -149 -485 -168 q -433 -129 -450 -129 q -425 -132 -428 -129 q -421 -169 -425 -150 q -398 -211 -417 -189 q -347 -233 -379 -233 q -254 -206 -300 -233 q -173 -137 -208 -178 q -99 -32 -137 -97 q -35 88 -61 33 q 24 221 -10 143 z "},"k":{"ha":556,"x_min":-40,"x_max":653,"o":"m 503 588 q 581 544 543 588 q 619 478 619 501 q 615 471 619 471 q 608 472 611 471 q 586 476 600 476 q 455 426 539 476 q 276 289 371 375 q 342 207 290 258 q 429 156 394 156 q 465 169 444 156 q 505 202 486 183 q 547 248 524 221 q 583 294 569 275 q 613 335 596 313 q 629 358 629 357 q 632 360 629 360 q 646 349 639 360 q 653 322 653 339 q 650 300 653 308 q 607 206 643 274 q 513 69 571 138 q 411 1 456 1 q 210 224 306 1 q 93 43 107 114 l 93 35 q 84 11 93 22 q 63 0 75 0 q -1 30 38 0 q -40 100 -40 60 q 98 427 -40 165 q 314 794 236 689 q 376 819 333 819 q 439 803 411 819 q 467 761 467 788 q 169 283 276 507 q 366 499 272 410 q 503 588 460 588 z "},"l":{"ha":314,"x_min":-3,"x_max":471,"o":"m 471 761 q 401 598 471 694 q 239 424 331 501 q 170 278 199 353 q 142 168 142 203 q 154 146 142 146 q 220 173 183 146 q 292 243 257 200 q 345 311 326 286 q 379 360 364 336 q 383 363 382 363 q 401 344 392 363 q 410 308 410 326 q 407 294 410 303 q 305 124 392 246 q 164 3 218 3 q 49 56 101 3 q -3 176 -3 110 q 135 511 -3 265 q 342 808 274 757 q 375 817 354 817 q 440 800 408 817 q 471 761 471 783 z "},"m":{"ha":921,"x_min":-47,"x_max":1022,"o":"m 1001 364 q 1008 368 1006 368 q 1022 326 1022 368 q 1017 293 1022 306 q 919 119 990 231 q 801 7 849 7 q 674 65 732 7 q 617 189 617 124 q 654 301 617 229 q 729 432 692 374 q 767 496 767 490 q 765 497 767 497 q 674 432 749 496 q 526 284 599 368 q 454 154 454 200 q 464 147 457 147 q 426 106 464 106 q 355 142 389 106 q 321 204 321 179 q 359 319 321 244 q 435 453 397 393 q 472 521 472 514 q 471 522 472 522 q 367 421 456 521 q 193 201 278 321 q 108 35 108 81 q 110 28 110 33 q 99 10 110 18 q 78 1 89 1 q -9 29 29 1 q -47 101 -47 57 q 68 358 -47 150 q 183 610 183 567 q 208 631 183 631 q 281 603 242 631 q 321 546 321 575 q 303 498 321 531 q 247 404 285 465 q 188 303 210 343 q 381 528 285 431 q 528 625 478 625 q 610 588 567 625 q 654 525 654 551 q 651 515 654 521 q 640 499 650 514 q 617 464 631 485 q 589 422 603 443 q 807 586 733 586 q 890 549 846 586 q 933 486 933 513 q 931 476 933 482 q 835 323 894 425 q 775 181 775 221 q 790 163 775 163 q 873 213 821 163 q 953 299 925 263 q 1001 364 982 336 z "},"n":{"ha":633,"x_min":-54,"x_max":735,"o":"m 707 364 q 713 368 708 368 q 728 350 721 368 q 735 311 735 332 q 731 285 735 297 q 631 118 708 229 q 507 7 554 7 q 381 65 439 7 q 322 189 322 124 q 355 294 322 228 q 420 413 388 360 q 453 471 453 465 q 451 472 453 472 q 351 383 436 471 q 183 188 265 296 q 101 35 101 79 q 103 28 103 32 q 92 10 103 18 q 71 1 82 1 q -16 29 22 1 q -54 101 -54 57 q 60 356 -54 150 q 175 606 175 561 q 200 626 175 626 q 273 599 233 626 q 313 542 313 571 q 292 488 313 526 q 230 385 271 450 q 164 274 189 319 q 378 512 269 404 q 539 619 486 619 q 622 583 578 619 q 665 519 665 546 q 663 510 665 515 q 550 327 625 457 q 475 154 475 197 q 488 138 475 138 q 707 364 551 138 z "},"o":{"ha":549,"x_min":-6,"x_max":633,"o":"m 617 364 q 628 351 622 364 q 633 321 633 338 q 567 197 633 256 q 431 131 501 138 l 428 131 q 325 32 382 69 q 221 -6 268 -6 q 74 53 153 -6 q -6 181 -6 113 q 40 367 -6 269 q 121 497 85 465 q 136 504 129 503 q 217 596 161 560 q 339 632 272 632 q 474 575 408 632 q 539 449 539 518 q 490 233 539 338 q 556 277 526 247 q 617 364 585 307 m 365 556 q 254 460 293 556 q 258 447 258 453 l 246 431 q 238 371 238 401 q 258 283 238 322 q 321 228 279 244 q 394 358 365 286 q 422 483 422 431 q 365 556 422 556 m 176 129 q 271 172 221 129 q 175 253 218 203 q 167 263 172 257 q 160 272 163 269 q 140 185 140 222 q 176 129 140 129 z "},"p":{"ha":590,"x_min":-149,"x_max":611,"o":"m 461 601 q 560 553 510 601 q 611 450 611 506 q 563 274 611 381 q 437 81 514 167 q 294 -4 360 -4 q 239 9 263 -4 q 198 51 215 22 q 172 101 181 81 q 151 161 164 122 q 60 -12 118 115 q 3 -187 3 -139 q 7 -204 3 -197 q 10 -212 10 -210 q -26 -232 10 -232 q -112 -207 -76 -232 q -149 -139 -149 -182 q 15 242 -149 -90 q 178 617 178 574 q 204 638 178 638 q 276 610 238 638 q 315 553 315 583 q 304 519 315 543 q 270 449 293 494 q 232 371 247 404 q 260 409 240 382 q 290 448 281 436 q 317 482 299 460 q 344 515 335 504 q 369 543 354 526 q 395 568 385 560 q 417 585 406 576 q 440 598 429 594 q 461 601 451 601 m 246 140 q 383 267 307 140 q 458 472 458 394 q 433 510 458 510 q 348 437 407 510 q 192 225 289 364 q 208 189 199 214 q 226 152 218 164 q 246 140 233 140 z "},"q":{"ha":593,"x_min":-24,"x_max":675,"o":"m 543 589 q 565 597 549 597 q 635 572 596 597 q 675 524 675 546 q 671 511 675 517 q 480 185 618 443 q 342 -183 342 -72 q 392 -244 342 -244 q 368 -271 392 -261 q 311 -281 344 -281 q 239 -267 271 -281 q 178 -162 178 -240 q 179 -136 178 -146 q 339 219 188 -71 q 146 -3 196 -3 q 40 58 103 -3 q -24 193 -24 119 q 32 365 -24 263 q 173 545 88 467 q 331 624 258 624 q 501 518 406 624 q 543 589 535 581 m 132 150 q 140 147 138 147 q 464 469 203 147 q 388 528 417 528 q 287 457 351 528 q 173 300 222 386 q 124 172 124 214 q 132 150 124 156 z "},"r":{"ha":575,"x_min":-57,"x_max":703,"o":"m 515 614 q 593 581 553 614 q 633 524 633 549 q 631 513 633 515 q 599 470 631 511 q 544 390 567 429 q 521 326 521 350 q 528 307 521 313 q 535 304 531 304 q 628 380 556 304 q 701 456 700 456 q 703 453 703 456 q 668 363 703 436 q 598 254 643 310 q 529 199 553 199 q 447 241 485 199 q 404 325 408 283 l 404 338 q 439 476 404 397 q 216 235 332 381 q 99 29 100 89 q 100 24 100 28 q 90 5 100 14 q 68 -4 79 -4 q -19 24 19 -4 q -57 96 -57 53 q 58 351 -57 144 q 172 600 172 557 q 199 621 172 621 q 271 594 232 621 q 310 536 310 567 q 289 483 310 519 q 228 381 268 446 q 163 272 188 317 q 515 614 429 614 z "},"s":{"ha":401,"x_min":-115,"x_max":471,"o":"m 325 622 q 408 650 340 650 q 471 628 471 650 q 468 619 471 622 q 422 447 422 558 l 422 424 q 419 401 422 404 q 407 394 414 394 q 340 497 375 394 q 318 407 318 453 q 333 283 318 368 q 349 156 349 199 q 275 -17 349 50 q 111 -85 201 -85 q -44 -26 24 -85 q -115 111 -112 32 l -115 117 q -78 209 -115 172 q 24 247 -40 246 l 25 247 q 49 231 49 247 q 38 221 49 221 l 36 221 q 15 197 15 221 q 68 97 15 149 q 167 44 121 44 q 210 62 194 44 q 226 110 226 79 q 187 248 226 149 q 139 376 147 347 q 81 269 115 328 q 65 263 76 263 q 36 271 51 263 q 21 289 21 279 q 22 293 21 292 q 122 501 100 419 q 158 581 129 542 q 226 621 188 621 q 319 593 275 621 q 325 622 319 613 z "},"t":{"ha":311,"x_min":-6,"x_max":557,"o":"m 492 714 q 537 685 517 710 q 557 640 557 661 q 549 622 557 628 q 388 639 499 636 q 222 350 303 506 q 142 157 142 194 q 151 143 142 143 q 244 194 189 143 q 327 285 299 246 q 376 357 356 325 q 382 360 378 360 q 398 341 389 360 q 407 304 407 322 q 406 290 407 294 q 356 201 396 267 q 258 67 317 135 q 163 0 200 0 q 47 53 100 0 q -6 174 -6 107 q 63 356 -6 219 q 219 636 132 493 q 75 619 119 628 q 69 635 69 625 q 88 674 69 653 q 129 701 106 696 q 274 719 193 715 q 354 825 332 807 q 383 833 364 833 q 456 818 417 833 q 494 788 494 803 q 492 779 494 782 q 440 718 472 764 q 492 714 467 717 z "},"u":{"ha":604,"x_min":3,"x_max":710,"o":"m 690 385 l 693 388 q 704 368 699 388 q 710 328 710 349 q 706 301 710 313 q 680 240 699 282 q 630 139 661 199 q 559 37 599 79 q 488 -6 519 -6 q 390 35 439 -6 q 319 132 340 76 q 181 -6 239 -6 q 60 56 118 -6 q 3 183 3 117 q 85 396 3 239 q 204 581 167 553 q 231 588 214 588 q 305 567 265 588 q 344 521 344 546 q 215 329 281 447 q 150 165 150 211 q 164 146 150 146 q 363 331 235 146 q 451 487 403 410 q 519 581 499 564 q 547 588 531 588 q 621 567 582 588 q 660 521 660 546 q 525 326 593 444 q 457 164 457 208 q 471 146 457 146 q 590 245 510 146 q 690 385 669 344 z "},"v":{"ha":503,"x_min":3,"x_max":579,"o":"m 300 525 q 203 340 251 456 q 156 172 156 224 q 169 146 156 146 q 283 247 203 146 q 429 463 363 347 q 496 621 496 579 q 483 638 496 638 q 472 644 472 638 q 499 657 472 657 q 553 626 528 657 q 579 564 579 594 q 505 347 579 485 q 342 103 431 208 q 211 -1 253 -1 q 81 58 149 -1 q 4 183 14 118 q 3 190 4 186 q 3 196 3 194 q 62 408 3 261 q 151 582 121 556 q 178 589 158 589 q 254 569 213 589 q 300 525 296 549 z "},"w":{"ha":806,"x_min":-11,"x_max":858,"o":"m 778 656 q 833 625 807 656 q 858 563 858 594 q 785 345 858 483 q 622 102 711 207 q 490 -3 532 -3 q 385 38 440 -3 q 300 132 329 78 q 197 -3 233 -3 q 67 57 135 -3 q -10 182 0 117 q -10 188 -10 183 q -11 194 -11 192 q 48 407 -11 260 q 138 581 107 554 q 164 588 144 588 q 240 567 199 588 q 286 524 282 547 q 190 338 238 454 q 142 171 142 222 q 156 144 142 144 q 300 286 196 144 q 367 467 325 372 q 432 581 410 563 q 458 588 439 588 q 535 567 493 588 q 581 524 576 547 q 484 338 532 454 q 436 171 436 222 q 450 144 436 144 q 563 246 483 144 q 710 463 643 347 q 776 621 776 579 q 764 636 776 636 q 751 643 751 636 q 778 656 751 656 z "},"x":{"ha":601,"x_min":22,"x_max":719,"o":"m 539 608 q 604 624 569 624 q 685 601 650 624 q 719 557 719 578 q 717 549 719 551 q 713 549 715 549 q 707 550 710 550 q 567 482 661 550 q 363 308 472 414 q 465 150 436 150 q 578 235 504 150 q 671 357 651 321 q 675 360 674 360 q 689 341 682 360 q 696 303 696 322 q 693 285 696 296 q 646 199 685 261 q 542 70 607 138 q 426 3 476 3 q 246 189 346 3 q 79 -51 79 3 q 71 -61 79 -61 q 40 -36 57 -61 q 22 25 22 -11 q 23 32 22 26 q 24 40 24 38 q 194 296 32 111 q 153 401 176 339 q 97 299 126 347 q 83 292 93 292 q 56 301 71 292 q 40 318 40 310 q 42 322 40 321 q 128 489 96 406 q 121 535 121 521 q 160 592 121 567 q 236 618 199 618 q 269 607 258 618 q 315 424 269 543 q 539 608 465 574 z "},"y":{"ha":606,"x_min":-125,"x_max":710,"o":"m 597 604 q 674 580 639 604 q 710 529 710 556 q 631 422 674 501 q 552 249 589 343 q 464 49 515 154 q 359 -142 413 -57 q 229 -284 306 -228 q 67 -340 153 -340 q -74 -294 -22 -340 q -125 -187 -125 -247 q -108 -128 -125 -147 q -74 -108 -90 -108 q -65 -111 -65 -108 q -69 -131 -69 -119 q -49 -186 -69 -160 q 13 -212 -28 -212 q 103 -187 58 -212 q 181 -122 147 -161 q 253 -22 215 -83 q 316 94 290 40 q 374 221 342 147 q 350 188 353 193 q 239 39 290 94 q 183 -1 201 -1 q 59 61 118 -1 q 0 192 0 124 q 95 407 0 246 q 229 599 190 568 q 257 606 240 606 q 333 584 293 606 q 372 538 372 563 q 228 335 303 457 q 153 169 153 213 q 165 153 153 153 q 288 247 199 153 q 475 464 376 340 l 542 576 q 597 604 560 604 z "},"z":{"ha":556,"x_min":0,"x_max":640,"o":"m 565 629 l 567 629 q 615 583 589 629 q 640 506 640 538 l 640 499 q 561 419 640 469 q 354 298 482 368 q 167 185 226 228 q 335 203 243 203 q 451 188 424 203 q 508 122 481 172 q 536 28 536 71 q 532 0 536 13 q 515 -15 526 -15 q 503 -3 503 -15 q 504 3 503 0 q 506 10 506 6 q 350 47 506 47 q 190 37 269 47 q 88 13 111 26 q 79 11 85 11 q 35 41 60 11 q 8 101 10 71 q 0 133 0 114 q 75 229 0 171 q 283 369 150 288 q 461 485 415 451 q 257 447 343 447 q 208 454 229 447 q 201 458 206 456 q 194 462 197 460 q 188 467 190 464 q 83 272 178 447 q 68 265 79 265 q 38 274 53 265 q 22 292 22 282 q 24 296 22 294 q 139 529 106 415 q 131 578 131 553 q 136 614 131 599 q 154 628 142 628 q 186 589 168 628 q 222 586 206 586 q 321 593 261 586 q 464 613 381 600 q 565 629 547 626 z "},"{":{"ha":353,"x_min":40,"x_max":594,"o":"m 488 981 q 558 964 524 981 q 594 925 593 947 q 579 908 594 908 q 567 917 578 908 q 542 925 556 925 q 493 878 517 925 q 433 737 469 832 q 367 583 397 642 q 313 518 349 553 q 242 463 276 483 q 264 386 261 438 q 249 286 264 331 q 208 165 238 247 q 164 29 179 83 q 149 -58 149 -25 l 149 -62 q 183 -104 151 -104 q 201 -100 192 -104 q 213 -96 211 -96 l 215 -96 q 217 -99 217 -97 q 218 -103 218 -101 q 205 -131 218 -117 q 169 -144 192 -144 q 79 -110 117 -144 q 40 -24 42 -76 l 40 -14 q 102 238 40 67 q 164 438 164 410 l 164 440 l 163 450 q 124 493 126 457 q 128 511 124 511 q 149 507 136 507 q 253 615 194 507 q 308 740 278 663 q 356 862 338 817 q 409 944 375 907 q 488 981 443 981 z "},"|":{"ha":688,"x_min":289,"x_max":397,"o":"m 397 -283 l 289 -283 l 289 1069 l 397 1069 l 397 -283 z "},"}":{"ha":343,"x_min":-24,"x_max":531,"o":"m 83 -144 q 13 -128 47 -144 q -24 -89 -22 -111 q -8 -72 -24 -72 q 4 -81 -6 -72 q 29 -89 14 -89 q 78 -42 54 -89 q 138 99 101 4 q 204 253 174 194 q 258 318 222 283 q 329 374 294 353 q 307 450 310 399 q 322 550 307 506 q 363 671 333 589 q 407 807 392 753 q 422 894 422 861 l 422 899 q 388 940 419 940 q 369 936 379 940 q 358 932 360 932 l 356 932 q 354 935 354 933 q 353 937 354 936 q 353 939 353 938 q 366 967 353 953 q 401 981 379 981 q 492 947 454 981 q 531 860 529 913 l 531 850 q 469 598 531 769 q 407 399 407 426 l 407 396 l 408 386 q 447 343 444 379 q 443 325 447 325 q 422 329 435 329 q 318 221 376 329 q 263 97 293 174 q 215 -26 233 19 q 162 -108 196 -71 q 83 -144 128 -144 z "},"~":{"ha":482,"x_min":72,"x_max":413,"o":"m 165 810 q 258 774 192 806 q 361 743 324 743 q 407 751 383 743 l 408 753 q 413 747 413 753 q 382 704 413 731 q 310 678 351 678 q 219 708 285 678 q 115 738 154 738 q 79 732 96 738 q 74 736 74 732 q 73 740 74 738 q 72 744 72 743 q 99 788 72 765 q 154 811 126 811 q 165 810 161 811 z "},"":{"ha":972,"x_min":69,"x_max":892,"o":"m 493 385 q 496 388 493 386 q 564 464 535 413 q 593 542 593 515 q 588 554 593 549 q 574 557 579 557 q 458 456 532 557 q 385 292 385 356 q 451 229 385 229 q 607 300 526 229 q 619 274 619 290 q 561 182 619 232 q 447 132 503 132 q 324 178 364 132 q 283 303 283 225 q 362 510 283 408 q 515 611 440 611 q 619 573 576 611 q 661 489 661 535 q 607 412 661 443 q 510 381 553 381 q 493 385 497 381 m 574 803 q 735 774 668 803 q 833 696 801 744 q 878 599 865 647 q 892 499 892 551 q 878 385 892 449 q 828 244 864 321 q 738 105 792 167 q 594 1 685 43 q 393 -42 504 -42 q 238 -9 304 -42 q 136 74 171 24 q 85 171 101 124 q 69 261 69 218 q 128 520 69 399 q 304 722 186 642 q 574 803 422 803 m 393 38 q 590 117 499 38 q 728 310 681 197 q 776 529 776 422 q 769 580 776 551 q 745 645 763 608 q 687 706 728 682 q 589 731 646 731 q 314 588 443 731 q 185 261 185 444 q 239 99 185 161 q 393 38 293 38 z "},"":{"ha":972,"x_min":74,"x_max":897,"o":"m 485 176 q 421 325 443 226 q 416 326 419 325 q 411 328 413 326 l 410 329 q 346 181 346 217 q 351 175 346 178 q 357 167 357 172 q 343 157 357 157 q 298 175 322 157 q 274 215 274 193 q 347 366 274 244 q 468 551 419 488 q 379 511 417 535 q 342 468 342 488 q 350 461 342 465 q 358 453 358 457 q 344 440 358 440 q 313 463 328 440 q 297 503 297 485 q 372 594 297 554 q 535 633 447 633 q 631 574 590 633 q 672 475 672 514 q 614 369 672 421 q 483 315 556 318 q 538 232 494 275 q 614 189 582 189 q 635 199 626 189 q 611 160 635 176 q 556 144 588 144 q 485 176 511 144 m 553 568 q 517 564 536 568 q 539 532 539 544 l 539 528 q 519 499 536 524 q 478 438 501 474 q 433 369 454 401 l 435 369 q 558 415 496 369 q 619 513 619 460 q 615 539 619 526 q 553 568 604 568 m 579 803 q 740 774 674 803 q 839 696 807 744 q 884 599 871 647 q 897 499 897 551 q 883 385 897 449 q 833 244 869 321 q 744 105 797 167 q 600 1 690 43 q 399 -42 510 -42 q 242 -9 310 -42 q 140 74 175 24 q 90 171 106 124 q 74 261 74 218 q 132 520 74 399 q 308 722 190 642 q 579 803 426 803 m 399 38 q 595 117 504 38 q 733 310 686 197 q 781 529 781 422 q 777 567 781 546 q 762 618 774 588 q 731 672 750 649 q 676 713 713 696 q 593 731 640 731 q 318 588 447 731 q 189 261 189 444 q 244 99 189 161 q 399 38 299 38 z "},"":{"ha":371,"x_min":71,"x_max":306,"o":"m 121 679 l 119 679 q 86 690 101 679 q 71 708 71 700 q 79 714 71 714 q 168 762 106 715 q 243 836 231 808 q 254 843 247 843 q 287 817 268 843 q 306 774 306 790 q 304 765 306 767 q 223 715 294 750 q 121 679 151 679 z "},"":{"ha":663,"x_min":-39,"x_max":964,"o":"m 715 863 q 803 824 757 863 q 850 757 850 786 q 847 746 850 750 q 813 692 840 738 q 738 563 785 646 q 651 401 692 479 q 674 401 661 401 q 690 400 688 400 q 712 388 701 400 q 722 363 722 375 q 713 343 722 351 q 619 336 706 343 q 514 31 514 125 q 528 7 514 18 q 543 -6 543 -4 q 501 -24 543 -24 q 406 7 451 -24 q 360 97 360 38 q 438 322 360 150 q 355 315 410 319 q 275 308 300 310 q 100 51 167 163 q 69 -1 72 4 q 64 -3 69 -3 q 4 29 44 -3 q -36 88 -36 61 q -33 100 -36 92 q 122 294 -4 143 q -25 279 21 286 l -29 279 q -39 292 -39 279 q -8 356 -39 317 q 54 396 24 394 q 210 400 106 397 q 715 863 608 863 m 343 400 q 409 401 365 400 q 474 401 453 401 q 633 707 557 571 q 646 736 646 731 q 643 739 646 739 q 539 638 629 739 q 343 400 449 536 m 914 951 q 812 987 883 951 q 731 1038 740 1022 q 729 1046 729 1039 q 748 1089 729 1063 q 781 1115 767 1115 q 792 1108 789 1115 q 867 1034 804 1081 q 956 986 929 988 q 964 981 964 986 q 949 962 964 972 q 915 951 933 951 l 914 951 z "},"":{"ha":665,"x_min":-39,"x_max":932,"o":"m 715 863 q 803 824 757 863 q 850 757 850 786 q 847 746 850 750 q 813 692 840 738 q 738 563 785 646 q 651 401 692 479 q 674 401 661 401 q 690 400 688 400 q 712 388 701 400 q 722 363 722 375 q 713 343 722 351 q 619 336 706 343 q 514 31 514 125 q 528 7 514 18 q 543 -6 543 -4 q 501 -24 543 -24 q 406 7 451 -24 q 360 97 360 38 q 438 322 360 150 q 355 315 410 319 q 275 308 300 310 q 100 51 167 163 q 69 -1 72 4 q 64 -3 69 -3 q 4 29 44 -3 q -36 88 -36 61 q -33 100 -36 92 q 122 294 -4 143 q -25 279 21 286 l -29 279 q -39 292 -39 279 q -8 356 -39 317 q 54 396 24 394 q 210 400 106 397 q 715 863 608 863 m 343 400 q 409 401 365 400 q 474 401 453 401 q 633 707 557 571 q 646 736 646 731 q 643 739 646 739 q 539 638 629 739 q 343 400 449 536 m 747 951 l 746 951 q 713 962 728 951 q 697 981 697 972 q 706 986 697 986 q 794 1034 732 988 q 869 1108 857 1081 q 881 1115 872 1115 q 913 1089 894 1115 q 932 1046 932 1063 q 931 1038 932 1039 q 849 987 921 1022 q 747 951 778 951 z "},"":{"ha":669,"x_min":-39,"x_max":904,"o":"m 715 863 q 803 824 757 863 q 850 757 850 786 q 847 746 850 750 q 813 692 840 738 q 738 563 785 646 q 651 401 692 479 q 674 401 661 401 q 690 400 688 400 q 712 388 701 400 q 722 363 722 375 q 713 343 722 351 q 619 336 706 343 q 514 31 514 125 q 528 7 514 18 q 543 -6 543 -4 q 501 -24 543 -24 q 406 7 451 -24 q 360 97 360 38 q 438 322 360 150 q 355 315 410 319 q 275 308 300 310 q 100 51 167 163 q 69 -1 72 4 q 64 -3 69 -3 q 4 29 44 -3 q -36 88 -36 61 q -33 100 -36 92 q 122 294 -4 143 q -25 279 21 286 l -29 279 q -39 292 -39 279 q -8 356 -39 317 q 54 396 24 394 q 210 400 106 397 q 715 863 608 863 m 343 400 q 409 401 365 400 q 474 401 453 401 q 633 707 557 571 q 646 736 646 731 q 643 739 646 739 q 539 638 629 739 q 343 400 449 536 m 904 946 q 886 936 900 936 q 840 954 867 936 q 779 1024 796 985 q 694 964 747 979 q 661 958 676 958 q 639 972 640 958 q 763 1085 688 985 q 796 1093 771 1093 q 817 1089 814 1093 l 831 1053 q 864 988 846 1017 q 904 946 882 960 z "},"":{"ha":665,"x_min":-39,"x_max":944,"o":"m 715 863 q 803 824 757 863 q 850 757 850 786 q 847 746 850 750 q 813 692 840 738 q 738 563 785 646 q 651 401 692 479 q 674 401 661 401 q 690 400 688 400 q 712 388 701 400 q 722 363 722 375 q 713 343 722 351 q 619 336 706 343 q 514 31 514 125 q 528 7 514 18 q 543 -6 543 -4 q 501 -24 543 -24 q 406 7 451 -24 q 360 97 360 38 q 438 322 360 150 q 355 315 410 319 q 275 308 300 310 q 100 51 167 163 q 69 -1 72 4 q 64 -3 69 -3 q 4 29 44 -3 q -36 88 -36 61 q -33 100 -36 92 q 122 294 -4 143 q -25 279 21 286 l -29 279 q -39 292 -39 279 q -8 356 -39 317 q 54 396 24 394 q 210 400 106 397 q 715 863 608 863 m 343 400 q 409 401 365 400 q 474 401 453 401 q 633 707 557 571 q 646 736 646 731 q 643 739 646 739 q 539 638 629 739 q 343 400 449 536 m 749 1047 q 822 1019 769 1044 q 904 994 875 994 q 940 1001 925 994 l 942 1001 q 944 997 944 1001 q 920 964 944 985 q 864 943 896 943 q 792 967 844 943 q 710 990 740 990 q 681 986 694 990 q 676 989 676 986 l 675 992 l 675 994 q 697 1030 675 1011 q 740 1049 718 1049 q 744 1048 742 1049 q 749 1047 747 1047 z "},"":{"ha":665,"x_min":-39,"x_max":874,"o":"m 715 863 q 803 824 757 863 q 850 757 850 786 q 847 746 850 750 q 813 692 840 738 q 738 563 785 646 q 651 401 692 479 q 674 401 661 401 q 690 400 688 400 q 712 388 701 400 q 722 363 722 375 q 713 343 722 351 q 619 336 706 343 q 514 31 514 125 q 528 7 514 18 q 543 -6 543 -4 q 501 -24 543 -24 q 406 7 451 -24 q 360 97 360 38 q 438 322 360 150 q 355 315 410 319 q 275 308 300 310 q 100 51 167 163 q 69 -1 72 4 q 64 -3 69 -3 q 4 29 44 -3 q -36 88 -36 61 q -33 100 -36 92 q 122 294 -4 143 q -25 279 21 286 l -29 279 q -39 292 -39 279 q -8 356 -39 317 q 54 396 24 394 q 210 400 106 397 q 715 863 608 863 m 343 400 q 409 401 365 400 q 474 401 453 401 q 633 707 557 571 q 646 736 646 731 q 643 739 646 739 q 539 638 629 739 q 343 400 449 536 m 637 1043 q 643 1049 637 1043 q 668 1056 650 1056 q 699 1043 686 1056 q 713 1011 713 1031 q 699 979 713 992 q 668 967 686 967 q 637 979 650 967 q 624 1011 624 992 q 637 1043 624 1031 m 798 1043 q 805 1049 798 1043 q 829 1056 811 1056 q 860 1043 847 1056 q 874 1011 874 1031 q 860 979 874 992 q 829 967 847 967 q 798 979 811 967 q 785 1011 785 992 q 798 1043 785 1031 z "},"":{"ha":665,"x_min":-39,"x_max":967,"o":"m 715 863 q 803 824 757 863 q 850 757 850 786 q 847 746 850 750 q 813 692 840 738 q 738 563 785 646 q 651 401 692 479 q 674 401 661 401 q 690 400 688 400 q 712 388 701 400 q 722 363 722 375 q 713 343 722 351 q 619 336 706 343 q 514 31 514 125 q 528 7 514 18 q 543 -6 543 -4 q 501 -24 543 -24 q 406 7 451 -24 q 360 97 360 38 q 438 322 360 150 q 355 315 410 319 q 275 308 300 310 q 100 51 167 163 q 69 -1 72 4 q 64 -3 69 -3 q 4 29 44 -3 q -36 88 -36 61 q -33 100 -36 92 q 122 294 -4 143 q -25 279 21 286 l -29 279 q -39 292 -39 279 q -8 356 -39 317 q 54 396 24 394 q 210 400 106 397 q 715 863 608 863 m 343 400 q 409 401 365 400 q 474 401 453 401 q 633 707 557 571 q 646 736 646 731 q 643 739 646 739 q 539 638 629 739 q 343 400 449 536 m 834 1061 q 845 1072 834 1061 q 889 1083 857 1083 q 944 1061 921 1083 q 967 1007 967 1039 q 944 952 967 975 q 889 929 921 929 q 834 952 857 929 q 811 1007 811 975 q 834 1061 811 1039 m 853 971 q 860 963 853 971 q 889 956 868 956 q 924 971 910 956 q 939 1007 939 986 q 924 1042 939 1028 q 889 1057 910 1057 q 853 1042 868 1057 q 838 1007 838 1028 q 853 971 838 986 z "},"":{"ha":1043,"x_min":6,"x_max":1172,"o":"m 1126 375 q 1133 349 1133 375 q 1126 304 1133 329 q 1098 248 1122 289 q 1030 149 1074 207 q 936 38 986 90 q 822 -53 886 -15 q 700 -90 758 -90 q 524 -7 603 -90 q 446 163 446 76 q 457 214 446 189 q 568 324 485 272 q 368 313 485 322 q 270 169 325 251 q 181 38 215 88 q 129 -32 147 -12 q 122 -35 126 -35 q 51 1 97 -35 q 6 69 6 38 q 13 92 6 83 q 175 296 99 203 q 25 276 88 288 q 22 290 22 285 q 47 349 22 318 q 104 393 71 381 q 267 406 121 400 q 769 863 656 863 q 861 821 808 863 q 961 840 911 840 q 1106 792 1040 840 q 1172 658 1172 744 q 1122 569 1172 624 q 1035 515 1072 515 q 1018 519 1026 515 q 1015 525 1015 522 q 1043 601 1015 533 q 1071 700 1071 669 q 1051 733 1071 728 q 1031 736 1038 736 q 847 633 956 736 q 738 475 738 531 q 742 460 738 467 q 799 443 754 443 q 899 456 824 443 q 917 457 914 457 q 925 431 925 457 q 903 386 925 390 q 706 280 793 364 q 619 132 619 196 q 692 76 619 76 q 838 117 760 76 q 975 213 915 157 q 1072 310 1035 269 q 1121 371 1108 351 q 1126 375 1122 375 m 704 718 q 435 407 590 621 q 649 403 588 404 q 601 547 601 461 q 610 596 601 575 q 704 718 636 653 z "},"":{"ha":565,"x_min":-15,"x_max":715,"o":"m 650 393 q 658 397 650 397 q 674 381 667 397 q 682 347 682 365 q 681 337 682 343 q 679 329 679 331 q 624 242 661 296 q 528 118 588 189 q 392 -2 468 47 q 244 -51 315 -51 l 238 -51 l 210 -101 q 254 -93 235 -93 q 308 -119 289 -93 q 318 -149 318 -131 q 276 -232 318 -190 q 193 -274 233 -274 l 185 -272 q 124 -200 124 -264 l 124 -194 q 167 -211 136 -211 q 245 -191 204 -211 q 292 -147 286 -171 l 292 -143 q 272 -129 292 -129 q 181 -158 250 -129 q 172 -161 175 -161 q 153 -150 161 -161 q 146 -126 146 -139 q 149 -112 146 -121 q 166 -82 153 -107 q 188 -42 179 -57 q 47 65 108 -17 q -15 240 -15 146 q 65 455 -10 317 q 254 717 140 593 q 463 863 368 842 q 508 869 486 869 q 652 825 589 869 q 715 707 715 781 q 632 564 715 639 q 508 489 549 489 q 501 493 501 489 l 501 496 q 549 600 501 508 q 597 728 597 692 q 583 756 597 751 l 572 756 q 422 640 525 756 q 234 376 319 524 q 149 151 149 229 q 160 109 149 124 q 206 94 171 94 q 427 184 288 94 q 650 393 567 274 z "},"":{"ha":594,"x_min":-3,"x_max":731,"o":"m 678 393 q 683 397 681 397 q 692 371 692 397 q 683 326 692 350 q 655 269 679 311 q 587 169 631 228 q 492 56 543 110 q 376 -35 442 3 q 253 -72 311 -72 q 76 13 156 -72 q -3 183 -3 97 q 8 235 -3 210 q 226 401 50 325 q 174 475 193 426 q 154 571 154 524 q 163 621 154 600 q 297 779 194 692 q 517 867 400 867 q 663 818 596 867 q 731 683 731 769 q 680 594 731 649 q 592 539 629 539 q 575 543 583 539 q 572 549 572 546 q 600 626 572 558 q 628 725 628 694 q 608 760 628 754 q 588 763 594 763 q 402 658 513 763 q 292 499 292 554 q 296 483 292 489 q 353 467 308 467 q 454 479 379 467 q 472 481 469 481 q 481 454 481 481 q 458 408 481 413 q 260 301 347 386 q 172 151 172 217 q 244 96 172 96 q 365 124 301 96 q 478 191 428 153 q 574 275 528 229 q 644 350 619 321 q 678 393 668 379 m 649 951 q 547 987 618 951 q 465 1038 475 1022 q 464 1046 464 1039 q 483 1089 464 1063 q 515 1115 501 1115 q 526 1108 522 1115 q 601 1034 539 1081 q 690 986 664 988 q 699 981 699 986 q 683 962 699 972 q 650 951 668 951 l 649 951 z "},"":{"ha":594,"x_min":-3,"x_max":731,"o":"m 678 393 q 683 397 681 397 q 692 371 692 397 q 683 326 692 350 q 655 269 679 311 q 587 169 631 228 q 492 56 543 110 q 376 -35 442 3 q 253 -72 311 -72 q 76 13 156 -72 q -3 183 -3 97 q 8 235 -3 210 q 226 401 50 325 q 174 475 193 426 q 154 571 154 524 q 163 621 154 600 q 297 779 194 692 q 517 867 400 867 q 663 818 596 867 q 731 683 731 769 q 680 594 731 649 q 592 539 629 539 q 575 543 583 539 q 572 549 572 546 q 600 626 572 558 q 628 725 628 694 q 608 760 628 754 q 588 763 594 763 q 402 658 513 763 q 292 499 292 554 q 296 483 292 489 q 353 467 308 467 q 454 479 379 467 q 472 481 469 481 q 481 454 481 481 q 458 408 481 413 q 260 301 347 386 q 172 151 172 217 q 244 96 172 96 q 365 124 301 96 q 478 191 428 153 q 574 275 528 229 q 644 350 619 321 q 678 393 668 379 m 513 951 l 511 951 q 478 962 493 951 q 463 981 463 972 q 471 986 463 986 q 560 1034 497 988 q 635 1108 622 1081 q 646 1115 639 1115 q 678 1089 660 1115 q 697 1046 697 1063 q 696 1038 697 1039 q 615 987 686 1022 q 513 951 543 951 z "},"":{"ha":594,"x_min":-3,"x_max":731,"o":"m 678 393 q 683 397 681 397 q 692 371 692 397 q 683 326 692 350 q 655 269 679 311 q 587 169 631 228 q 492 56 543 110 q 376 -35 442 3 q 253 -72 311 -72 q 76 13 156 -72 q -3 183 -3 97 q 8 235 -3 210 q 226 401 50 325 q 174 475 193 426 q 154 571 154 524 q 163 621 154 600 q 297 779 194 692 q 517 867 400 867 q 663 818 596 867 q 731 683 731 769 q 680 594 731 649 q 592 539 629 539 q 575 543 583 539 q 572 549 572 546 q 600 626 572 558 q 628 725 628 694 q 608 760 628 754 q 588 763 594 763 q 402 658 513 763 q 292 499 292 554 q 296 483 292 489 q 353 467 308 467 q 454 479 379 467 q 472 481 469 481 q 481 454 481 481 q 458 408 481 413 q 260 301 347 386 q 172 151 172 217 q 244 96 172 96 q 365 124 301 96 q 478 191 428 153 q 574 275 528 229 q 644 350 619 321 q 678 393 668 379 m 688 946 q 669 936 683 936 q 624 954 650 936 q 563 1024 579 985 q 478 964 531 979 q 444 958 460 958 q 422 972 424 958 q 546 1085 471 985 q 579 1093 554 1093 q 600 1089 597 1093 l 614 1053 q 647 988 629 1017 q 688 946 665 960 z "},"":{"ha":594,"x_min":-3,"x_max":731,"o":"m 678 393 q 683 397 681 397 q 692 371 692 397 q 683 326 692 350 q 655 269 679 311 q 587 169 631 228 q 492 56 543 110 q 376 -35 442 3 q 253 -72 311 -72 q 76 13 156 -72 q -3 183 -3 97 q 8 235 -3 210 q 226 401 50 325 q 174 475 193 426 q 154 571 154 524 q 163 621 154 600 q 297 779 194 692 q 517 867 400 867 q 663 818 596 867 q 731 683 731 769 q 680 594 731 649 q 592 539 629 539 q 575 543 583 539 q 572 549 572 546 q 600 626 572 558 q 628 725 628 694 q 608 760 628 754 q 588 763 594 763 q 402 658 513 763 q 292 499 292 554 q 296 483 292 489 q 353 467 308 467 q 454 479 379 467 q 472 481 469 481 q 481 454 481 481 q 458 408 481 413 q 260 301 347 386 q 172 151 172 217 q 244 96 172 96 q 365 124 301 96 q 478 191 428 153 q 574 275 528 229 q 644 350 619 321 q 678 393 668 379 m 438 1043 q 444 1049 438 1043 q 469 1056 450 1056 q 501 1043 489 1056 q 514 1011 514 1031 q 501 979 514 992 q 469 967 489 967 q 438 979 450 967 q 425 1011 425 992 q 438 1043 425 1031 m 599 1043 q 605 1049 599 1043 q 631 1056 611 1056 q 663 1043 650 1056 q 675 1011 675 1031 q 663 979 675 992 q 631 967 650 967 q 599 979 611 967 q 586 1011 586 992 q 599 1043 586 1031 z "},"":{"ha":528,"x_min":-32,"x_max":751,"o":"m 626 675 q 514 390 626 610 q 285 8 411 193 q 378 -1 326 7 q 441 -35 421 -8 q 461 -93 461 -61 q 440 -137 461 -133 q 290 -100 406 -117 q 78 -83 174 -83 q -21 -94 6 -83 q -32 -69 -32 -87 q 21 -11 -32 -29 q 186 10 85 7 q 151 65 151 42 q 154 78 151 74 q 365 433 300 313 q 482 743 482 654 q 447 788 482 788 q 325 722 403 788 q 187 570 247 656 q 126 436 126 485 q 136 424 126 429 q 146 414 146 419 q 119 396 146 396 q 43 435 85 396 q 1 518 1 474 q 39 622 1 561 q 133 738 76 683 q 263 832 190 793 q 399 871 336 871 q 559 808 492 871 q 626 675 626 746 m 701 951 q 599 987 671 951 q 518 1038 528 1022 q 517 1046 517 1039 q 535 1089 517 1063 q 568 1115 554 1115 q 579 1108 575 1115 q 654 1034 592 1081 q 743 986 717 988 q 751 981 751 986 q 736 962 751 972 q 703 951 721 951 l 701 951 z "},"":{"ha":528,"x_min":-32,"x_max":726,"o":"m 626 675 q 514 390 626 610 q 285 8 411 193 q 378 -1 326 7 q 441 -35 421 -8 q 461 -93 461 -61 q 440 -137 461 -133 q 290 -100 406 -117 q 78 -83 174 -83 q -21 -94 6 -83 q -32 -69 -32 -87 q 21 -11 -32 -29 q 186 10 85 7 q 151 65 151 42 q 154 78 151 74 q 365 433 300 313 q 482 743 482 654 q 447 788 482 788 q 325 722 403 788 q 187 570 247 656 q 126 436 126 485 q 136 424 126 429 q 146 414 146 419 q 119 396 146 396 q 43 435 85 396 q 1 518 1 474 q 39 622 1 561 q 133 738 76 683 q 263 832 190 793 q 399 871 336 871 q 559 808 492 871 q 626 675 626 746 m 542 951 l 540 951 q 507 962 522 951 q 492 981 492 972 q 500 986 492 986 q 589 1034 526 988 q 664 1108 651 1081 q 675 1115 667 1115 q 708 1089 689 1115 q 726 1046 726 1063 q 725 1038 726 1039 q 644 987 715 1022 q 542 951 572 951 z "},"":{"ha":528,"x_min":-32,"x_max":738,"o":"m 626 675 q 514 390 626 610 q 285 8 411 193 q 378 -1 326 7 q 441 -35 421 -8 q 461 -93 461 -61 q 440 -137 461 -133 q 290 -100 406 -117 q 78 -83 174 -83 q -21 -94 6 -83 q -32 -69 -32 -87 q 21 -11 -32 -29 q 186 10 85 7 q 151 65 151 42 q 154 78 151 74 q 365 433 300 313 q 482 743 482 654 q 447 788 482 788 q 325 722 403 788 q 187 570 247 656 q 126 436 126 485 q 136 424 126 429 q 146 414 146 419 q 119 396 146 396 q 43 435 85 396 q 1 518 1 474 q 39 622 1 561 q 133 738 76 683 q 263 832 190 793 q 399 871 336 871 q 559 808 492 871 q 626 675 626 746 m 738 946 q 719 936 733 936 q 674 954 700 936 q 613 1024 629 985 q 528 964 581 979 q 494 958 510 958 q 472 972 474 958 q 596 1085 521 985 q 629 1093 604 1093 q 650 1089 647 1093 l 664 1053 q 697 988 679 1017 q 738 946 715 960 z "},"":{"ha":526,"x_min":-32,"x_max":736,"o":"m 626 675 q 514 390 626 610 q 285 8 411 193 q 378 -1 326 7 q 441 -35 421 -8 q 461 -93 461 -61 q 440 -137 461 -133 q 290 -100 406 -117 q 78 -83 174 -83 q -21 -94 6 -83 q -32 -69 -32 -87 q 21 -11 -32 -29 q 186 10 85 7 q 151 65 151 42 q 154 78 151 74 q 365 433 300 313 q 482 743 482 654 q 447 788 482 788 q 325 722 403 788 q 187 570 247 656 q 126 436 126 485 q 136 424 126 429 q 146 414 146 419 q 119 396 146 396 q 43 435 85 396 q 1 518 1 474 q 39 622 1 561 q 133 738 76 683 q 263 832 190 793 q 399 871 336 871 q 559 808 492 871 q 626 675 626 746 m 499 1043 q 505 1049 499 1043 q 531 1056 511 1056 q 563 1043 550 1056 q 575 1011 575 1031 q 563 979 575 992 q 531 967 550 967 q 499 979 511 967 q 486 1011 486 992 q 499 1043 486 1031 m 660 1043 q 666 1049 660 1043 q 692 1056 672 1056 q 724 1043 711 1056 q 736 1011 736 1031 q 724 979 736 992 q 692 967 711 967 q 660 979 672 967 q 647 1011 647 992 q 660 1043 647 1031 z "},"":{"ha":681,"x_min":-237,"x_max":851,"o":"m 375 128 q 440 298 375 176 q 571 524 506 419 q 636 638 636 629 q 635 639 636 639 q 518 551 618 639 q 285 319 418 464 q 79 51 153 175 q 49 -3 56 8 q 43 -4 47 -4 q -17 28 24 -4 q -57 86 -57 61 q -54 99 -57 94 q 1 185 -53 101 q 108 355 56 269 q 208 540 161 440 q 254 688 254 639 q 245 719 254 706 q 221 733 236 733 q 18 603 151 733 q -115 400 -115 472 q -107 372 -115 383 q -122 358 -114 358 q -197 397 -156 358 q -237 479 -237 436 q -197 575 -237 517 q -98 686 -157 633 q 36 777 -39 739 q 171 815 111 815 q 315 759 260 815 q 371 633 371 703 q 314 468 371 593 q 717 788 603 788 q 808 749 765 788 q 851 681 851 710 q 849 671 851 676 q 529 58 529 206 q 585 -1 529 -1 q 573 -21 585 -12 q 542 -29 561 -29 q 430 24 485 -29 q 375 128 375 78 m 585 1047 q 658 1019 606 1044 q 740 994 711 994 q 776 1001 761 994 l 778 1001 q 781 997 781 1001 q 756 964 781 985 q 700 943 732 943 q 628 967 681 943 q 546 990 576 990 q 517 986 531 990 q 513 989 513 986 l 511 992 l 511 994 q 533 1030 511 1011 q 576 1049 554 1049 q 581 1048 578 1049 q 585 1047 583 1047 z "},"":{"ha":721,"x_min":0,"x_max":756,"o":"m 444 857 q 673 754 590 857 q 756 529 756 651 q 734 410 756 481 q 668 258 713 339 q 565 109 624 178 q 419 -6 506 40 q 239 -51 333 -51 q 67 28 133 -51 q 0 197 0 108 l 0 200 q 106 447 3 326 q 50 506 75 465 q 25 593 25 547 q 146 766 25 675 q 444 857 267 857 m 213 64 q 356 124 281 64 q 488 268 431 183 q 582 448 544 353 q 619 613 619 543 q 592 700 619 672 q 496 733 558 733 q 343 693 426 733 q 201 594 260 653 q 140 483 142 535 q 210 529 174 514 q 267 540 236 540 q 340 519 308 540 q 372 472 372 499 q 371 460 372 464 q 206 333 283 426 q 129 150 129 239 q 149 89 129 114 q 213 64 168 64 m 603 951 q 501 987 572 951 q 419 1038 429 1022 q 418 1046 418 1039 q 437 1089 418 1063 q 469 1115 456 1115 q 481 1108 478 1115 q 556 1034 493 1081 q 644 986 618 988 q 653 981 653 986 q 638 962 653 972 q 604 951 622 951 l 603 951 z "},"":{"ha":721,"x_min":0,"x_max":756,"o":"m 444 857 q 673 754 590 857 q 756 529 756 651 q 734 410 756 481 q 668 258 713 339 q 565 109 624 178 q 419 -6 506 40 q 239 -51 333 -51 q 67 28 133 -51 q 0 197 0 108 l 0 200 q 106 447 3 326 q 50 506 75 465 q 25 593 25 547 q 146 766 25 675 q 444 857 267 857 m 213 64 q 356 124 281 64 q 488 268 431 183 q 582 448 544 353 q 619 613 619 543 q 592 700 619 672 q 496 733 558 733 q 343 693 426 733 q 201 594 260 653 q 140 483 142 535 q 210 529 174 514 q 267 540 236 540 q 340 519 308 540 q 372 472 372 499 q 371 460 372 464 q 206 333 283 426 q 129 150 129 239 q 149 89 129 114 q 213 64 168 64 m 443 951 l 442 951 q 408 962 424 951 q 393 981 393 972 q 401 986 393 986 q 490 1034 428 988 q 565 1108 553 1081 q 576 1115 569 1115 q 609 1089 590 1115 q 628 1046 628 1063 q 626 1038 628 1039 q 545 987 617 1022 q 443 951 474 951 z "},"":{"ha":721,"x_min":0,"x_max":756,"o":"m 444 857 q 673 754 590 857 q 756 529 756 651 q 734 410 756 481 q 668 258 713 339 q 565 109 624 178 q 419 -6 506 40 q 239 -51 333 -51 q 67 28 133 -51 q 0 197 0 108 l 0 200 q 106 447 3 326 q 50 506 75 465 q 25 593 25 547 q 146 766 25 675 q 444 857 267 857 m 213 64 q 356 124 281 64 q 488 268 431 183 q 582 448 544 353 q 619 613 619 543 q 592 700 619 672 q 496 733 558 733 q 343 693 426 733 q 201 594 260 653 q 140 483 142 535 q 210 529 174 514 q 267 540 236 540 q 340 519 308 540 q 372 472 372 499 q 371 460 372 464 q 206 333 283 426 q 129 150 129 239 q 149 89 129 114 q 213 64 168 64 m 714 946 q 696 936 708 936 q 650 954 676 936 q 589 1024 606 985 q 504 964 557 979 q 471 958 486 958 q 449 972 450 958 q 572 1085 497 985 q 606 1093 581 1093 q 626 1089 625 1093 l 642 1053 q 674 988 656 1017 q 714 946 692 960 z "},"":{"ha":721,"x_min":0,"x_max":756,"o":"m 444 857 q 673 754 590 857 q 756 529 756 651 q 734 410 756 481 q 668 258 713 339 q 565 109 624 178 q 419 -6 506 40 q 239 -51 333 -51 q 67 28 133 -51 q 0 197 0 108 l 0 200 q 106 447 3 326 q 50 506 75 465 q 25 593 25 547 q 146 766 25 675 q 444 857 267 857 m 213 64 q 356 124 281 64 q 488 268 431 183 q 582 448 544 353 q 619 613 619 543 q 592 700 619 672 q 496 733 558 733 q 343 693 426 733 q 201 594 260 653 q 140 483 142 535 q 210 529 174 514 q 267 540 236 540 q 340 519 308 540 q 372 472 372 499 q 371 460 372 464 q 206 333 283 426 q 129 150 129 239 q 149 89 129 114 q 213 64 168 64 m 547 1047 q 621 1019 568 1044 q 703 994 674 994 q 739 1001 724 994 l 740 1001 q 743 997 743 1001 q 719 964 743 985 q 663 943 694 943 q 591 967 643 943 q 508 990 539 990 q 479 986 494 990 q 475 989 475 986 l 475 992 l 474 994 q 495 1030 474 1011 q 539 1049 517 1049 q 543 1048 540 1049 q 547 1047 546 1047 z "},"":{"ha":721,"x_min":0,"x_max":756,"o":"m 444 857 q 673 754 590 857 q 756 529 756 651 q 734 410 756 481 q 668 258 713 339 q 565 109 624 178 q 419 -6 506 40 q 239 -51 333 -51 q 67 28 133 -51 q 0 197 0 108 l 0 200 q 106 447 3 326 q 50 506 75 465 q 25 593 25 547 q 146 766 25 675 q 444 857 267 857 m 213 64 q 356 124 281 64 q 488 268 431 183 q 582 448 544 353 q 619 613 619 543 q 592 700 619 672 q 496 733 558 733 q 343 693 426 733 q 201 594 260 653 q 140 483 142 535 q 210 529 174 514 q 267 540 236 540 q 340 519 308 540 q 372 472 372 499 q 371 460 372 464 q 206 333 283 426 q 129 150 129 239 q 149 89 129 114 q 213 64 168 64 m 442 1043 q 449 1049 442 1043 q 474 1056 456 1056 q 505 1043 492 1056 q 518 1011 518 1031 q 505 979 518 992 q 474 967 492 967 q 442 979 456 967 q 429 1011 429 992 q 442 1043 429 1031 m 603 1043 q 610 1049 603 1043 q 635 1056 617 1056 q 666 1043 653 1056 q 679 1011 679 1031 q 666 979 679 992 q 635 967 653 967 q 603 979 617 967 q 590 1011 590 992 q 603 1043 590 1031 z "},"":{"ha":608,"x_min":-10,"x_max":553,"o":"m 489 667 q 532 647 511 667 q 553 601 553 628 q 517 543 553 569 q 301 383 319 397 q 499 181 396 181 q 408 135 482 135 q 346 147 378 135 q 215 314 285 174 q 49 135 54 182 q 7 153 24 135 q -10 204 -10 171 q -1 253 -10 225 q 164 426 17 307 q 114 561 143 476 q 111 574 111 569 q 140 625 111 600 q 193 650 168 650 q 215 633 211 650 q 256 499 229 571 q 489 667 353 571 z "},"":{"ha":721,"x_min":0,"x_max":788,"o":"m 140 483 q 267 540 201 540 q 365 496 339 540 q 532 729 461 633 q 496 733 515 733 q 269 651 388 733 q 140 483 151 569 m 131 129 q 328 439 203 251 q 188 310 247 392 q 129 150 129 228 l 131 129 m 213 64 q 402 163 304 64 q 560 391 500 263 q 619 613 619 519 q 614 657 619 639 q 203 64 397 390 l 213 64 m 97 -140 q 43 -75 58 -136 l 43 -69 q 74 21 43 -46 q 0 200 0 99 q 106 447 11 336 q 49 506 74 467 q 25 593 25 546 q 53 672 25 628 q 132 758 82 717 q 265 828 182 800 q 444 857 349 857 q 599 819 533 857 q 694 936 661 903 q 701 939 697 939 q 755 915 724 939 q 788 863 786 892 q 776 838 788 851 q 685 740 749 810 q 756 529 756 647 q 735 411 756 482 q 669 260 714 340 q 566 110 625 179 q 421 -6 507 40 q 239 -51 335 -51 q 147 -33 188 -51 q 100 -139 115 -96 l 97 -140 z "},"":{"ha":708,"x_min":-92,"x_max":883,"o":"m 742 803 q 771 817 751 817 q 843 783 803 817 q 883 728 883 750 q 881 719 883 725 q 780 563 854 683 q 617 267 706 443 q 529 17 529 92 q 572 -35 529 -35 q 592 -51 592 -35 q 583 -69 592 -61 q 561 -76 575 -76 q 433 -32 494 -76 q 371 82 371 13 q 483 363 371 149 q 111 3 169 3 q 33 51 67 3 q -1 156 -1 99 q 66 328 -1 201 q 201 581 133 456 q 269 749 269 706 q 261 769 269 764 q 244 774 256 774 q 110 702 193 774 q 28 571 28 631 q 28 565 28 569 q 29 560 29 561 q 39 549 29 553 q 49 538 49 544 q 22 519 49 519 q -51 559 -11 519 q -92 642 -92 599 q -91 647 -92 644 q -90 653 -90 650 q 15 788 -82 719 q 194 856 111 856 q 347 787 281 856 q 414 650 414 718 q 408 618 414 631 q 288 397 393 578 q 182 189 182 215 q 185 182 182 185 l 188 182 q 395 362 219 182 q 668 683 571 542 q 706 746 689 719 l 707 749 q 742 803 738 799 m 708 951 q 606 987 678 951 q 525 1038 535 1022 q 524 1046 524 1039 q 542 1089 524 1063 q 575 1115 561 1115 q 586 1108 583 1115 q 661 1034 599 1081 q 750 986 724 988 q 758 981 758 986 q 743 962 758 972 q 710 951 728 951 l 708 951 z "},"":{"ha":708,"x_min":-92,"x_max":883,"o":"m 742 803 q 771 817 751 817 q 843 783 803 817 q 883 728 883 750 q 881 719 883 725 q 780 563 854 683 q 617 267 706 443 q 529 17 529 92 q 572 -35 529 -35 q 592 -51 592 -35 q 583 -69 592 -61 q 561 -76 575 -76 q 433 -32 494 -76 q 371 82 371 13 q 483 363 371 149 q 111 3 169 3 q 33 51 67 3 q -1 156 -1 99 q 66 328 -1 201 q 201 581 133 456 q 269 749 269 706 q 261 769 269 764 q 244 774 256 774 q 110 702 193 774 q 28 571 28 631 q 28 565 28 569 q 29 560 29 561 q 39 549 29 553 q 49 538 49 544 q 22 519 49 519 q -51 559 -11 519 q -92 642 -92 599 q -91 647 -92 644 q -90 653 -90 650 q 15 788 -82 719 q 194 856 111 856 q 347 787 281 856 q 414 650 414 718 q 408 618 414 631 q 288 397 393 578 q 182 189 182 215 q 185 182 182 185 l 188 182 q 395 362 219 182 q 668 683 571 542 q 706 746 689 719 l 707 749 q 742 803 738 799 m 508 951 l 507 951 q 474 962 489 951 q 458 981 458 972 q 467 986 458 986 q 556 1034 493 988 q 631 1108 618 1081 q 642 1115 633 1115 q 674 1089 656 1115 q 693 1046 693 1063 q 692 1038 693 1039 q 610 987 682 1022 q 508 951 539 951 z "},"":{"ha":708,"x_min":-92,"x_max":883,"o":"m 742 803 q 771 817 751 817 q 843 783 803 817 q 883 728 883 750 q 881 719 883 725 q 780 563 854 683 q 617 267 706 443 q 529 17 529 92 q 572 -35 529 -35 q 592 -51 592 -35 q 583 -69 592 -61 q 561 -76 575 -76 q 433 -32 494 -76 q 371 82 371 13 q 483 363 371 149 q 111 3 169 3 q 33 51 67 3 q -1 156 -1 99 q 66 328 -1 201 q 201 581 133 456 q 269 749 269 706 q 261 769 269 764 q 244 774 256 774 q 110 702 193 774 q 28 571 28 631 q 28 565 28 569 q 29 560 29 561 q 39 549 29 553 q 49 538 49 544 q 22 519 49 519 q -51 559 -11 519 q -92 642 -92 599 q -91 647 -92 644 q -90 653 -90 650 q 15 788 -82 719 q 194 856 111 856 q 347 787 281 856 q 414 650 414 718 q 408 618 414 631 q 288 397 393 578 q 182 189 182 215 q 185 182 182 185 l 188 182 q 395 362 219 182 q 668 683 571 542 q 706 746 689 719 l 707 749 q 742 803 738 799 m 764 946 q 746 936 758 936 q 700 954 726 936 q 639 1024 656 985 q 554 964 607 979 q 521 958 536 958 q 499 972 500 958 q 622 1085 547 985 q 656 1093 631 1093 q 676 1089 675 1093 l 692 1053 q 724 988 706 1017 q 764 946 742 960 z "},"":{"ha":708,"x_min":-92,"x_max":883,"o":"m 742 803 q 771 817 751 817 q 843 783 803 817 q 883 728 883 750 q 881 719 883 725 q 780 563 854 683 q 617 267 706 443 q 529 17 529 92 q 572 -35 529 -35 q 592 -51 592 -35 q 583 -69 592 -61 q 561 -76 575 -76 q 433 -32 494 -76 q 371 82 371 13 q 483 363 371 149 q 111 3 169 3 q 33 51 67 3 q -1 156 -1 99 q 66 328 -1 201 q 201 581 133 456 q 269 749 269 706 q 261 769 269 764 q 244 774 256 774 q 110 702 193 774 q 28 571 28 631 q 28 565 28 569 q 29 560 29 561 q 39 549 29 553 q 49 538 49 544 q 22 519 49 519 q -51 559 -11 519 q -92 642 -92 599 q -91 647 -92 644 q -90 653 -90 650 q 15 788 -82 719 q 194 856 111 856 q 347 787 281 856 q 414 650 414 718 q 408 618 414 631 q 288 397 393 578 q 182 189 182 215 q 185 182 182 185 l 188 182 q 395 362 219 182 q 668 683 571 542 q 706 746 689 719 l 707 749 q 742 803 738 799 m 526 1043 q 533 1049 526 1043 q 558 1056 539 1056 q 590 1043 578 1056 q 603 1011 603 1031 q 590 979 603 992 q 558 967 578 967 q 526 979 539 967 q 514 1011 514 992 q 526 1043 514 1031 m 688 1043 q 694 1049 688 1043 q 719 1056 700 1056 q 751 1043 739 1056 q 764 1011 764 1031 q 751 979 764 992 q 719 967 739 967 q 688 979 700 967 q 675 1011 675 992 q 688 1043 675 1031 z "},"":{"ha":794,"x_min":-4,"x_max":958,"o":"m 757 713 q 810 801 797 789 q 842 814 822 814 q 917 779 876 814 q 958 722 958 744 q 956 715 958 718 q 874 575 933 688 q 742 333 814 463 q 590 76 671 204 q 419 -137 508 -53 q 257 -222 329 -222 q 135 -168 183 -222 q 88 -68 88 -114 q 103 -46 88 -46 q 135 -73 122 -46 q 174 -100 149 -100 q 601 418 318 -100 q 360 156 456 251 q 228 61 265 61 q 151 108 185 61 q 117 211 117 156 q 235 482 117 268 q 354 743 354 696 q 346 765 354 758 q 328 769 339 769 q 195 698 276 769 q 114 568 114 626 q 115 563 114 567 q 115 557 115 558 q 125 546 115 550 q 135 535 135 542 q 108 517 135 517 q 35 556 75 517 q -4 639 -4 594 q -3 644 -4 640 q -3 650 -3 647 q 101 783 6 715 q 279 850 196 850 q 431 782 365 850 q 497 646 497 714 q 492 615 497 628 q 387 422 476 575 q 297 246 297 269 q 300 239 297 242 l 303 239 q 506 408 338 239 q 757 713 675 578 m 581 951 l 579 951 q 546 962 561 951 q 531 981 531 972 q 539 986 531 986 q 628 1034 565 988 q 703 1108 690 1081 q 714 1115 706 1115 q 747 1089 728 1115 q 765 1046 765 1063 q 764 1038 765 1039 q 683 987 754 1022 q 581 951 611 951 z "},"":{"ha":592,"x_min":1,"x_max":689,"o":"m 667 365 q 671 368 669 368 q 683 353 678 368 q 689 319 689 338 q 685 297 689 306 q 640 207 669 263 q 554 79 610 151 q 461 7 499 7 q 365 48 407 7 q 310 147 322 89 q 163 0 211 0 q 61 61 121 0 q 1 196 1 122 q 53 367 1 265 q 188 547 106 468 q 342 625 269 625 q 496 532 414 625 q 528 540 506 540 q 592 524 561 540 q 624 485 624 507 q 499 313 558 410 q 440 176 440 215 q 456 158 440 158 q 504 178 476 158 q 559 228 532 197 q 608 285 586 258 q 647 339 629 313 l 667 365 m 147 192 q 165 167 147 167 q 190 176 175 167 q 223 202 204 185 q 260 238 242 219 q 299 284 278 257 q 338 333 321 311 q 377 382 356 354 q 410 426 399 410 q 437 463 421 442 q 454 488 453 485 q 400 531 428 531 q 302 464 364 531 q 194 315 240 397 q 147 192 147 233 m 560 674 q 458 709 529 674 q 376 760 386 744 q 375 768 375 761 q 394 811 375 785 q 426 838 413 838 q 438 831 433 838 q 513 756 450 803 q 601 708 575 710 q 610 703 610 708 q 594 684 610 694 q 561 674 579 674 l 560 674 z "},"":{"ha":592,"x_min":1,"x_max":689,"o":"m 667 365 q 671 368 669 368 q 683 353 678 368 q 689 319 689 338 q 685 297 689 306 q 640 207 669 263 q 554 79 610 151 q 461 7 499 7 q 365 48 407 7 q 310 147 322 89 q 163 0 211 0 q 61 61 121 0 q 1 196 1 122 q 53 367 1 265 q 188 547 106 468 q 342 625 269 625 q 496 532 414 625 q 528 540 506 540 q 592 524 561 540 q 624 485 624 507 q 499 313 558 410 q 440 176 440 215 q 456 158 440 158 q 504 178 476 158 q 559 228 532 197 q 608 285 586 258 q 647 339 629 313 l 667 365 m 147 192 q 165 167 147 167 q 190 176 175 167 q 223 202 204 185 q 260 238 242 219 q 299 284 278 257 q 338 333 321 311 q 377 382 356 354 q 410 426 399 410 q 437 463 421 442 q 454 488 453 485 q 400 531 428 531 q 302 464 364 531 q 194 315 240 397 q 147 192 147 233 m 425 674 l 424 674 q 390 684 406 674 q 375 703 375 694 q 383 708 375 708 q 472 756 410 710 q 547 831 535 803 q 558 838 550 838 q 591 811 572 838 q 610 768 610 785 q 608 760 610 761 q 527 709 599 744 q 425 674 456 674 z "},"":{"ha":592,"x_min":1,"x_max":689,"o":"m 667 365 q 671 368 669 368 q 683 353 678 368 q 689 319 689 338 q 685 297 689 306 q 640 207 669 263 q 554 79 610 151 q 461 7 499 7 q 365 48 407 7 q 310 147 322 89 q 163 0 211 0 q 61 61 121 0 q 1 196 1 122 q 53 367 1 265 q 188 547 106 468 q 342 625 269 625 q 496 532 414 625 q 528 540 506 540 q 592 524 561 540 q 624 485 624 507 q 499 313 558 410 q 440 176 440 215 q 456 158 440 158 q 504 178 476 158 q 559 228 532 197 q 608 285 586 258 q 647 339 629 313 l 667 365 m 147 192 q 165 167 147 167 q 190 176 175 167 q 223 202 204 185 q 260 238 242 219 q 299 284 278 257 q 338 333 321 311 q 377 382 356 354 q 410 426 399 410 q 437 463 421 442 q 454 488 453 485 q 400 531 428 531 q 302 464 364 531 q 194 315 240 397 q 147 192 147 233 m 622 685 q 604 675 617 675 q 558 693 585 675 q 497 763 514 724 q 413 703 465 718 q 379 697 394 697 q 357 711 358 697 q 481 824 406 724 q 514 832 489 832 q 535 828 533 832 l 550 792 q 582 727 564 756 q 622 685 600 699 z "},"":{"ha":592,"x_min":1,"x_max":689,"o":"m 667 365 q 671 368 669 368 q 683 353 678 368 q 689 319 689 338 q 685 297 689 306 q 640 207 669 263 q 554 79 610 151 q 461 7 499 7 q 365 48 407 7 q 310 147 322 89 q 163 0 211 0 q 61 61 121 0 q 1 196 1 122 q 53 367 1 265 q 188 547 106 468 q 342 625 269 625 q 496 532 414 625 q 528 540 506 540 q 592 524 561 540 q 624 485 624 507 q 499 313 558 410 q 440 176 440 215 q 456 158 440 158 q 504 178 476 158 q 559 228 532 197 q 608 285 586 258 q 647 339 629 313 l 667 365 m 147 192 q 165 167 147 167 q 190 176 175 167 q 223 202 204 185 q 260 238 242 219 q 299 284 278 257 q 338 333 321 311 q 377 382 356 354 q 410 426 399 410 q 437 463 421 442 q 454 488 453 485 q 400 531 428 531 q 302 464 364 531 q 194 315 240 397 q 147 192 147 233 m 446 782 q 519 754 467 779 q 601 729 572 729 q 638 736 622 729 l 639 736 q 642 732 642 736 q 617 699 642 719 q 561 678 593 678 q 490 701 542 678 q 407 725 438 725 q 378 721 392 725 q 374 724 374 721 q 373 726 374 725 q 372 729 372 728 q 394 765 372 746 q 438 783 415 783 q 442 783 439 783 q 446 782 444 782 z "},"":{"ha":592,"x_min":1,"x_max":689,"o":"m 667 365 q 671 368 669 368 q 683 353 678 368 q 689 319 689 338 q 685 297 689 306 q 640 207 669 263 q 554 79 610 151 q 461 7 499 7 q 365 48 407 7 q 310 147 322 89 q 163 0 211 0 q 61 61 121 0 q 1 196 1 122 q 53 367 1 265 q 188 547 106 468 q 342 625 269 625 q 496 532 414 625 q 528 540 506 540 q 592 524 561 540 q 624 485 624 507 q 499 313 558 410 q 440 176 440 215 q 456 158 440 158 q 504 178 476 158 q 559 228 532 197 q 608 285 586 258 q 647 339 629 313 l 667 365 m 147 192 q 165 167 147 167 q 190 176 175 167 q 223 202 204 185 q 260 238 242 219 q 299 284 278 257 q 338 333 321 311 q 377 382 356 354 q 410 426 399 410 q 437 463 421 442 q 454 488 453 485 q 400 531 428 531 q 302 464 364 531 q 194 315 240 397 q 147 192 147 233 m 388 763 q 394 769 388 763 q 419 775 400 775 q 451 763 439 775 q 464 731 464 750 q 451 699 464 711 q 419 686 439 686 q 388 699 400 686 q 375 731 375 711 q 388 763 375 750 m 549 763 q 555 769 549 763 q 581 775 561 775 q 613 763 600 775 q 625 731 625 750 q 613 699 625 711 q 581 686 600 686 q 549 699 561 686 q 536 731 536 711 q 549 763 536 750 z "},"":{"ha":592,"x_min":1,"x_max":689,"o":"m 667 365 q 671 368 669 368 q 683 353 678 368 q 689 319 689 338 q 685 297 689 306 q 640 207 669 263 q 554 79 610 151 q 461 7 499 7 q 365 48 407 7 q 310 147 322 89 q 163 0 211 0 q 61 61 121 0 q 1 196 1 122 q 53 367 1 265 q 188 547 106 468 q 342 625 269 625 q 496 532 414 625 q 528 540 506 540 q 592 524 561 540 q 624 485 624 507 q 499 313 558 410 q 440 176 440 215 q 456 158 440 158 q 504 178 476 158 q 559 228 532 197 q 608 285 586 258 q 647 339 629 313 l 667 365 m 147 192 q 165 167 147 167 q 190 176 175 167 q 223 202 204 185 q 260 238 242 219 q 299 284 278 257 q 338 333 321 311 q 377 382 356 354 q 410 426 399 410 q 437 463 421 442 q 454 488 453 485 q 400 531 428 531 q 302 464 364 531 q 194 315 240 397 q 147 192 147 233 m 415 807 q 426 818 415 807 q 469 829 438 829 q 524 807 501 829 q 547 753 547 785 q 524 698 547 721 q 469 675 501 675 q 415 698 438 675 q 392 753 392 721 q 415 807 392 785 m 433 717 q 441 709 433 717 q 469 701 449 701 q 505 717 490 701 q 519 753 519 732 q 505 788 519 774 q 469 803 490 803 q 433 788 449 803 q 418 753 418 774 q 433 717 418 732 z "},"":{"ha":829,"x_min":0,"x_max":922,"o":"m 910 367 q 922 332 922 367 q 917 299 922 311 q 867 201 897 250 q 792 105 836 153 q 688 26 749 57 q 563 -4 628 -4 q 418 42 471 -4 q 353 165 365 88 q 161 -1 225 -1 q 60 60 119 -1 q 0 194 0 121 q 52 365 0 264 q 186 545 104 467 q 340 624 268 624 q 494 532 413 624 q 650 614 576 614 q 789 559 729 614 q 849 447 849 504 q 763 301 849 368 q 607 233 678 233 q 507 254 546 233 q 501 214 501 226 q 589 136 501 136 q 760 203 674 136 q 900 361 846 269 q 910 367 904 367 m 711 524 q 614 456 672 524 q 524 310 556 389 q 674 394 613 329 q 735 501 735 458 q 728 519 735 517 q 711 524 719 524 m 164 165 q 426 449 217 165 q 453 486 443 474 q 399 529 426 529 q 301 463 363 529 q 192 314 239 396 q 146 190 146 232 q 164 165 146 165 z "},"":{"ha":485,"x_min":14,"x_max":574,"o":"m 564 367 q 574 332 574 367 q 571 303 574 314 q 522 208 550 254 q 451 113 493 161 q 352 34 410 64 q 231 3 294 4 l 201 -51 q 246 -42 224 -42 q 301 -68 282 -42 q 310 -99 310 -83 q 268 -180 310 -139 q 186 -221 226 -221 l 178 -221 q 117 -149 117 -208 l 117 -143 q 160 -160 129 -160 q 238 -140 197 -160 q 283 -97 278 -119 l 283 -92 q 265 -76 283 -76 q 174 -107 247 -76 q 165 -110 168 -110 q 147 -99 154 -110 q 139 -74 139 -87 q 142 -61 139 -69 q 150 -47 144 -57 q 164 -21 156 -36 q 178 6 172 -6 q 14 222 14 32 q 115 485 14 356 q 313 615 215 615 q 450 560 390 615 q 510 449 510 506 q 407 339 510 371 q 340 328 374 328 q 276 346 276 328 l 276 349 q 363 429 329 382 q 397 506 397 476 q 372 522 397 522 q 240 412 318 522 q 163 218 163 301 q 251 138 163 138 q 414 202 335 138 q 556 364 493 267 q 564 367 556 367 z "},"":{"ha":486,"x_min":10,"x_max":583,"o":"m 561 363 q 571 368 565 368 q 583 333 583 368 q 578 300 583 313 q 528 203 558 251 q 453 106 497 154 q 349 28 410 58 q 224 -3 289 -3 q 63 58 117 -3 q 10 219 10 118 q 112 485 10 354 q 311 615 214 615 q 450 560 390 615 q 510 449 510 506 q 424 302 510 369 q 268 235 339 235 q 168 256 207 235 q 163 215 163 228 q 250 138 163 138 q 421 204 335 138 q 561 363 507 271 m 389 521 q 372 525 381 525 q 275 458 333 525 q 185 311 217 390 q 335 395 274 331 q 396 503 396 460 q 389 521 396 517 m 493 674 q 391 709 463 674 q 310 760 319 744 q 308 768 308 761 q 327 811 308 785 q 360 838 346 838 q 371 831 367 838 q 446 756 383 803 q 535 708 508 710 q 543 703 543 708 q 528 684 543 694 q 494 674 513 674 l 493 674 z "},"":{"ha":486,"x_min":10,"x_max":583,"o":"m 561 363 q 571 368 565 368 q 583 333 583 368 q 578 300 583 313 q 528 203 558 251 q 453 106 497 154 q 349 28 410 58 q 224 -3 289 -3 q 63 58 117 -3 q 10 219 10 118 q 112 485 10 354 q 311 615 214 615 q 450 560 390 615 q 510 449 510 506 q 424 302 510 369 q 268 235 339 235 q 168 256 207 235 q 163 215 163 228 q 250 138 163 138 q 421 204 335 138 q 561 363 507 271 m 389 521 q 372 525 381 525 q 275 458 333 525 q 185 311 217 390 q 335 395 274 331 q 396 503 396 460 q 389 521 396 517 m 317 674 l 315 674 q 282 684 297 674 q 267 703 267 694 q 275 708 267 708 q 364 756 301 710 q 439 831 426 803 q 450 838 442 838 q 483 811 464 838 q 501 768 501 785 q 500 760 501 761 q 419 709 490 744 q 317 674 347 674 z "},"":{"ha":486,"x_min":10,"x_max":583,"o":"m 561 363 q 571 368 565 368 q 583 333 583 368 q 578 300 583 313 q 528 203 558 251 q 453 106 497 154 q 349 28 410 58 q 224 -3 289 -3 q 63 58 117 -3 q 10 219 10 118 q 112 485 10 354 q 311 615 214 615 q 450 560 390 615 q 510 449 510 506 q 424 302 510 369 q 268 235 339 235 q 168 256 207 235 q 163 215 163 228 q 250 138 163 138 q 421 204 335 138 q 561 363 507 271 m 389 521 q 372 525 381 525 q 275 458 333 525 q 185 311 217 390 q 335 395 274 331 q 396 503 396 460 q 389 521 396 517 m 518 685 q 500 675 514 675 q 454 693 481 675 q 393 763 410 724 q 308 703 361 718 q 275 697 290 697 q 253 711 254 697 q 376 824 301 724 q 410 832 385 832 q 431 828 428 832 l 444 792 q 478 727 460 756 q 518 685 496 699 z "},"":{"ha":486,"x_min":10,"x_max":583,"o":"m 561 363 q 571 368 565 368 q 583 333 583 368 q 578 300 583 313 q 528 203 558 251 q 453 106 497 154 q 349 28 410 58 q 224 -3 289 -3 q 63 58 117 -3 q 10 219 10 118 q 112 485 10 354 q 311 615 214 615 q 450 560 390 615 q 510 449 510 506 q 424 302 510 369 q 268 235 339 235 q 168 256 207 235 q 163 215 163 228 q 250 138 163 138 q 421 204 335 138 q 561 363 507 271 m 389 521 q 372 525 381 525 q 275 458 333 525 q 185 311 217 390 q 335 395 274 331 q 396 503 396 460 q 389 521 396 517 m 260 763 q 266 769 260 763 q 292 775 272 775 q 324 763 311 775 q 336 731 336 750 q 324 699 336 711 q 292 686 311 686 q 260 699 272 686 q 247 731 247 711 q 260 763 247 750 m 421 763 q 427 769 421 763 q 453 775 433 775 q 485 763 472 775 q 497 731 497 750 q 485 699 497 711 q 453 686 472 686 q 421 699 433 686 q 408 731 408 711 q 421 763 408 750 z "},"":{"ha":326,"x_min":-1,"x_max":446,"o":"m 339 526 q 210 335 275 453 q 146 171 146 217 q 160 151 146 151 q 299 238 218 151 q 403 365 381 324 q 407 368 404 368 q 417 350 413 368 q 422 313 422 332 q 418 286 422 297 q 390 229 413 271 q 333 134 367 188 q 256 40 299 81 q 176 0 213 0 q 56 61 114 0 q -1 189 -1 122 q 81 401 -1 244 q 200 586 163 558 q 226 593 210 593 q 300 572 261 593 q 339 526 339 551 m 396 674 q 294 709 365 674 q 213 760 222 744 q 211 768 211 761 q 230 811 211 785 q 263 838 249 838 q 274 831 269 838 q 349 756 286 803 q 438 708 411 710 q 446 703 446 708 q 431 684 446 694 q 397 674 415 674 l 396 674 z "},"":{"ha":326,"x_min":-1,"x_max":450,"o":"m 339 526 q 210 335 275 453 q 146 171 146 217 q 160 151 146 151 q 299 238 218 151 q 403 365 381 324 q 407 368 404 368 q 417 350 413 368 q 422 313 422 332 q 418 286 422 297 q 390 229 413 271 q 333 134 367 188 q 256 40 299 81 q 176 0 213 0 q 56 61 114 0 q -1 189 -1 122 q 81 401 -1 244 q 200 586 163 558 q 226 593 210 593 q 300 572 261 593 q 339 526 339 551 m 265 674 l 264 674 q 231 684 246 674 q 215 703 215 694 q 224 708 215 708 q 313 756 250 710 q 388 831 375 803 q 399 838 392 838 q 431 811 413 838 q 450 768 450 785 q 449 760 450 761 q 367 709 439 744 q 265 674 296 674 z "},"":{"ha":326,"x_min":-1,"x_max":440,"o":"m 339 526 q 210 335 275 453 q 146 171 146 217 q 160 151 146 151 q 299 238 218 151 q 403 365 381 324 q 407 368 404 368 q 417 350 413 368 q 422 313 422 332 q 418 286 422 297 q 390 229 413 271 q 333 134 367 188 q 256 40 299 81 q 176 0 213 0 q 56 61 114 0 q -1 189 -1 122 q 81 401 -1 244 q 200 586 163 558 q 226 593 210 593 q 300 572 261 593 q 339 526 339 551 m 440 685 q 422 675 436 675 q 376 693 403 675 q 315 763 332 724 q 231 703 283 718 q 197 697 213 697 q 175 711 176 697 q 299 824 224 724 q 332 832 307 832 q 353 828 350 832 l 367 792 q 400 727 382 756 q 440 685 418 699 z "},"":{"ha":326,"x_min":-1,"x_max":429,"o":"m 339 526 q 210 335 275 453 q 146 171 146 217 q 160 151 146 151 q 299 238 218 151 q 403 365 381 324 q 407 368 404 368 q 417 350 413 368 q 422 313 422 332 q 418 286 422 297 q 390 229 413 271 q 333 134 367 188 q 256 40 299 81 q 176 0 213 0 q 56 61 114 0 q -1 189 -1 122 q 81 401 -1 244 q 200 586 163 558 q 226 593 210 593 q 300 572 261 593 q 339 526 339 551 m 192 763 q 199 769 192 763 q 224 775 206 775 q 255 763 242 775 q 268 731 268 750 q 255 699 268 711 q 224 686 242 686 q 192 699 206 686 q 179 731 179 711 q 192 763 179 750 m 353 763 q 360 769 353 763 q 385 775 367 775 q 416 763 403 775 q 429 731 429 750 q 416 699 429 711 q 385 686 403 686 q 353 699 367 686 q 340 731 340 711 q 353 763 340 750 z "},"":{"ha":635,"x_min":-54,"x_max":735,"o":"m 707 364 q 713 368 708 368 q 728 350 721 368 q 735 311 735 332 q 731 285 735 297 q 631 118 708 229 q 507 7 554 7 q 381 65 439 7 q 322 189 322 124 q 355 294 322 228 q 420 413 388 360 q 453 471 453 465 q 451 472 453 472 q 351 383 436 471 q 183 188 265 296 q 101 35 101 79 q 103 28 103 32 q 92 10 103 18 q 71 1 82 1 q -16 29 22 1 q -54 101 -54 57 q 60 356 -54 150 q 175 606 175 561 q 200 626 175 626 q 273 599 233 626 q 313 542 313 571 q 292 488 313 526 q 230 385 271 450 q 164 274 189 319 q 378 512 269 404 q 539 619 486 619 q 622 583 578 619 q 665 519 665 546 q 663 510 665 515 q 550 327 625 457 q 475 154 475 197 q 488 138 475 138 q 707 364 551 138 m 425 782 q 499 754 446 779 q 581 729 551 729 q 617 736 601 729 l 618 736 q 621 732 621 736 q 597 699 621 719 q 540 678 572 678 q 469 701 521 678 q 386 725 417 725 q 357 721 372 725 q 353 724 353 721 q 352 726 353 725 q 351 729 351 728 q 373 765 351 746 q 417 783 394 783 q 421 783 418 783 q 425 782 424 782 z "},"":{"ha":547,"x_min":-6,"x_max":633,"o":"m 617 364 q 628 351 622 364 q 633 321 633 338 q 567 197 633 256 q 431 131 501 138 l 428 131 q 325 32 382 69 q 221 -6 268 -6 q 74 53 153 -6 q -6 181 -6 113 q 40 367 -6 269 q 121 497 85 465 q 136 504 129 503 q 217 596 161 560 q 339 632 272 632 q 474 575 408 632 q 539 449 539 518 q 490 233 539 338 q 556 277 526 247 q 617 364 585 307 m 365 556 q 254 460 293 556 q 258 447 258 453 l 246 431 q 238 371 238 401 q 258 283 238 322 q 321 228 279 244 q 394 358 365 286 q 422 483 422 431 q 365 556 422 556 m 176 129 q 271 172 221 129 q 175 253 218 203 q 167 263 172 257 q 160 272 163 269 q 140 185 140 222 q 176 129 140 129 m 497 674 q 395 709 467 674 q 314 760 324 744 q 313 768 313 761 q 331 811 313 785 q 364 838 350 838 q 375 831 372 838 q 450 756 388 803 q 539 708 513 710 q 547 703 547 708 q 532 684 547 694 q 499 674 517 674 l 497 674 z "},"":{"ha":547,"x_min":-6,"x_max":633,"o":"m 617 364 q 628 351 622 364 q 633 321 633 338 q 567 197 633 256 q 431 131 501 138 l 428 131 q 325 32 382 69 q 221 -6 268 -6 q 74 53 153 -6 q -6 181 -6 113 q 40 367 -6 269 q 121 497 85 465 q 136 504 129 503 q 217 596 161 560 q 339 632 272 632 q 474 575 408 632 q 539 449 539 518 q 490 233 539 338 q 556 277 526 247 q 617 364 585 307 m 365 556 q 254 460 293 556 q 258 447 258 453 l 246 431 q 238 371 238 401 q 258 283 238 322 q 321 228 279 244 q 394 358 365 286 q 422 483 422 431 q 365 556 422 556 m 176 129 q 271 172 221 129 q 175 253 218 203 q 167 263 172 257 q 160 272 163 269 q 140 185 140 222 q 176 129 140 129 m 338 674 l 336 674 q 303 684 318 674 q 288 703 288 694 q 296 708 288 708 q 385 756 322 710 q 460 831 447 803 q 471 838 464 838 q 503 811 485 838 q 522 768 522 785 q 521 760 522 761 q 440 709 511 744 q 338 674 368 674 z "},"":{"ha":549,"x_min":-6,"x_max":633,"o":"m 617 364 q 628 351 622 364 q 633 321 633 338 q 567 197 633 256 q 431 131 501 138 l 428 131 q 325 32 382 69 q 221 -6 268 -6 q 74 53 153 -6 q -6 181 -6 113 q 40 367 -6 269 q 121 497 85 465 q 136 504 129 503 q 217 596 161 560 q 339 632 272 632 q 474 575 408 632 q 539 449 539 518 q 490 233 539 338 q 556 277 526 247 q 617 364 585 307 m 365 556 q 254 460 293 556 q 258 447 258 453 l 246 431 q 238 371 238 401 q 258 283 238 322 q 321 228 279 244 q 394 358 365 286 q 422 483 422 431 q 365 556 422 556 m 176 129 q 271 172 221 129 q 175 253 218 203 q 167 263 172 257 q 160 272 163 269 q 140 185 140 222 q 176 129 140 129 m 540 685 q 522 675 536 675 q 476 693 503 675 q 415 763 432 724 q 331 703 383 718 q 297 697 313 697 q 275 711 276 697 q 399 824 324 724 q 432 832 407 832 q 453 828 450 832 l 467 792 q 500 727 482 756 q 540 685 518 699 z "},"":{"ha":549,"x_min":-6,"x_max":633,"o":"m 617 364 q 628 351 622 364 q 633 321 633 338 q 567 197 633 256 q 431 131 501 138 l 428 131 q 325 32 382 69 q 221 -6 268 -6 q 74 53 153 -6 q -6 181 -6 113 q 40 367 -6 269 q 121 497 85 465 q 136 504 129 503 q 217 596 161 560 q 339 632 272 632 q 474 575 408 632 q 539 449 539 518 q 490 233 539 338 q 556 277 526 247 q 617 364 585 307 m 365 556 q 254 460 293 556 q 258 447 258 453 l 246 431 q 238 371 238 401 q 258 283 238 322 q 321 228 279 244 q 394 358 365 286 q 422 483 422 431 q 365 556 422 556 m 176 129 q 271 172 221 129 q 175 253 218 203 q 167 263 172 257 q 160 272 163 269 q 140 185 140 222 q 176 129 140 129 m 376 782 q 450 754 397 779 q 532 729 503 729 q 568 736 553 729 l 569 736 q 572 732 572 736 q 548 699 572 719 q 492 678 524 678 q 420 701 472 678 q 338 725 368 725 q 308 721 322 725 q 304 724 304 721 q 303 726 304 725 q 303 729 303 728 q 324 765 303 746 q 368 783 346 783 q 372 783 369 783 q 376 782 375 782 z "},"":{"ha":549,"x_min":-6,"x_max":633,"o":"m 617 364 q 628 351 622 364 q 633 321 633 338 q 567 197 633 256 q 431 131 501 138 l 428 131 q 325 32 382 69 q 221 -6 268 -6 q 74 53 153 -6 q -6 181 -6 113 q 40 367 -6 269 q 121 497 85 465 q 136 504 129 503 q 217 596 161 560 q 339 632 272 632 q 474 575 408 632 q 539 449 539 518 q 490 233 539 338 q 556 277 526 247 q 617 364 585 307 m 365 556 q 254 460 293 556 q 258 447 258 453 l 246 431 q 238 371 238 401 q 258 283 238 322 q 321 228 279 244 q 394 358 365 286 q 422 483 422 431 q 365 556 422 556 m 176 129 q 271 172 221 129 q 175 253 218 203 q 167 263 172 257 q 160 272 163 269 q 140 185 140 222 q 176 129 140 129 m 260 763 q 266 769 260 763 q 292 775 272 775 q 324 763 311 775 q 336 731 336 750 q 324 699 336 711 q 292 686 311 686 q 260 699 272 686 q 247 731 247 711 q 260 763 247 750 m 421 763 q 427 769 421 763 q 453 775 433 775 q 485 763 472 775 q 497 731 497 750 q 485 699 497 711 q 453 686 472 686 q 421 699 433 686 q 408 731 408 711 q 421 763 408 750 z "},"":{"ha":688,"x_min":60,"x_max":465,"o":"m 113 460 l 447 460 q 465 444 465 460 q 446 401 465 424 q 401 379 426 379 l 76 379 q 60 396 60 379 q 75 439 60 418 q 113 460 90 460 m 160 311 q 168 319 160 311 q 200 328 176 328 q 240 311 224 328 q 256 271 256 294 q 239 231 256 247 q 200 215 222 215 q 160 231 176 215 q 143 271 143 247 q 160 311 143 294 m 306 632 q 344 616 328 632 q 361 576 361 600 q 344 537 361 553 q 306 521 328 521 q 265 538 282 521 q 249 576 249 554 q 265 615 249 599 q 306 632 282 632 z "},"":{"ha":1403,"x_min":-6,"x_max":678,"o":"m 678 653 q 525 544 633 653 q 568 442 568 490 q 524 242 568 353 q 401 47 479 131 q 242 -37 324 -37 q 128 -14 178 -37 q 96 -124 96 -89 q 89 -132 96 -132 q 60 -114 75 -132 q 46 -67 46 -96 q 72 22 46 -39 q 15 92 35 54 q -6 151 -6 129 q 27 312 -6 225 q 99 453 60 399 q 161 507 139 507 l 174 507 q 372 631 224 631 q 442 613 406 631 q 561 725 526 715 q 586 728 569 728 q 649 706 621 728 q 678 653 678 683 m 274 436 q 197 323 243 415 q 144 165 150 231 q 393 551 257 367 q 257 481 324 550 q 285 453 285 467 q 274 436 285 443 m 185 93 l 190 93 q 354 222 271 93 q 447 458 438 350 q 185 93 297 283 z "},"":{"ha":604,"x_min":3,"x_max":710,"o":"m 690 385 l 693 388 q 704 368 699 388 q 710 328 710 349 q 706 301 710 313 q 680 240 699 282 q 630 139 661 199 q 559 37 599 79 q 488 -6 519 -6 q 390 35 439 -6 q 319 132 340 76 q 181 -6 239 -6 q 60 56 118 -6 q 3 183 3 117 q 85 396 3 239 q 204 581 167 553 q 231 588 214 588 q 305 567 265 588 q 344 521 344 546 q 215 329 281 447 q 150 165 150 211 q 164 146 150 146 q 363 331 235 146 q 451 487 403 410 q 519 581 499 564 q 547 588 531 588 q 621 567 582 588 q 660 521 660 546 q 525 326 593 444 q 457 164 457 208 q 471 146 457 146 q 590 245 510 146 q 690 385 669 344 m 536 674 q 434 709 506 674 q 353 760 363 744 q 351 768 351 761 q 370 811 351 785 q 403 838 389 838 q 414 831 411 838 q 489 756 426 803 q 578 708 551 710 q 586 703 586 708 q 571 684 586 694 q 538 674 556 674 l 536 674 z "},"":{"ha":606,"x_min":3,"x_max":710,"o":"m 690 385 l 693 388 q 704 368 699 388 q 710 328 710 349 q 706 301 710 313 q 680 240 699 282 q 630 139 661 199 q 559 37 599 79 q 488 -6 519 -6 q 390 35 439 -6 q 319 132 340 76 q 181 -6 239 -6 q 60 56 118 -6 q 3 183 3 117 q 85 396 3 239 q 204 581 167 553 q 231 588 214 588 q 305 567 265 588 q 344 521 344 546 q 215 329 281 447 q 150 165 150 211 q 164 146 150 146 q 363 331 235 146 q 451 487 403 410 q 519 581 499 564 q 547 588 531 588 q 621 567 582 588 q 660 521 660 546 q 525 326 593 444 q 457 164 457 208 q 471 146 457 146 q 590 245 510 146 q 690 385 669 344 m 404 674 l 403 674 q 369 684 385 674 q 354 703 354 694 q 363 708 354 708 q 451 756 389 710 q 526 831 514 803 q 538 838 531 838 q 570 811 551 838 q 589 768 589 785 q 588 760 589 761 q 506 709 578 744 q 404 674 435 674 z "},"":{"ha":604,"x_min":3,"x_max":710,"o":"m 690 385 l 693 388 q 704 368 699 388 q 710 328 710 349 q 706 301 710 313 q 680 240 699 282 q 630 139 661 199 q 559 37 599 79 q 488 -6 519 -6 q 390 35 439 -6 q 319 132 340 76 q 181 -6 239 -6 q 60 56 118 -6 q 3 183 3 117 q 85 396 3 239 q 204 581 167 553 q 231 588 214 588 q 305 567 265 588 q 344 521 344 546 q 215 329 281 447 q 150 165 150 211 q 164 146 150 146 q 363 331 235 146 q 451 487 403 410 q 519 581 499 564 q 547 588 531 588 q 621 567 582 588 q 660 521 660 546 q 525 326 593 444 q 457 164 457 208 q 471 146 457 146 q 590 245 510 146 q 690 385 669 344 m 576 685 q 558 675 572 675 q 513 693 539 675 q 451 763 468 724 q 367 703 419 718 q 333 697 349 697 q 311 711 313 697 q 435 824 360 724 q 468 832 443 832 q 489 828 486 832 l 503 792 q 536 727 518 756 q 576 685 554 699 z "},"":{"ha":604,"x_min":3,"x_max":710,"o":"m 690 385 l 693 388 q 704 368 699 388 q 710 328 710 349 q 706 301 710 313 q 680 240 699 282 q 630 139 661 199 q 559 37 599 79 q 488 -6 519 -6 q 390 35 439 -6 q 319 132 340 76 q 181 -6 239 -6 q 60 56 118 -6 q 3 183 3 117 q 85 396 3 239 q 204 581 167 553 q 231 588 214 588 q 305 567 265 588 q 344 521 344 546 q 215 329 281 447 q 150 165 150 211 q 164 146 150 146 q 363 331 235 146 q 451 487 403 410 q 519 581 499 564 q 547 588 531 588 q 621 567 582 588 q 660 521 660 546 q 525 326 593 444 q 457 164 457 208 q 471 146 457 146 q 590 245 510 146 q 690 385 669 344 m 326 763 q 332 769 326 763 q 357 775 339 775 q 388 763 375 775 q 401 731 401 750 q 388 699 401 711 q 357 686 375 686 q 326 699 339 686 q 313 731 313 711 q 326 763 313 750 m 487 763 q 493 769 487 763 q 518 775 500 775 q 549 763 536 775 q 563 731 563 750 q 549 699 563 711 q 518 686 536 686 q 487 699 500 686 q 474 731 474 711 q 487 763 474 750 z "},"":{"ha":606,"x_min":-125,"x_max":710,"o":"m 597 604 q 674 580 639 604 q 710 529 710 556 q 631 422 674 501 q 552 249 589 343 q 464 49 515 154 q 359 -142 413 -57 q 229 -284 306 -228 q 67 -340 153 -340 q -74 -294 -22 -340 q -125 -187 -125 -247 q -108 -128 -125 -147 q -74 -108 -90 -108 q -65 -111 -65 -108 q -69 -131 -69 -119 q -49 -186 -69 -160 q 13 -212 -28 -212 q 103 -187 58 -212 q 181 -122 147 -161 q 253 -22 215 -83 q 316 94 290 40 q 374 221 342 147 q 350 188 353 193 q 239 39 290 94 q 183 -1 201 -1 q 59 61 118 -1 q 0 192 0 124 q 95 407 0 246 q 229 599 190 568 q 257 606 240 606 q 333 584 293 606 q 372 538 372 563 q 228 335 303 457 q 153 169 153 213 q 165 153 153 153 q 288 247 199 153 q 475 464 376 340 l 542 576 q 597 604 560 604 m 417 674 l 415 674 q 382 684 397 674 q 367 703 367 694 q 375 708 367 708 q 464 756 401 710 q 539 831 526 803 q 550 838 542 838 q 583 811 564 838 q 601 768 601 785 q 600 760 601 761 q 519 709 590 744 q 417 674 447 674 z "},"":{"ha":1206,"x_min":-125,"x_max":710,"o":"m 348 763 q 355 769 348 763 q 379 775 361 775 q 410 763 397 775 q 424 731 424 750 q 410 699 424 711 q 379 686 397 686 q 348 699 361 686 q 335 731 335 711 q 348 763 335 750 m 509 763 q 516 769 509 763 q 540 775 522 775 q 572 763 558 775 q 585 731 585 750 q 572 699 585 711 q 540 686 558 686 q 509 699 522 686 q 496 731 496 711 q 509 763 496 750 m 597 604 q 674 580 639 604 q 710 529 710 556 q 631 422 674 501 q 552 249 589 343 q 464 49 515 154 q 359 -142 413 -57 q 229 -284 306 -228 q 67 -340 153 -340 q -74 -294 -22 -340 q -125 -187 -125 -247 q -108 -128 -125 -147 q -74 -108 -90 -108 q -65 -111 -65 -108 q -69 -131 -69 -119 q -49 -186 -69 -160 q 13 -212 -28 -212 q 103 -187 58 -212 q 181 -122 147 -161 q 253 -22 215 -83 q 316 94 290 40 q 374 221 342 147 q 350 188 353 193 q 239 39 290 94 q 183 -1 201 -1 q 59 61 118 -1 q 0 192 0 124 q 95 407 0 246 q 229 599 190 568 q 257 606 240 606 q 333 584 293 606 q 372 538 372 563 q 228 335 303 457 q 153 169 153 213 q 165 153 153 153 q 288 247 199 153 q 475 464 376 340 l 542 576 q 597 604 560 604 z "},"":{"ha":835,"x_min":0,"x_max":829,"o":"m 829 194 q 735 19 829 114 q 542 -76 640 -76 q 450 -53 493 -76 q 379 8 407 -29 q 333 80 351 44 q 308 147 315 115 q 163 0 213 0 q 60 61 121 0 q 0 196 0 122 q 52 367 0 265 q 187 547 104 468 q 342 625 269 625 q 427 593 383 625 q 494 532 471 561 q 528 540 506 540 q 592 524 561 540 q 622 485 622 507 q 487 297 549 399 q 425 135 425 194 q 442 93 425 108 q 488 78 460 78 q 631 151 556 78 q 706 293 706 224 q 685 350 706 328 q 710 361 693 361 q 789 314 749 361 q 829 194 829 267 m 454 488 q 399 531 425 531 q 301 464 363 531 q 194 316 240 397 q 147 193 147 235 q 165 167 147 167 q 444 474 222 167 q 454 488 451 483 z "},"":{"ha":1043,"x_min":0,"x_max":1017,"o":"m 1017 175 q 1010 143 1017 157 q 997 124 1004 129 q 985 118 990 118 q 944 151 985 151 q 699 69 890 151 q 460 -12 508 -12 q 366 37 408 -12 q 308 147 324 86 q 163 0 213 0 q 60 61 121 0 q 0 196 0 122 q 52 367 0 265 q 187 547 104 468 q 342 625 269 625 q 427 593 383 625 q 494 532 471 561 q 526 540 507 540 q 591 524 560 540 q 622 485 622 507 q 492 292 558 408 q 426 136 426 176 q 438 121 426 121 q 641 219 472 121 q 860 317 810 317 q 965 271 913 317 q 1017 175 1017 225 m 454 488 q 399 531 425 531 q 301 464 363 531 q 194 316 240 397 q 147 193 147 235 q 165 167 147 167 q 444 474 222 167 q 454 488 451 483 z "},"":{"ha":947,"x_min":-42,"x_max":935,"o":"m 822 425 q 901 359 867 411 q 935 256 935 307 q 933 235 935 242 q 912 196 929 208 q 879 183 894 183 q 875 186 875 183 q 790 249 875 226 q 579 271 706 271 l 568 271 q 447 81 518 161 q 311 0 376 0 q 210 43 254 0 q 142 147 165 86 q 94 57 103 86 q 92 33 92 38 q 83 10 92 21 q 63 0 75 0 q -3 30 36 0 q -42 100 -42 60 q 96 427 -42 165 q 311 796 233 689 q 372 819 328 819 q 437 803 408 819 q 465 761 465 788 q 236 390 372 640 q 469 603 393 603 q 568 556 518 603 q 618 453 618 508 q 615 422 618 442 q 750 433 696 433 q 822 425 799 433 m 450 531 q 260 322 410 531 q 450 386 328 351 q 476 492 476 451 q 450 531 476 531 m 256 138 q 386 258 311 138 q 175 194 244 238 q 256 138 226 138 z "},"":{"ha":597,"x_min":-218,"x_max":658,"o":"m -125 675 q -192 742 -165 693 q -218 840 -218 792 q -212 879 -218 864 q -156 922 -200 922 q -149 921 -149 922 q -167 893 -167 907 q -14 813 -167 850 q 304 775 139 776 q 547 974 453 974 q 627 939 596 974 q 658 875 658 904 q 597 781 658 831 q 482 707 535 732 q 410 676 429 682 q 233 386 339 575 l 238 390 q 471 604 392 604 q 570 556 519 604 q 621 451 621 507 q 574 275 621 382 q 452 83 526 168 q 313 -1 378 -1 q 211 43 256 -1 q 143 149 167 88 q 92 40 93 69 l 92 32 q 64 0 89 0 q -6 33 32 0 q -43 101 -43 65 q 40 317 -43 143 q 224 653 122 492 q 81 647 157 647 q -125 675 -68 647 m 453 531 q 339 424 425 531 q 174 197 253 318 q 257 138 228 138 q 398 276 318 138 q 478 493 478 414 q 453 531 478 531 z "},"":{"ha":597,"x_min":-272,"x_max":764,"o":"m 524 665 q 408 674 469 665 q 228 372 321 550 q 235 383 231 376 q 242 392 240 390 q 474 604 399 604 q 572 556 522 604 q 622 453 622 508 q 576 277 622 383 q 456 86 529 171 q 317 1 382 1 q 215 45 260 1 q 147 150 171 89 q 100 67 107 85 q 97 44 97 50 q 88 10 97 19 q 68 0 78 0 q -3 33 35 0 q -42 104 -42 67 q 51 341 -42 149 q 256 699 144 533 q 113 729 213 707 q -46 761 13 751 q -146 771 -104 771 q -229 721 -229 771 q -259 737 -246 721 q -272 781 -272 753 q -200 893 -272 821 q -78 965 -128 965 q 28 942 -37 965 q 185 880 93 918 q 344 821 278 842 q 470 942 404 896 q 594 988 536 988 q 715 952 667 988 q 764 861 764 917 q 692 723 764 781 q 524 665 619 665 m 667 907 q 499 790 601 907 q 553 788 535 788 q 660 810 613 788 q 707 867 707 832 q 695 895 707 883 q 667 907 683 907 m 456 531 q 342 426 426 531 q 178 199 257 321 q 261 140 231 140 q 356 208 303 140 q 444 359 408 275 q 481 493 481 443 q 456 531 481 531 z "},"":{"ha":1001,"x_min":-217,"x_max":931,"o":"m 817 429 q 897 363 863 415 q 931 258 931 311 q 929 239 931 244 q 906 200 925 213 q 874 188 888 188 l 869 189 q 783 253 869 231 q 571 275 697 275 q 449 82 521 164 q 311 0 378 0 q 211 44 256 0 q 142 149 167 88 q 92 35 93 71 l 92 33 q 64 1 89 1 q -5 34 32 1 q -42 103 -42 67 q 40 318 -42 143 q 222 651 122 493 q 85 644 143 644 q -125 674 -60 644 q -190 741 -164 692 q -217 839 -217 790 q -211 878 -217 861 q -153 919 -197 919 q -147 918 -147 919 q -165 892 -165 906 q -15 811 -165 847 q 304 772 136 775 q 546 971 450 971 q 626 936 594 971 q 657 874 657 901 q 596 780 657 829 q 479 705 535 731 q 408 676 424 679 q 233 386 319 546 l 238 390 q 468 603 394 603 l 469 603 q 569 555 518 603 q 619 451 619 507 q 617 426 619 446 q 743 439 701 439 q 817 429 789 439 m 451 531 q 267 332 413 531 q 453 392 351 365 q 476 492 476 458 q 451 531 476 531 m 257 139 q 390 264 313 139 q 176 203 244 243 q 175 201 175 203 q 174 199 175 200 q 257 139 225 139 z "},"":{"ha":988,"x_min":-272,"x_max":947,"o":"m 835 438 q 913 371 879 424 q 947 267 947 318 q 946 247 947 253 q 924 210 942 222 q 892 197 906 197 q 886 199 886 197 q 801 262 886 239 q 589 285 715 285 l 578 285 q 456 87 529 172 q 317 1 383 1 q 215 45 260 1 q 147 150 171 89 q 100 67 107 85 q 97 44 97 50 q 88 10 97 19 q 68 0 78 0 q -3 33 35 0 q -42 104 -42 67 q 51 341 -42 149 q 256 699 144 533 q 113 729 213 707 q -46 761 13 751 q -146 771 -104 771 q -229 721 -229 771 q -259 737 -246 721 q -272 781 -272 753 q -200 893 -272 821 q -78 965 -128 965 q 28 942 -37 965 q 185 880 93 918 q 344 821 278 842 q 470 942 404 896 q 594 988 536 988 q 715 952 667 988 q 764 861 764 917 q 692 723 764 781 q 524 665 619 665 q 408 674 469 665 q 228 372 321 550 q 235 383 231 376 q 242 392 240 390 q 474 604 399 604 q 572 556 522 604 q 622 453 622 508 l 622 433 q 761 446 699 446 q 835 438 806 446 m 667 907 q 499 790 601 907 q 553 788 535 788 q 660 810 613 788 q 707 867 707 832 q 695 895 707 883 q 667 907 683 907 m 456 531 q 272 335 415 531 q 458 397 350 368 q 481 494 481 457 q 456 531 481 531 m 261 140 q 399 271 321 140 q 179 201 244 247 q 178 199 179 200 q 261 140 231 140 z "},"":{"ha":790,"x_min":1,"x_max":786,"o":"m 304 367 q 378 445 350 397 q 407 531 407 493 q 396 564 407 554 q 374 569 386 569 q 278 507 332 569 q 185 356 224 444 q 146 201 146 268 q 242 99 146 99 q 406 139 325 99 q 540 237 486 179 q 628 355 594 294 q 661 460 661 415 q 635 511 661 499 q 663 524 644 524 q 744 468 703 524 q 786 343 786 413 q 745 222 786 289 q 640 94 704 154 q 486 -6 576 35 q 308 -46 396 -46 q 147 -7 221 -46 q 1 238 1 69 q 103 524 1 388 q 317 661 204 661 q 459 605 397 661 q 521 490 521 549 q 481 411 521 444 q 399 366 442 378 q 321 354 356 354 q 299 361 299 354 q 304 367 299 363 z "},"":{"ha":858,"x_min":1,"x_max":828,"o":"m 828 200 q 734 18 828 114 q 538 -78 640 -78 q 388 -3 451 -78 q 307 146 325 72 q 163 0 213 0 q 61 60 121 0 q 1 194 1 121 q 53 365 1 264 q 187 545 106 467 q 340 624 268 624 q 482 543 406 624 q 660 810 625 778 q 703 822 674 822 q 769 803 738 822 q 801 761 801 785 q 581 447 711 658 q 451 136 451 236 q 467 88 451 103 q 510 69 485 69 q 634 156 568 69 q 700 308 700 243 q 683 347 700 335 q 707 358 690 358 q 787 315 746 358 q 828 200 828 271 m 438 465 q 444 475 439 467 q 451 489 449 483 q 397 529 424 529 q 300 463 361 529 q 193 315 239 396 q 147 192 147 233 q 156 168 147 174 q 165 165 161 165 q 438 465 219 165 z "},"":{"ha":1028,"x_min":0,"x_max":1015,"o":"m 985 118 q 942 150 985 150 q 686 69 881 150 q 464 -11 492 -11 q 366 39 413 -11 q 306 149 319 89 q 161 1 211 1 q 60 63 119 1 q 0 197 0 124 q 52 367 0 267 q 185 547 104 468 q 339 625 267 625 q 481 544 404 625 q 658 811 621 776 q 701 824 672 824 q 768 805 736 824 q 800 764 800 786 q 574 430 722 675 q 425 126 425 185 q 435 113 425 113 q 637 215 468 113 q 860 317 806 317 q 961 269 907 317 q 1015 172 1015 221 q 985 118 1015 138 m 436 467 q 442 476 438 468 q 450 490 447 485 q 396 531 422 531 q 299 465 360 531 q 192 317 238 399 q 146 194 146 236 q 154 171 146 178 q 164 168 160 168 q 436 467 218 168 z "},"":{"ha":589,"x_min":-1,"x_max":990,"o":"m 990 889 q 931 797 990 846 q 819 724 872 749 q 743 692 767 699 q 714 649 724 664 q 692 615 706 638 l 690 615 q 520 341 597 476 q 443 169 443 206 q 451 158 443 158 q 481 167 465 158 q 513 188 497 175 q 547 220 529 201 q 580 256 565 239 q 610 293 594 274 q 634 326 625 313 q 653 353 643 340 l 661 365 q 667 368 663 368 q 677 355 672 368 q 682 325 682 342 q 676 300 682 310 q 647 240 665 276 q 594 145 629 204 q 522 47 560 86 q 456 7 485 7 q 360 48 403 7 q 304 147 318 89 q 160 0 210 0 q 58 61 118 0 q -1 196 -1 122 q 51 367 -1 265 q 184 546 103 468 q 338 624 265 624 q 479 543 403 624 q 531 628 510 596 q 543 647 535 633 q 556 667 551 660 q 418 660 476 660 q 208 689 271 660 q 142 755 168 706 q 115 854 115 804 q 121 892 115 876 q 181 935 135 935 q 186 933 186 935 q 168 906 168 919 q 319 826 168 863 q 638 788 471 790 q 878 986 783 986 q 959 951 928 986 q 990 889 990 917 m 435 467 q 441 476 436 468 q 449 490 446 485 q 394 529 422 529 q 297 463 358 529 q 190 316 236 397 q 144 193 144 235 q 153 169 144 175 q 163 167 158 167 q 435 467 217 167 z "},"":{"ha":589,"x_min":0,"x_max":1090,"o":"m 921 993 q 1042 957 993 993 q 1090 865 1090 921 q 1018 727 1090 785 q 850 669 946 669 q 733 676 800 669 q 542 374 638 540 q 446 168 446 208 q 453 158 446 158 q 483 167 467 158 q 515 188 499 175 q 549 220 531 201 q 581 256 567 239 q 611 293 596 274 q 635 326 626 313 q 653 353 644 340 l 663 365 q 668 368 664 368 q 678 355 674 368 q 683 325 683 342 q 678 300 683 310 q 649 240 667 276 q 596 145 631 204 q 524 47 561 86 q 457 7 486 7 q 362 48 404 7 q 306 147 319 89 q 161 0 211 0 q 60 61 119 0 q 0 196 0 122 q 52 367 0 265 q 185 546 104 468 q 339 624 267 624 q 481 543 404 624 q 581 703 532 629 q 437 733 536 711 q 278 765 338 756 q 179 775 219 775 q 94 725 94 775 q 65 741 78 725 q 51 785 51 757 q 124 897 51 825 q 247 969 197 969 q 450 908 299 969 q 671 825 601 846 q 797 947 731 900 q 921 993 863 993 m 436 467 q 442 476 438 468 q 450 490 447 485 q 396 529 424 529 q 299 463 360 529 q 192 316 238 397 q 146 193 146 235 q 154 169 146 175 q 164 167 160 167 q 436 467 218 167 m 879 792 q 987 814 939 792 q 1035 869 1035 836 q 1022 899 1035 888 q 993 911 1010 911 q 825 793 928 911 q 879 792 843 792 z "},"":{"ha":1019,"x_min":0,"x_max":1015,"o":"m 992 888 q 958 818 992 854 q 876 755 924 782 q 795 712 829 728 q 744 690 761 696 q 715 647 725 663 l 692 614 q 515 319 601 478 q 428 121 428 160 q 435 110 428 110 q 635 212 468 110 q 857 314 801 314 q 964 265 913 314 q 1015 168 1015 217 q 985 115 1015 132 q 985 119 985 117 q 986 124 986 122 q 950 149 986 149 q 693 67 893 149 q 464 -15 493 -15 q 366 35 413 -15 q 306 146 319 86 q 161 0 213 0 q 60 60 119 0 q 0 194 0 121 q 52 365 0 264 q 185 544 104 467 q 339 622 267 622 q 481 543 406 622 q 504 581 486 551 q 532 626 522 611 q 544 645 536 632 q 557 665 553 658 q 419 658 478 658 q 210 688 272 658 q 143 753 169 704 q 117 853 117 803 q 122 892 117 875 q 182 933 136 933 q 188 932 188 933 q 169 904 169 918 q 320 825 169 861 q 639 786 471 789 q 879 985 785 985 q 960 950 929 985 q 992 888 992 915 m 436 465 q 442 475 438 467 q 450 489 447 483 q 396 529 422 529 q 299 463 360 529 q 192 315 238 396 q 146 192 146 233 q 154 168 146 174 q 164 165 160 165 q 436 465 218 165 z "},"":{"ha":836,"x_min":0,"x_max":1090,"o":"m 921 992 q 1042 956 993 992 q 1090 864 1090 921 q 1018 726 1090 783 q 850 668 946 668 q 732 675 797 668 q 539 377 626 532 q 451 139 451 222 q 490 74 451 88 q 510 71 497 71 q 633 157 569 71 q 697 308 697 243 q 682 347 697 336 q 706 358 689 358 q 785 315 744 358 q 826 200 826 271 q 733 18 826 114 q 536 -78 639 -78 q 387 -3 450 -78 q 306 146 324 72 q 161 0 211 0 q 60 60 119 0 q 0 194 0 121 q 52 365 0 264 q 185 545 104 467 q 339 624 267 624 q 481 543 404 624 q 581 701 547 651 q 437 732 536 710 q 278 764 338 754 q 179 774 219 774 q 94 724 94 774 q 65 740 78 724 q 51 783 51 756 q 124 896 51 824 q 247 968 197 968 q 352 944 288 968 q 510 883 417 921 q 669 824 603 844 q 921 992 806 992 m 436 465 q 442 475 438 467 q 450 489 447 483 q 396 529 422 529 q 299 463 360 529 q 192 315 238 396 q 146 192 146 233 q 154 168 146 174 q 164 165 160 165 q 436 465 218 165 m 879 790 q 987 813 939 790 q 1035 868 1035 835 q 1022 898 1035 886 q 993 910 1010 910 q 825 793 928 910 q 879 790 843 790 z "},"":{"ha":753,"x_min":18,"x_max":807,"o":"m 656 468 q 682 482 665 482 q 765 427 722 482 q 807 303 807 372 q 766 181 807 249 q 660 53 725 113 q 506 -48 596 -7 q 326 -89 415 -89 q 165 -50 239 -89 q 18 197 18 25 q 120 485 18 347 q 335 622 222 622 q 478 566 415 622 q 540 450 540 510 q 460 297 540 367 q 286 226 381 226 q 179 251 217 226 q 164 160 164 201 q 260 57 164 57 q 425 98 344 57 q 560 197 506 139 q 647 317 614 256 q 679 421 679 378 q 656 468 679 456 m 415 525 q 393 531 406 531 q 292 461 350 531 q 197 303 233 392 q 360 387 293 326 q 426 496 426 447 q 415 525 426 514 z "},"":{"ha":768,"x_min":-90,"x_max":785,"o":"m 682 425 q 751 364 718 413 q 785 267 785 315 q 735 183 785 210 q 736 196 736 188 q 659 258 736 236 q 464 279 582 279 q 257 264 364 279 q 276 156 276 217 q 210 -92 276 31 q 82 -215 144 -215 q -32 -164 26 -215 q -90 -62 -90 -112 q -42 117 -90 -7 q -56 168 -56 128 q -35 235 -56 210 q 35 285 -17 257 q 88 389 56 326 q 128 467 121 451 q 265 690 236 665 q 297 699 275 699 q 362 681 329 699 q 396 642 394 664 q 228 363 347 582 q 606 433 450 433 q 682 425 653 433 m 68 -58 q 143 -1 107 -58 q 179 142 179 57 l 179 150 q 129 165 154 154 q 57 -40 57 11 q 68 -58 57 -58 z "},"":{"ha":557,"x_min":-222,"x_max":706,"o":"m 665 -12 l 665 -10 q 676 -15 669 -11 q 694 -33 683 -18 q 706 -69 706 -49 q 643 -194 706 -115 q 508 -272 581 -272 q 285 -222 453 -272 q -11 -399 142 -399 q -124 -348 -74 -399 q -199 -235 -175 -297 q -222 -122 -222 -174 q -170 -35 -222 -76 q -67 6 -118 6 q -19 -3 -58 6 q 88 -29 19 -12 q 214 -57 156 -46 q 358 229 290 58 q 169 1 203 1 q 63 62 126 1 q 0 196 0 122 q 54 366 0 265 q 192 544 108 467 q 347 622 275 622 q 489 542 408 622 q 511 478 511 519 q 506 432 511 460 q 553 390 542 421 q 556 372 556 379 l 556 365 q 556 364 556 364 l 554 361 q 492 167 540 297 q 376 -85 444 36 q 501 -93 443 -93 q 665 -12 665 -93 m 154 156 q 161 154 156 154 q 253 227 185 154 q 377 372 321 300 q 433 450 433 444 q 440 453 436 453 l 444 453 q 449 451 447 451 l 449 465 q 404 528 449 528 q 305 458 368 528 q 194 303 242 388 q 146 178 146 218 q 154 156 146 161 m -67 -268 q 124 -171 31 -268 q -112 -110 -67 -110 q -129 -114 -125 -110 q -142 -151 -142 -126 q -119 -229 -142 -190 q -67 -268 -96 -268 z "},"":{"ha":569,"x_min":-208,"x_max":731,"o":"m 594 -60 q 691 -144 651 -71 q 731 -267 731 -217 q 730 -273 731 -269 q 729 -278 729 -276 q 715 -310 726 -297 q 694 -326 704 -324 l 686 -329 q 688 -317 688 -325 q 583 -231 688 -258 q 301 -193 478 -203 q 21 -369 164 -369 q -115 -324 -61 -369 q -169 -215 -169 -278 q -165 -186 -169 -200 q -158 -168 -164 -178 q -195 -138 -182 -160 q -208 -93 -208 -117 q -189 -49 -208 -64 q -31 -81 -161 -81 q 201 -68 51 -81 q 353 217 286 51 q 171 0 203 0 q 65 61 128 0 q 1 196 1 122 q 56 366 1 265 q 193 544 110 467 q 349 622 276 622 q 490 542 410 622 q 513 478 513 519 q 507 432 513 460 q 558 374 558 407 q 557 365 558 368 q 499 183 543 306 q 390 -56 454 60 q 492 -51 444 -51 q 594 -60 554 -51 m 156 156 q 164 153 161 153 q 291 262 199 153 q 431 446 383 371 l 433 446 q 433 447 433 447 l 435 450 q 442 453 438 453 l 444 453 q 450 451 449 451 l 450 465 q 406 528 450 528 q 306 458 369 528 q 195 303 243 388 q 147 178 147 218 q 156 156 147 161 m -32 -240 q 97 -186 29 -240 q -112 -178 -44 -183 q -86 -222 -110 -204 q -32 -240 -62 -240 z "},"":{"ha":556,"x_min":-586,"x_max":904,"o":"m 838 -140 q 886 -170 868 -149 q 904 -214 904 -192 q 897 -236 904 -226 q 314 -182 710 -182 q 18 -385 168 -385 l 15 -385 q -119 -339 -65 -385 q -174 -232 -174 -293 q -172 -214 -174 -219 q -387 -262 -269 -229 q -568 -325 -506 -294 q -586 -292 -586 -317 q -544 -194 -586 -250 q -454 -124 -503 -139 q 111 -74 -283 -74 q 199 -75 171 -74 q 349 217 282 49 q 168 1 200 1 q 59 66 119 1 q -1 194 -1 131 q 44 353 -1 254 q 174 537 90 451 q 344 622 258 622 q 488 542 407 622 q 508 478 508 521 q 503 432 508 450 q 554 374 554 407 q 553 365 554 368 q 492 169 539 301 q 376 -82 444 38 q 838 -140 685 -101 m -74 -257 q 69 -186 -6 -257 q -151 -206 -32 -192 q -122 -242 -143 -228 q -74 -257 -100 -257 m 153 157 q 161 154 158 154 q 289 263 196 154 q 428 446 382 372 l 431 446 q 431 447 431 447 l 432 450 q 439 453 435 453 l 442 453 q 447 451 446 451 l 447 465 q 403 529 447 528 q 246 388 347 529 q 144 179 144 246 q 153 157 144 164 z "},"":{"ha":843,"x_min":-42,"x_max":840,"o":"m 840 193 q 743 10 840 99 q 551 -79 646 -79 q 378 2 454 -79 q 301 171 301 83 q 333 276 301 211 q 394 393 364 342 q 425 451 425 444 q 424 453 425 453 q 326 368 407 450 q 169 183 246 286 q 92 35 92 81 q 83 11 92 22 q 61 0 74 0 q -3 31 36 0 q -42 101 -42 61 q 97 427 -42 167 q 313 796 235 688 q 376 821 331 821 q 439 805 411 821 q 467 763 467 789 q 214 346 360 625 q 518 601 435 601 q 601 565 557 601 q 644 500 644 528 q 642 490 644 496 l 615 456 q 563 385 589 422 q 506 301 536 347 q 458 210 476 254 q 439 135 439 165 q 457 90 439 104 q 503 75 474 75 q 643 145 569 75 q 717 286 717 215 q 696 346 717 319 q 725 357 707 357 q 803 310 765 357 q 840 193 840 263 z "},"":{"ha":1008,"x_min":-42,"x_max":1003,"o":"m 968 114 q 969 129 969 119 q 925 165 969 165 q 770 120 876 165 q 569 29 664 75 q 451 -17 474 -17 q 340 40 388 -17 q 292 150 292 97 q 358 326 292 204 q 425 451 425 449 q 424 453 425 453 q 326 368 407 450 q 169 183 246 286 q 92 35 92 81 q 83 11 92 22 q 61 0 74 0 q -3 31 36 0 q -42 101 -42 61 q 97 427 -42 167 q 313 796 235 688 q 376 821 331 821 q 439 805 411 821 q 467 763 467 789 q 214 346 360 625 q 518 601 435 601 q 601 565 557 601 q 644 500 644 528 q 642 490 644 496 q 521 297 606 439 q 436 122 436 156 q 442 115 436 115 q 449 117 446 115 q 621 217 458 121 q 832 313 783 313 q 947 263 892 313 q 1003 165 1003 214 q 968 114 1003 131 z "},"":{"ha":613,"x_min":-218,"x_max":718,"o":"m 697 364 q 704 368 701 368 q 718 331 718 368 q 711 296 718 314 q 665 203 697 264 q 582 75 633 143 q 497 7 531 7 q 371 65 429 7 q 313 189 313 124 q 369 347 313 244 q 426 451 426 450 q 424 453 426 453 q 326 368 407 450 q 169 183 246 286 q 92 35 92 81 q 83 11 92 22 q 61 0 74 0 q -3 31 36 0 q -42 101 -42 61 q 42 319 -42 151 q 222 653 125 488 q 85 646 143 646 q -126 675 -61 646 q -192 742 -165 693 q -218 840 -218 792 q -212 879 -218 863 q -156 922 -200 922 q -149 919 -149 922 q -167 893 -167 907 q -15 813 -167 849 q 304 774 136 776 q 544 972 451 972 l 546 972 q 626 938 594 972 q 657 875 657 903 q 596 782 657 831 q 479 707 535 733 q 408 678 424 681 q 360 604 393 654 q 214 346 288 488 q 518 601 435 601 q 601 565 557 601 q 644 500 644 528 q 642 490 644 496 q 589 412 622 463 q 514 284 556 361 q 472 179 472 207 q 486 163 472 163 q 697 364 550 163 z "},"":{"ha":613,"x_min":-274,"x_max":768,"o":"m 701 364 q 708 368 706 368 q 722 331 722 368 q 715 296 722 314 q 669 203 701 264 q 586 75 638 143 q 501 7 535 7 q 376 65 435 7 q 318 189 318 124 q 374 347 318 243 q 431 451 431 450 q 429 453 431 453 q 338 374 414 450 q 185 197 261 297 q 99 47 108 97 l 99 46 q 67 0 99 0 q -9 34 24 0 q -42 106 -42 68 q 52 344 -42 151 q 257 703 146 538 q 113 733 213 711 q -45 765 14 756 q -146 775 -104 775 q -231 725 -231 775 q -260 741 -247 725 q -274 785 -274 757 q -201 897 -274 825 q -78 969 -128 969 q 28 946 -37 969 q 186 884 94 922 q 346 826 278 846 q 597 993 483 993 q 719 958 669 993 q 768 867 768 922 q 695 728 768 786 q 526 669 622 669 q 411 676 478 669 q 207 332 303 525 q 391 522 303 442 q 522 601 479 601 q 605 565 561 601 q 649 500 649 528 q 646 490 649 496 q 593 412 626 463 q 518 284 560 361 q 476 179 476 207 q 490 163 476 163 q 701 364 554 163 m 669 913 q 501 794 606 913 q 556 792 538 792 q 663 814 615 792 q 711 871 711 836 q 699 900 711 888 q 669 913 686 913 z "},"":{"ha":1006,"x_min":-219,"x_max":1003,"o":"m 832 313 q 947 263 892 313 q 1003 165 1003 214 q 968 114 1003 131 q 969 129 969 119 q 925 165 969 165 q 770 120 876 165 q 569 29 664 75 q 451 -17 474 -17 q 340 40 388 -17 q 292 150 292 97 q 358 326 292 204 q 424 451 424 449 q 422 453 424 453 q 326 368 406 450 q 169 183 246 286 q 92 35 92 81 q 83 11 92 22 q 61 0 74 0 q -3 31 36 0 q -42 101 -42 61 q 41 318 -42 151 q 221 653 124 485 q 83 646 142 646 q -128 675 -64 646 q -193 742 -167 693 q -219 840 -219 792 q -214 879 -219 863 q -157 922 -201 922 q -150 919 -150 922 q -168 893 -168 907 q -17 813 -168 849 q 303 774 135 776 q 543 972 450 972 l 544 972 q 624 938 593 972 q 656 875 656 903 q 594 782 656 831 q 478 707 533 733 q 407 678 422 681 q 393 657 404 674 q 376 631 382 640 q 214 346 285 483 q 517 601 435 601 q 599 565 556 601 q 643 500 643 528 q 640 490 643 496 q 521 298 606 440 q 436 122 436 156 q 442 115 436 115 q 449 117 446 115 q 619 216 456 119 q 832 313 782 313 z "},"":{"ha":835,"x_min":-274,"x_max":843,"o":"m 699 346 q 729 356 710 356 q 806 308 769 356 q 843 190 843 261 q 745 10 843 99 q 556 -79 647 -79 q 383 2 460 -79 q 307 171 307 83 q 369 338 307 225 q 431 451 431 450 q 429 453 431 453 q 338 374 414 450 q 185 197 261 297 q 99 47 108 97 l 99 46 q 92 18 99 29 q 78 3 85 7 q 67 0 71 0 q -10 33 21 0 q -42 106 -42 67 q 52 344 -42 151 q 257 703 146 538 q 113 733 213 711 q -45 765 14 756 q -146 775 -104 775 q -231 725 -231 775 q -260 741 -247 725 q -274 785 -274 757 q -201 897 -274 825 q -78 969 -128 969 q 28 946 -37 969 q 186 884 94 922 q 346 826 278 846 q 597 993 483 993 q 719 958 669 993 q 768 867 768 922 q 695 728 768 786 q 526 669 622 669 q 411 676 478 669 q 206 331 301 521 q 390 521 300 440 q 522 601 479 601 q 605 565 561 601 q 649 500 649 528 q 646 490 649 496 q 626 464 644 489 q 586 411 607 439 q 539 344 565 383 q 492 269 513 304 q 458 197 472 233 q 444 135 444 160 q 463 90 444 104 q 510 75 482 75 q 647 147 576 75 q 718 289 718 219 q 699 346 718 319 m 669 913 q 501 794 606 913 q 556 792 538 792 q 663 814 615 792 q 711 871 711 836 q 699 900 711 888 q 669 913 686 913 z "},"":{"ha":525,"x_min":-17,"x_max":504,"o":"m 131 86 q 163 81 143 81 q 307 153 232 81 q 382 293 382 225 q 357 350 382 328 q 386 363 367 363 q 465 317 426 363 q 504 200 504 272 q 408 17 504 107 q 214 -72 311 -72 q 58 10 132 -72 q -17 188 -17 92 q 72 401 -17 242 q 199 589 161 560 q 225 596 208 596 q 300 575 261 596 q 339 529 339 554 q 192 315 269 450 q 115 118 115 179 q 131 86 115 92 m 490 750 q 429 676 490 729 q 340 621 368 622 l 339 621 q 308 638 324 621 q 292 674 293 654 l 292 678 q 313 755 292 707 q 353 811 333 803 q 386 817 368 817 q 457 795 424 817 q 490 750 490 774 z "},"":{"ha":710,"x_min":-26,"x_max":697,"o":"m 124 121 q 328 219 150 121 q 546 318 506 318 q 650 268 603 318 q 697 169 697 218 q 671 121 697 138 q 635 149 671 149 q 388 68 582 149 q 151 -12 194 -12 q 32 55 90 -12 q -26 190 -26 122 q 68 399 -26 243 q 201 586 163 556 q 228 593 211 593 q 301 572 263 593 q 340 526 340 551 q 192 315 272 449 q 113 136 113 181 q 124 121 113 121 m 492 747 q 431 673 492 726 q 342 618 369 619 l 340 618 q 310 635 325 618 q 293 671 294 651 l 293 675 q 314 752 293 704 q 354 808 335 800 q 388 814 369 814 q 458 792 425 814 q 492 747 492 771 z "},"":{"ha":281,"x_min":-539,"x_max":504,"o":"m 504 764 l 504 763 q 452 688 504 739 q 375 635 400 636 l 374 635 q 340 651 358 635 q 318 688 322 668 q 317 706 317 692 q 330 778 317 738 q 358 825 343 818 q 390 831 371 831 q 465 809 428 831 q 504 764 501 788 m 351 -1 l 351 1 q 363 -3 356 0 q 381 -22 369 -7 q 392 -58 392 -37 q 329 -183 392 -104 q 194 -261 267 -261 q -46 -206 133 -261 q -326 -387 -187 -387 q -440 -337 -389 -387 q -515 -224 -492 -286 q -539 -111 -539 -162 q -487 -24 -539 -65 q -383 17 -435 17 q -339 8 -375 17 q -237 -15 -303 0 q -118 -42 -171 -31 q 25 222 -54 54 q 99 420 36 297 q 189 569 161 543 q 240 588 207 588 q 318 563 281 588 q 356 507 356 538 q 288 403 332 492 q 174 172 243 315 q 46 -71 106 28 q 189 -82 126 -82 q 351 -1 351 -82 m -383 -258 q -204 -157 -296 -258 q -431 -97 -393 -97 q -446 -101 -442 -97 q -458 -140 -458 -114 q -435 -219 -458 -179 q -383 -258 -412 -258 z "},"":{"ha":278,"x_min":-600,"x_max":490,"o":"m 490 767 l 490 765 q 438 690 490 742 q 361 638 386 639 l 360 638 q 326 654 344 638 q 304 690 308 671 q 303 708 303 694 q 316 781 303 740 q 344 828 329 821 q 376 833 357 833 q 451 812 414 833 q 490 767 488 790 m 206 -76 q 278 -126 246 -85 q 326 -212 311 -168 q 342 -286 342 -257 l 342 -296 q 326 -328 338 -315 q 306 -344 315 -342 l 297 -347 q 299 -335 299 -343 q -40 -212 299 -239 q -339 -418 -183 -418 q -479 -371 -428 -418 q -531 -264 -531 -324 q -503 -194 -531 -215 q -546 -186 -531 -193 q -585 -156 -571 -178 q -600 -111 -600 -135 q -579 -65 -600 -82 q -418 -97 -551 -97 q -146 -82 -357 -97 q 7 226 -76 31 q 48 352 10 268 q 122 499 86 436 l 160 561 q 215 589 178 589 q 297 562 257 589 q 338 508 338 535 q 260 392 303 481 q 155 162 217 304 q 46 -69 93 19 l 100 -69 q 206 -76 171 -69 m -393 -289 q -237 -204 -318 -289 q -471 -197 -410 -201 q -465 -235 -469 -217 q -441 -271 -460 -253 q -393 -289 -422 -289 z "},"":{"ha":292,"x_min":-915,"x_max":581,"o":"m 374 638 l 372 638 q 339 654 357 638 q 317 690 321 671 q 315 708 315 694 q 328 781 315 740 q 357 828 342 821 q 389 833 369 833 q 463 812 426 833 q 503 767 500 790 l 503 765 q 451 690 503 742 q 374 638 399 639 m 514 -143 q 563 -176 546 -154 q 581 -219 581 -199 q 572 -239 581 -235 q 3 -189 289 -189 l -21 -189 q -318 -387 -162 -387 q -458 -340 -407 -387 q -510 -233 -510 -293 l -510 -226 q -897 -328 -756 -265 q -915 -294 -915 -322 q -877 -199 -915 -253 q -783 -126 -839 -146 q -226 -76 -635 -76 q -181 -77 -211 -76 q -136 -78 -151 -78 q 21 226 -61 32 q 62 352 24 268 q 136 499 100 436 l 172 561 q 228 589 190 589 q 310 562 269 589 q 350 508 350 535 q 269 386 314 481 q 160 149 224 292 q 46 -85 97 7 q 514 -143 383 -101 m -397 -258 q -260 -196 -329 -258 q -462 -215 -357 -201 q -397 -258 -442 -258 z "},"":{"ha":644,"x_min":-42,"x_max":625,"o":"m 618 36 q 625 17 625 26 q 574 -57 625 -19 q 453 -94 522 -94 q 431 -93 438 -94 q 300 6 367 -87 q 190 204 233 99 q 92 43 101 100 l 92 35 q 83 11 92 22 q 63 0 75 0 q -3 30 36 0 q -42 100 -42 60 q 96 425 -42 165 q 311 793 233 685 q 375 818 329 818 q 438 802 410 818 q 465 760 465 786 q 168 283 278 513 q 364 498 271 410 q 500 586 457 586 q 580 543 542 586 q 618 476 618 500 q 613 469 618 469 q 606 471 608 469 q 583 475 597 475 q 452 424 536 475 q 276 289 368 374 q 401 107 310 197 q 565 17 493 17 q 618 36 597 17 z "},"":{"ha":556,"x_min":-211,"x_max":664,"o":"m 626 360 q 631 361 628 361 q 644 351 638 361 q 651 324 651 340 q 649 301 651 310 q 552 124 632 244 q 408 3 472 3 q 296 71 347 3 q 210 225 244 139 q 93 53 111 121 l 93 43 q 64 0 93 0 q -5 33 32 0 q -42 101 -42 65 q 39 319 -42 149 q 224 654 119 489 q 88 647 147 647 q -119 676 -57 647 q -185 744 -158 694 q -211 842 -211 793 q -206 881 -211 864 q -149 922 -192 922 q -142 921 -142 922 q -160 893 -160 907 q -10 814 -160 850 q 306 775 139 778 q 511 965 425 936 q 551 974 532 974 q 632 939 600 974 q 664 876 664 904 q 603 785 664 833 q 490 713 542 738 q 406 678 439 689 q 175 293 269 492 q 367 502 276 417 q 500 588 458 588 q 580 544 542 588 q 618 478 618 501 q 613 471 618 471 q 606 472 608 471 q 583 476 597 476 q 453 426 536 476 q 275 290 369 375 q 340 209 288 261 q 428 157 393 157 q 626 360 488 157 z "},"":{"ha":556,"x_min":-274,"x_max":767,"o":"m 596 992 q 717 956 668 992 q 767 865 767 921 q 694 726 767 785 q 525 668 621 668 q 410 675 476 668 q 179 292 272 479 q 373 501 282 415 q 506 586 464 586 q 584 543 546 586 q 622 476 622 500 q 617 469 622 469 q 610 471 613 469 q 589 475 601 475 q 458 424 542 475 q 281 289 375 374 q 346 208 293 260 q 433 156 399 156 q 631 358 492 156 q 635 360 632 360 q 649 349 642 360 q 656 322 656 339 q 653 300 656 308 q 557 122 636 242 q 414 1 478 1 q 301 69 353 1 q 214 224 250 136 q 97 50 115 121 l 97 44 q 75 1 97 8 q 67 0 72 0 l 63 0 q -6 36 29 3 q -42 106 -42 69 q 51 343 -42 150 q 256 701 144 536 q 113 732 213 710 q -46 764 13 754 q -146 774 -104 774 q -231 724 -231 774 q -260 740 -247 724 q -274 783 -274 756 q -201 896 -274 824 q -78 968 -128 968 q 28 944 -37 968 q 185 883 93 921 q 346 824 278 844 q 472 945 406 899 q 596 992 538 992 m 556 790 q 663 813 615 790 q 710 869 710 836 q 697 899 710 886 q 668 911 685 911 q 500 793 604 911 q 556 790 536 790 z "},"":{"ha":647,"x_min":-210,"x_max":665,"o":"m 372 631 q 167 283 238 429 q 365 499 272 411 q 499 586 457 586 q 578 543 540 586 q 617 476 617 500 q 611 469 617 469 q 604 471 607 469 q 582 475 596 475 q 451 424 535 475 q 275 289 368 374 q 400 107 308 197 q 564 17 492 17 q 617 36 596 17 q 624 17 624 26 q 573 -57 624 -19 q 453 -94 522 -94 q 431 -93 438 -94 q 300 5 367 -87 q 189 204 233 97 q 90 43 103 103 l 90 35 q 82 11 90 22 q 61 0 74 0 q -4 30 35 0 q -43 100 -43 60 q 42 322 -43 150 q 224 656 126 493 q 88 649 147 649 q -118 678 -56 649 q -183 745 -157 696 q -210 843 -210 794 q -204 882 -210 865 q -147 924 -190 924 q -140 922 -140 924 q -158 894 -158 908 q -9 815 -158 851 q 307 776 140 779 q 513 967 426 938 q 553 975 533 975 q 633 940 601 975 q 665 878 665 906 q 604 787 665 835 q 492 715 543 739 q 407 679 440 690 q 391 657 403 674 q 372 631 379 640 z "},"":{"ha":647,"x_min":-278,"x_max":763,"o":"m 521 672 q 407 679 474 672 q 168 285 257 468 q 366 500 274 413 q 501 588 458 588 q 580 544 542 588 q 618 478 618 501 q 613 471 618 471 q 606 472 608 471 q 585 476 597 476 q 453 426 538 476 q 276 290 369 375 q 402 108 310 199 q 567 18 494 18 q 619 38 599 18 q 626 18 626 28 q 575 -56 626 -18 q 454 -93 524 -93 q 432 -92 439 -93 q 301 6 368 -86 q 190 206 235 99 q 92 44 103 100 l 92 36 q 83 13 92 24 q 63 1 75 1 q -2 31 36 1 q -40 101 -40 61 q 58 351 -40 156 q 254 707 157 547 q 142 731 214 715 q 28 754 71 746 q -65 770 -14 763 q -147 778 -115 778 q -235 728 -235 778 q -265 744 -251 728 q -278 788 -278 760 q -205 900 -278 828 q -82 972 -132 972 q 24 949 -42 972 q 181 887 89 925 q 342 828 274 849 q 468 949 401 903 q 593 996 535 996 q 714 960 665 996 q 763 869 763 925 q 690 730 763 788 q 521 672 618 672 m 664 915 q 496 797 600 915 q 551 794 532 794 q 658 817 611 794 q 706 874 706 840 q 694 903 706 890 q 664 915 682 915 z "},"":{"ha":388,"x_min":4,"x_max":542,"o":"m 271 429 q 240 375 264 418 q 203 310 215 332 q 175 253 192 288 q 151 191 158 218 q 143 142 143 164 q 163 94 143 114 q 204 75 183 75 q 343 151 267 75 q 419 294 419 228 q 399 344 419 324 q 421 353 406 353 q 501 309 460 353 q 542 193 542 265 q 447 21 542 117 q 253 -75 353 -75 q 87 7 169 -75 q 4 186 4 89 q 145 518 4 279 q 374 808 286 757 q 407 817 386 817 q 469 801 439 817 q 500 763 500 785 q 435 588 500 688 q 271 429 369 489 z "},"":{"ha":699,"x_min":1,"x_max":694,"o":"m 242 424 q 111 128 111 192 q 118 111 111 114 q 125 110 119 110 q 326 213 154 110 q 538 315 497 315 q 644 263 593 315 q 694 161 694 210 q 674 119 694 133 q 629 157 674 157 q 378 72 571 157 q 147 -14 186 -14 q 44 47 88 -14 q 1 178 1 107 q 140 512 1 267 q 346 808 278 757 q 379 817 358 817 q 443 800 413 817 q 474 761 474 783 q 403 597 474 694 q 242 424 333 500 z "},"":{"ha":314,"x_min":-192,"x_max":672,"o":"m 672 874 q 614 783 672 831 q 503 711 556 736 q 428 679 451 686 l 396 632 q 324 521 364 585 q 242 388 283 457 q 172 258 200 318 q 143 171 143 197 q 158 153 143 153 q 196 163 175 153 q 237 191 217 174 q 277 228 257 208 q 315 270 297 247 q 346 309 333 293 q 369 340 358 325 q 381 356 381 354 q 386 358 383 358 q 404 340 394 358 q 414 304 414 322 q 411 290 414 299 q 381 232 403 271 q 321 138 358 193 q 238 42 283 82 q 153 3 192 3 q 59 43 101 3 q 4 142 17 83 q 1 163 1 147 q 63 342 1 218 q 176 550 124 465 q 243 654 229 635 q 106 647 164 647 q -101 676 -39 647 q -165 742 -139 694 q -192 839 -192 790 q -186 876 -192 860 q -128 919 -175 919 q -122 918 -122 919 q -140 890 -140 904 q 9 812 -140 847 q 324 774 158 776 q 561 969 467 969 q 641 935 610 969 q 672 874 672 901 z "},"":{"ha":314,"x_min":-257,"x_max":771,"o":"m 603 974 q 722 938 674 974 q 771 847 771 903 q 699 710 771 768 q 532 653 628 653 q 418 661 496 653 q 232 370 324 529 q 140 165 140 211 q 149 150 140 153 q 160 149 153 149 q 197 159 176 149 q 238 187 218 169 q 278 224 258 204 q 316 267 297 244 q 347 306 335 289 q 371 337 360 322 q 382 353 382 351 q 388 356 385 356 q 406 337 396 356 q 415 300 415 318 q 413 286 415 294 q 298 119 390 238 q 153 0 206 0 q 59 44 103 0 q 4 139 15 89 q 1 157 1 150 q 63 344 1 219 q 168 531 124 468 q 265 686 232 635 q 124 717 222 694 q -32 749 26 739 q -131 758 -90 758 q -214 708 -214 758 q -244 724 -231 708 q -257 768 -257 740 q -185 878 -257 807 q -64 950 -114 950 q 41 926 -24 950 q 197 865 106 903 q 354 808 288 828 q 603 974 489 974 m 561 774 q 668 797 621 774 q 715 853 715 819 q 703 881 715 869 q 674 893 690 893 q 508 776 608 893 q 561 774 544 774 z "},"":{"ha":597,"x_min":-210,"x_max":676,"o":"m 654 869 q 596 779 654 826 q 485 707 538 732 q 410 675 433 682 l 375 622 q 298 499 342 569 q 208 353 254 429 q 132 212 163 276 q 101 122 101 147 q 113 107 101 107 q 311 207 142 107 q 519 307 481 307 q 623 255 569 307 q 676 157 676 203 q 656 115 676 132 q 613 153 656 153 q 367 68 556 153 q 135 -17 178 -17 q 42 31 85 -17 q -14 138 0 78 q -17 158 -17 151 q 225 650 -17 288 q 88 643 146 643 q -119 672 -57 643 q -183 738 -157 690 q -210 835 -210 786 q -204 872 -210 856 q -146 915 -193 915 q -140 914 -140 915 q -158 886 -158 900 q -9 808 -158 843 q 306 769 140 772 q 543 965 449 965 q 623 931 592 965 q 654 869 654 897 z "},"":{"ha":572,"x_min":-240,"x_max":788,"o":"m 619 986 q 739 951 690 986 q 788 861 788 915 q 716 724 788 781 q 549 667 644 667 q 432 674 497 667 q 143 144 143 281 q 178 79 143 97 q 207 72 192 72 q 344 151 269 72 q 419 296 419 231 q 400 342 419 326 q 424 351 410 351 q 502 309 463 351 q 542 196 542 267 q 442 17 542 111 q 239 -78 342 -78 q 86 5 164 -78 q 8 179 8 88 q 48 312 8 226 q 128 463 88 397 q 225 613 169 529 q 282 699 281 697 q 141 729 239 707 q -15 761 43 751 q -114 771 -74 771 q -197 721 -197 771 q -227 737 -214 721 q -240 781 -240 753 q -169 892 -240 821 q -47 963 -97 963 q 58 939 -7 963 q 213 878 122 915 q 371 821 304 840 q 619 986 504 986 m 578 788 q 685 810 638 788 q 732 865 732 832 q 719 894 732 882 q 690 906 707 906 q 525 789 625 906 q 578 788 543 788 z "},"":{"ha":1156,"x_min":-46,"x_max":1146,"o":"m 1146 194 q 1054 17 1146 113 q 851 -79 963 -79 q 688 15 757 -79 q 618 188 618 110 q 656 299 618 228 q 731 429 693 371 q 768 494 768 488 q 767 496 768 496 q 675 431 750 494 q 528 283 600 367 q 456 153 456 199 q 465 146 458 146 q 428 104 465 104 q 356 141 390 104 q 322 203 322 178 q 360 317 322 243 q 435 452 397 392 q 474 519 474 513 q 472 521 474 521 q 368 419 457 519 q 194 199 279 319 q 110 33 110 79 l 111 31 q 111 26 111 28 q 101 8 111 15 q 79 0 92 0 q -8 28 31 0 q -46 100 -46 56 q 69 356 -46 149 q 185 608 185 564 q 210 629 185 629 q 283 601 243 629 q 322 544 322 574 q 304 497 322 529 q 249 403 286 464 q 189 301 211 342 q 383 526 286 429 q 529 624 479 624 q 612 587 568 624 q 656 524 656 550 q 653 514 656 519 q 590 421 622 468 q 808 585 735 585 q 891 548 847 585 q 935 485 935 511 q 932 475 935 481 q 747 124 747 214 q 763 86 747 97 q 807 72 782 72 q 944 151 874 72 q 1015 296 1015 229 q 996 347 1015 329 q 1021 357 1006 357 q 1103 311 1061 357 q 1146 194 1146 265 z "},"":{"ha":1338,"x_min":-46,"x_max":1324,"o":"m 1303 114 q 1261 147 1303 147 q 1015 65 1206 147 q 783 -17 825 -17 q 668 51 718 -17 q 618 188 618 118 q 656 299 618 228 q 731 429 693 371 q 768 494 768 488 q 767 496 768 496 q 675 433 750 494 q 527 288 600 371 q 454 160 454 206 q 465 146 454 146 q 426 125 456 125 q 357 149 392 125 q 322 203 322 174 q 360 317 322 243 q 435 452 397 392 q 474 519 474 513 q 472 521 474 521 q 368 419 457 519 q 194 199 279 319 q 110 33 110 79 q 111 26 111 32 q 101 8 111 17 q 79 0 90 0 q -8 28 31 0 q -46 100 -46 56 q 69 356 -46 149 q 185 608 185 564 q 210 629 185 629 q 283 601 243 629 q 322 544 322 574 q 304 497 322 529 q 249 403 286 464 q 189 301 211 342 q 383 526 286 429 q 529 624 479 624 q 612 587 568 624 q 656 524 656 550 q 653 514 656 519 q 590 421 622 468 q 808 585 735 585 q 891 548 847 585 q 935 485 935 511 q 932 475 935 481 q 875 389 913 447 q 792 246 838 331 q 746 132 746 161 q 758 117 746 117 q 871 165 786 117 q 1046 263 956 214 q 1179 313 1136 313 q 1274 262 1224 313 q 1324 163 1324 211 q 1303 114 1324 133 z "},"":{"ha":869,"x_min":-46,"x_max":868,"o":"m 868 208 q 765 22 868 118 q 550 -74 661 -74 q 396 1 471 -74 q 321 168 321 75 q 356 278 321 208 q 426 406 390 349 q 461 469 461 463 q 460 471 461 471 q 359 382 444 469 q 192 186 274 294 q 110 33 110 78 q 111 26 111 31 q 101 8 111 17 q 81 0 92 0 q -8 28 31 0 q -46 100 -46 56 q 69 355 -46 149 q 183 604 183 561 q 208 625 183 625 q 281 597 242 625 q 321 540 321 569 q 300 487 321 525 q 238 383 279 449 q 172 272 197 318 q 386 510 278 403 q 547 618 494 618 q 630 581 586 618 q 674 518 674 544 q 671 508 674 514 q 649 479 669 507 q 606 422 628 451 q 556 348 585 392 q 504 266 526 304 q 467 189 482 228 q 451 125 451 150 q 467 91 451 106 q 501 76 483 76 q 655 160 568 76 q 742 314 742 243 q 724 364 742 344 q 746 372 732 372 q 826 325 785 372 q 868 208 868 278 z "},"":{"ha":1058,"x_min":-46,"x_max":1039,"o":"m 1019 113 q 975 126 1007 126 q 717 54 907 126 q 503 -18 526 -18 q 384 50 438 -18 q 331 186 331 118 q 363 291 331 225 q 428 410 396 357 q 461 468 461 463 q 460 469 461 469 q 359 381 444 468 q 192 185 274 293 q 110 32 110 76 q 111 25 111 29 q 101 7 111 15 q 81 -1 92 -1 q -8 26 31 -1 q -46 99 -46 54 q 69 353 -46 147 q 183 603 183 558 q 208 624 183 624 q 281 596 242 624 q 321 539 321 568 q 300 485 321 524 q 238 382 279 447 q 172 271 197 317 q 386 509 278 401 q 547 617 494 617 q 630 580 586 617 q 674 517 674 543 q 671 507 674 513 q 461 128 461 192 q 471 115 461 115 q 672 213 506 115 q 892 311 839 311 q 988 261 936 311 q 1039 161 1039 211 q 1019 113 1039 132 z "},"":{"ha":751,"x_min":-8,"x_max":765,"o":"m 676 463 q 683 464 678 464 q 736 431 707 464 q 765 340 765 399 q 646 193 765 257 q 428 126 526 129 l 422 126 q 324 31 376 67 q 224 -6 271 -4 l 218 -6 q 74 49 153 -6 q -8 163 -4 103 l -8 183 q 37 370 -8 275 q 119 497 82 465 q 133 504 125 503 q 210 594 158 558 q 328 632 263 629 l 336 632 q 468 582 403 632 q 536 482 533 532 q 537 468 536 478 q 538 453 538 458 q 488 233 538 346 q 624 328 561 267 q 686 433 686 389 q 676 463 686 451 m 378 554 q 363 556 372 556 q 247 465 289 556 q 257 447 256 458 q 231 414 239 428 q 226 371 226 393 q 317 224 226 261 q 390 357 361 283 q 419 485 419 431 q 378 554 419 549 m 157 131 q 175 129 163 129 q 269 172 219 129 q 174 253 215 203 q 158 272 164 261 q 135 172 135 213 q 157 131 135 135 z "},"":{"ha":1025,"x_min":-146,"x_max":997,"o":"m 828 385 q 900 376 871 385 q 963 310 929 368 q 997 215 997 251 l 997 210 q 979 174 994 186 q 951 161 964 161 q 949 163 949 161 q 742 228 949 228 q 535 215 643 228 q 419 58 482 121 q 297 -4 356 -4 q 217 93 239 -4 q 214 124 214 103 q 286 242 214 203 q 400 290 335 267 q 463 472 463 406 q 436 510 463 510 q 310 367 417 510 q 103 52 204 224 q 3 -182 3 -119 q 10 -204 3 -194 q 14 -212 14 -208 q -22 -232 14 -232 q -109 -207 -72 -232 q -146 -139 -146 -182 q 17 242 -146 -90 q 181 617 181 574 q 207 638 181 638 q 279 610 240 638 q 318 553 318 583 q 307 519 318 543 q 273 449 296 494 q 235 371 250 404 q 263 409 243 382 q 292 448 283 436 q 319 482 301 460 q 347 515 338 504 q 372 543 357 526 q 398 568 388 560 q 420 585 408 576 q 443 598 432 594 q 464 601 454 601 q 563 553 513 601 q 614 450 614 506 q 594 350 614 408 q 828 385 738 385 z "},"":{"ha":994,"x_min":3,"x_max":965,"o":"m 819 79 q 915 28 865 79 q 965 -71 965 -22 q 944 -119 965 -99 q 904 -89 944 -89 q 626 -183 842 -89 q 367 -282 410 -276 l 360 -282 q 261 -236 318 -282 q 204 -146 204 -190 q 205 -141 204 -144 q 206 -136 206 -137 q 365 219 221 -60 q 172 -3 222 -3 q 66 58 129 -3 q 3 193 3 119 q 58 365 3 263 q 198 545 113 467 q 356 624 283 624 q 528 518 432 624 q 569 589 564 585 q 592 597 575 597 q 662 572 622 597 q 701 524 701 546 q 697 511 701 517 q 512 191 663 467 q 361 -149 361 -85 q 369 -165 361 -164 l 374 -165 q 585 -43 399 -165 q 819 79 772 79 m 158 150 q 167 147 164 147 q 490 469 229 147 q 414 528 443 528 q 313 457 378 528 q 199 300 249 386 q 150 172 150 214 q 158 150 150 156 z "},"":{"ha":556,"x_min":-57,"x_max":629,"o":"m 629 524 q 626 514 629 517 l 603 481 q 563 417 581 446 q 528 353 544 389 q 511 300 511 318 q 526 276 511 285 q 560 267 542 267 q 490 226 532 226 q 424 258 453 226 q 394 335 394 289 q 436 478 394 388 q 215 237 331 382 q 97 33 99 92 l 97 31 l 99 28 q 88 9 99 18 q 67 0 78 0 q -19 28 19 0 q -57 99 -57 57 q 57 353 -57 147 q 171 600 171 558 q 197 621 171 621 q 268 594 229 621 q 307 536 307 567 q 287 485 307 521 q 226 383 267 449 q 161 275 185 318 q 511 614 425 614 q 589 581 549 614 q 629 524 629 549 z "},"":{"ha":793,"x_min":-125,"x_max":783,"o":"m 624 381 q 736 321 689 381 q 783 204 783 261 q 751 149 783 158 q 750 156 751 151 q 742 170 749 160 q 724 188 735 181 q 693 203 714 196 q 644 210 672 210 q 336 179 519 210 q 339 113 339 132 q 265 -60 339 7 q 101 -128 192 -128 q -54 -69 14 -128 q -125 68 -122 -11 l -125 74 q -69 181 -125 146 q -72 200 -72 194 q -57 238 -72 225 q 0 224 -37 224 q 175 258 53 224 q 140 376 150 342 q 82 269 115 328 q 67 263 78 263 q 38 271 53 263 q 22 289 22 279 q 24 293 22 292 q 124 501 101 419 q 160 581 131 542 q 228 621 189 621 q 321 593 276 621 q 326 622 321 613 q 410 650 342 650 q 472 628 472 650 q 469 619 472 622 q 424 447 424 558 l 424 424 q 421 401 424 404 q 408 394 415 394 q 342 497 376 394 q 319 407 319 453 q 325 308 319 357 q 624 381 539 381 m 201 19 q 209 27 201 19 q 217 67 217 36 q 203 157 217 97 q 8 131 61 131 q 69 43 22 85 q 157 1 117 1 q 201 19 185 1 z "},"":{"ha":583,"x_min":1,"x_max":590,"o":"m 539 692 q 574 656 558 686 q 590 608 590 626 q 585 600 590 600 l 582 601 q 381 621 550 618 q 298 488 347 569 q 189 287 249 407 q 129 118 129 167 q 139 92 129 100 q 188 76 160 76 q 328 156 256 76 q 400 301 400 236 q 375 350 400 336 q 399 358 381 358 q 478 317 438 358 q 519 204 519 275 q 424 22 519 115 q 229 -71 328 -71 q 74 15 147 -71 q 1 178 1 100 q 19 249 1 204 q 76 369 36 294 q 140 484 117 444 q 217 617 163 524 q 111 600 126 606 q 87 624 99 604 q 75 661 75 643 q 100 692 75 686 q 269 701 135 699 q 350 811 313 768 q 379 819 358 819 q 451 804 413 819 q 490 774 490 789 q 486 765 490 769 q 435 701 460 736 q 539 692 515 699 z "},"":{"ha":306,"x_min":-203,"x_max":718,"o":"m 458 740 q 581 726 532 726 q 707 775 674 726 q 718 750 718 764 q 681 688 718 721 q 592 646 644 656 q 535 640 569 640 q 401 653 489 640 q 228 352 307 503 q 149 158 149 201 q 158 144 149 144 q 381 357 236 144 q 385 360 382 360 q 402 342 393 360 q 411 306 411 324 q 408 290 411 299 q 304 121 388 239 q 168 3 221 3 q 53 56 106 3 q 1 175 1 110 q 79 374 1 224 q 254 679 157 524 q -46 719 29 719 q -178 667 -157 719 q -203 707 -203 674 q -149 805 -203 743 q -54 867 -94 867 q 25 857 -24 867 q 108 838 74 847 q 216 806 142 828 q 317 776 290 785 q 382 864 363 849 q 411 871 389 871 q 483 856 444 871 q 521 826 521 842 q 518 819 521 822 q 458 740 499 803 z "},"":{"ha":318,"x_min":0,"x_max":986,"o":"m 847 833 q 937 766 888 831 q 986 663 986 701 l 986 660 q 979 635 986 644 q 965 622 972 625 l 958 621 q 779 686 939 686 q 669 681 729 686 q 520 666 610 676 q 400 653 431 656 q 226 352 306 503 q 147 158 147 201 q 157 144 147 144 q 379 357 235 144 q 383 360 381 360 q 401 342 392 360 q 410 306 410 324 q 407 290 410 299 q 303 121 386 239 q 167 3 219 3 q 52 56 104 3 q 0 175 0 110 q 233 647 0 264 q 169 657 193 650 q 84 705 118 671 q 50 769 50 739 q 63 797 50 786 q 218 738 99 738 q 292 742 253 738 q 381 864 358 844 q 410 871 388 871 q 482 856 443 871 q 521 828 521 842 q 517 819 521 824 q 481 774 506 811 q 555 790 503 779 q 634 808 607 801 q 701 821 661 814 q 769 831 740 828 q 824 835 799 835 q 836 834 828 835 q 847 833 844 833 z "},"":{"ha":539,"x_min":-206,"x_max":715,"o":"m 456 740 q 578 726 529 726 q 706 775 672 726 q 715 751 715 765 q 679 688 715 721 q 590 646 643 656 q 532 640 568 640 q 399 653 486 640 q 215 332 299 496 q 131 113 131 168 q 138 92 131 99 q 186 76 158 76 q 326 156 254 76 q 399 301 399 236 q 374 350 399 336 q 397 358 381 358 q 477 317 436 358 q 518 204 518 275 q 422 22 518 115 q 228 -71 326 -71 q 73 15 146 -71 q 0 178 0 100 q 76 379 0 232 q 250 679 153 526 q -49 719 29 719 q -181 667 -160 719 q -206 707 -206 674 q -151 805 -206 743 q -57 867 -97 867 q 22 857 -26 867 q 105 838 71 847 q 213 806 139 828 q 314 776 288 785 q 379 864 363 850 q 408 871 389 871 q 481 856 442 871 q 519 828 519 842 q 515 819 519 824 q 456 740 499 803 z "},"":{"ha":556,"x_min":0,"x_max":983,"o":"m 843 833 q 933 765 882 831 q 983 663 983 700 l 983 660 q 975 635 982 644 q 961 622 968 625 l 954 621 q 774 686 935 686 q 663 681 725 686 q 519 667 601 676 q 399 654 438 658 q 215 332 299 494 q 132 113 132 169 q 139 92 132 97 q 188 76 160 76 q 328 157 256 76 q 400 301 400 238 q 375 350 400 336 q 397 358 381 358 q 477 317 436 358 q 518 204 518 275 q 423 22 518 115 q 228 -71 328 -71 q 73 15 146 -71 q 0 178 0 100 q 231 647 0 276 q 167 657 190 650 q 81 706 115 671 q 46 771 46 740 q 58 797 46 786 q 214 738 94 738 q 290 742 250 738 q 379 864 364 853 q 408 871 389 871 q 481 856 442 871 q 519 828 519 842 q 515 819 519 824 q 479 775 504 808 q 572 794 507 781 q 669 815 636 808 q 746 828 701 822 q 821 835 790 835 q 832 834 825 835 q 843 833 839 833 z "},"":{"ha":318,"x_min":-521,"x_max":644,"o":"m 631 775 q 644 751 644 775 q 608 703 644 731 q 504 656 572 675 q 392 639 463 643 q 224 345 300 492 q 149 158 149 199 q 157 144 149 144 q 381 357 236 144 q 385 360 382 360 q 402 342 393 360 q 411 306 411 324 q 408 290 411 299 q 303 120 388 238 q 167 3 219 3 q 53 56 106 3 q 1 175 1 110 q 225 633 1 263 q -169 657 31 635 q -429 708 -368 679 q -518 839 -490 738 q -521 857 -521 853 q -507 881 -521 881 q -506 881 -506 881 l -503 879 q -474 867 -490 872 q -121 773 -329 815 q 281 725 88 731 l 282 725 q 381 864 356 842 q 410 871 388 871 q 482 856 443 871 q 521 828 521 842 q 517 819 521 824 q 450 729 501 806 q 603 754 532 736 q 620 766 613 757 q 631 775 628 775 z "},"":{"ha":318,"x_min":-340,"x_max":1143,"o":"m 1124 908 q 1143 871 1143 901 q 1108 778 1143 828 q 1011 708 1072 729 q 463 660 874 660 l 404 660 q 228 355 310 508 q 147 158 147 201 q 157 144 147 144 q 381 357 236 144 q 385 360 382 360 q 401 342 392 360 q 410 306 410 324 q 407 290 410 299 q 360 202 399 268 q 263 69 321 136 q 167 3 204 3 q 52 56 104 3 q 0 175 0 110 q 74 365 0 221 q 243 664 147 508 q -275 724 -132 678 q -324 756 -307 735 q -340 797 -340 776 q -335 818 -340 811 q 288 760 -69 760 l 304 760 q 381 864 364 849 q 410 871 388 871 q 482 856 443 871 q 521 828 521 842 q 517 819 521 824 q 475 765 503 806 q 1124 908 860 789 z "},"":{"ha":840,"x_min":0,"x_max":843,"o":"m 843 199 q 733 20 843 115 q 540 -75 624 -75 q 403 -11 469 -75 q 313 136 336 53 q 175 1 229 1 q 57 62 114 1 q 0 188 0 122 q 81 397 0 242 q 197 579 161 553 q 225 586 206 586 q 298 566 260 586 q 336 521 336 546 q 209 331 274 447 q 144 169 144 214 q 158 150 144 150 q 356 333 225 150 q 441 488 393 411 q 510 579 489 564 q 538 586 518 586 q 610 566 572 586 q 649 521 649 546 q 512 328 576 438 q 447 151 447 218 q 472 97 447 114 q 510 86 490 86 q 649 165 575 86 q 724 304 724 244 q 700 347 724 336 q 725 357 708 357 q 803 310 763 357 q 843 199 843 263 z "},"":{"ha":1021,"x_min":0,"x_max":1017,"o":"m 993 117 q 950 150 993 150 q 701 69 892 150 q 479 -12 511 -12 q 382 33 431 -12 q 314 133 333 78 q 176 -3 231 -3 q 58 58 115 -3 q 0 185 0 119 q 81 394 0 239 q 199 576 163 550 q 225 583 206 583 q 298 563 260 583 q 336 518 336 543 q 210 328 274 444 q 146 167 146 213 q 160 147 146 147 q 356 331 228 147 q 442 486 394 411 q 511 576 490 561 q 539 583 519 583 q 612 563 574 583 q 650 518 650 543 q 512 313 585 443 q 439 136 439 183 q 453 117 439 117 q 658 215 481 117 q 872 314 835 314 q 969 265 921 314 q 1017 168 1017 217 q 993 117 1017 136 z "},"":{"ha":708,"x_min":22,"x_max":721,"o":"m 710 551 q 706 552 708 551 q 700 553 703 553 q 360 314 608 553 q 419 210 382 267 q 518 99 456 154 q 636 44 581 44 q 713 74 678 44 q 721 56 721 67 q 660 -17 721 22 q 531 -56 599 -56 q 375 22 453 -56 q 244 196 297 100 q 81 -42 81 15 q 72 -51 81 -51 q 40 -26 58 -51 q 22 33 22 -1 q 23 41 22 36 q 24 49 24 46 q 194 301 33 121 q 153 406 169 356 q 97 304 133 367 q 83 297 93 297 q 56 306 69 297 q 42 324 42 314 q 43 328 42 326 q 126 492 100 419 q 119 538 119 524 q 158 594 119 569 q 233 619 196 619 q 267 608 256 619 q 311 428 267 554 q 533 610 468 581 q 599 625 564 625 q 678 602 643 625 q 713 560 713 579 q 710 551 713 554 z "},"":{"ha":611,"x_min":-203,"x_max":718,"o":"m 679 4 l 678 7 q 681 10 678 10 q 703 -12 688 10 q 718 -56 718 -35 q 651 -180 718 -107 q 524 -253 585 -253 q 279 -206 439 -253 q 6 -378 139 -378 q -104 -328 -54 -378 q -178 -215 -154 -278 q -203 -103 -203 -153 q -151 -22 -203 -64 q -31 21 -100 21 q 19 14 -15 21 q 118 -8 54 7 q 224 -32 182 -24 q 292 76 258 18 q 340 165 325 133 q 357 203 356 197 q 331 167 354 200 q 278 98 307 135 q 235 44 250 61 q 181 4 197 4 q 58 67 117 4 q 0 197 0 129 q 93 409 0 251 q 225 599 186 567 q 253 606 235 606 q 327 584 288 606 q 367 538 367 563 q 224 335 297 456 q 150 174 150 215 q 163 158 150 158 q 376 353 211 158 q 568 599 540 549 q 576 604 571 604 q 601 613 585 613 q 670 588 633 613 q 707 536 707 563 q 701 519 707 526 q 637 406 678 482 q 534 217 596 331 q 428 24 472 104 q 379 -61 383 -54 q 531 -74 474 -74 q 683 -14 683 -74 q 679 4 683 -6 m -50 -254 q 124 -160 32 -254 q -99 -96 -68 -96 q -115 -101 -110 -96 q -122 -129 -122 -111 q -99 -211 -122 -168 q -50 -254 -76 -254 z "},"":{"ha":611,"x_min":-192,"x_max":740,"o":"m 606 -56 q 701 -139 661 -67 q 740 -261 740 -211 q 740 -267 740 -264 q 739 -272 739 -271 q 725 -305 736 -292 q 706 -321 714 -318 l 696 -324 q 697 -311 697 -319 q 592 -225 697 -253 q 311 -187 488 -197 q 36 -361 178 -361 q -99 -317 -44 -361 q -154 -207 -154 -272 q -146 -162 -154 -179 q -192 -89 -192 -140 q -172 -44 -192 -60 q -14 -75 -146 -75 q 211 -64 82 -75 q 360 190 268 15 q 363 200 363 194 q 361 203 363 203 q 349 192 357 203 q 238 43 292 101 q 185 4 199 4 q 62 66 121 4 q 3 196 3 128 q 97 408 3 250 q 229 599 190 567 q 256 606 239 606 q 331 584 292 606 q 371 538 371 563 q 227 336 301 457 q 153 174 153 215 q 167 157 153 157 q 299 263 200 157 q 479 473 397 368 q 572 600 561 578 q 581 604 576 604 q 606 613 589 613 q 675 588 639 613 q 711 538 711 564 q 706 519 711 526 q 440 24 617 375 q 400 -51 408 -39 q 501 -47 454 -47 q 606 -56 567 -47 m -8 -235 q 108 -181 47 -235 q -99 -172 -50 -178 q -75 -217 -97 -200 q -8 -235 -53 -235 z "},"":{"ha":611,"x_min":-569,"x_max":911,"o":"m 846 -128 q 894 -160 878 -139 q 911 -201 911 -181 q 906 -222 911 -215 q 326 -164 644 -168 q 33 -368 183 -368 q -103 -324 -47 -368 q -158 -214 -158 -279 q -158 -206 -158 -211 q -157 -199 -157 -200 q -550 -311 -372 -233 q -569 -275 -569 -304 q -534 -183 -569 -232 q -437 -112 -499 -133 q 118 -64 -297 -64 q 164 -65 133 -64 q 210 -65 194 -65 q 357 192 260 6 q 360 201 360 196 q 358 204 360 204 q 346 193 354 204 q 235 44 282 96 q 181 6 196 6 q 58 67 117 6 q 0 197 0 129 q 94 410 0 251 q 226 600 188 569 q 253 607 236 607 q 328 585 289 607 q 368 539 368 564 q 224 338 299 458 q 150 175 150 217 q 164 158 150 158 q 296 264 197 158 q 476 474 394 369 q 569 601 558 579 q 578 606 574 606 q 603 614 586 614 q 672 589 636 614 q 707 538 707 564 q 703 521 707 529 q 436 25 628 403 q 386 -71 411 -25 q 846 -128 713 -87 m -12 -242 q 125 -168 51 -242 q -100 -190 6 -175 q -12 -242 -90 -242 z "},"":{"ha":903,"x_min":-60,"x_max":1151,"o":"m 1083 711 q 1131 683 1111 707 q 1151 638 1151 660 q 1143 619 1151 625 q 967 631 1085 631 q 888 497 933 576 q 785 304 842 417 q 729 160 729 192 q 739 146 729 146 q 806 174 768 146 q 879 244 844 201 q 933 315 914 288 q 967 363 953 342 q 972 365 968 365 q 990 347 981 365 q 999 310 999 328 q 997 296 999 300 q 890 121 975 240 q 750 1 804 1 q 633 56 686 1 q 579 176 579 110 q 613 284 579 208 q 683 423 647 360 q 779 592 718 486 q 799 625 792 614 q 738 620 776 624 q 682 615 699 617 q 489 540 582 540 q 433 557 450 540 q 424 564 429 557 q 419 581 419 571 q 506 656 419 622 q 568 674 543 668 q 653 794 653 758 q 631 813 653 813 q 456 747 567 813 q 257 597 344 682 q 169 460 169 511 q 187 433 169 446 q 235 408 204 419 q 294 388 265 396 q 358 369 322 379 q 408 354 394 358 q 521 194 521 317 q 384 15 521 107 q 138 -78 247 -78 q 4 3 68 -78 q -60 146 -60 83 q -26 222 -60 189 q 33 256 8 256 q 47 250 42 256 q 21 199 36 235 q 6 135 6 164 q 19 114 6 124 q 50 104 32 104 q 260 158 131 104 q 390 251 390 211 q 350 276 390 264 q 252 302 310 288 q 137 338 194 317 q 39 402 79 360 q -1 501 -1 444 q 94 681 -1 574 q 328 872 189 789 q 575 954 467 954 q 724 882 667 954 q 781 740 781 810 q 769 706 781 725 q 842 711 794 708 q 853 713 844 713 q 938 825 901 788 q 967 833 946 833 q 1040 818 1001 833 q 1079 788 1079 803 q 1076 779 1079 782 q 1026 717 1051 753 q 1083 711 1067 714 z "},"":{"ha":1071,"x_min":13,"x_max":1207,"o":"m 1147 368 q 1161 331 1161 368 q 1154 296 1161 314 q 1124 235 1144 275 q 1070 142 1103 196 q 1002 49 1038 88 q 942 10 967 10 q 817 67 875 10 q 758 190 758 125 q 815 347 758 244 q 871 451 871 450 q 869 453 871 453 q 778 374 854 450 q 626 198 703 297 q 540 49 550 99 q 510 3 540 3 q 434 36 467 3 q 401 107 401 69 q 494 345 401 153 q 699 701 588 538 q 483 736 611 718 q 507 710 507 719 l 507 707 q 328 391 463 651 q 193 25 193 131 q 201 -12 193 3 q 168 -24 194 -24 q 85 5 126 -24 q 44 81 44 33 q 361 753 44 208 q 139 772 193 772 q 56 724 56 772 q 26 740 39 724 q 13 782 13 756 q 85 894 13 822 q 207 967 157 967 q 786 824 307 967 q 1036 989 922 989 q 1158 954 1108 989 q 1207 864 1207 919 q 1135 726 1207 783 q 967 668 1063 668 q 851 675 918 668 q 649 332 746 526 q 963 600 883 600 q 1044 563 1000 600 q 1088 500 1088 526 q 1085 490 1088 496 q 1032 412 1065 463 q 958 285 999 361 q 917 181 917 208 q 931 164 917 164 q 1140 364 993 164 q 1147 368 1144 368 m 1108 910 q 942 792 1043 910 q 994 789 978 789 q 1102 811 1054 789 q 1150 868 1150 833 q 1138 897 1150 885 q 1108 910 1125 910 z "},"":{"ha":1201,"x_min":-42,"x_max":1214,"o":"m 1065 601 q 1164 553 1114 601 q 1214 451 1214 506 q 1167 276 1214 382 q 1047 85 1121 169 q 908 0 974 0 q 807 43 851 0 q 738 146 763 86 q 690 57 696 75 q 688 35 688 40 q 679 11 688 22 q 658 0 671 0 q 594 30 633 0 q 556 99 556 60 q 643 326 556 151 q 571 279 593 292 q 440 86 524 172 q 290 0 357 0 q 224 35 261 0 q 186 97 186 71 q 199 133 186 115 q 236 166 211 150 q 281 193 261 182 q 333 219 300 204 q 374 239 365 235 q 445 375 415 301 q 475 492 475 449 q 450 529 475 529 q 341 427 429 529 q 172 202 253 325 q 90 35 90 79 q 82 11 90 22 q 61 0 74 0 q -3 30 36 0 q -42 99 -42 60 q 96 426 -42 164 q 310 793 233 689 q 374 818 328 818 q 436 802 408 818 q 464 761 464 786 q 236 389 361 626 q 468 601 390 601 q 567 553 517 601 q 617 451 617 506 q 604 374 617 417 q 662 422 631 392 q 711 472 693 451 l 729 494 q 907 793 890 772 q 971 818 925 818 q 1033 802 1006 818 q 1061 761 1061 786 q 833 389 958 626 q 1065 601 988 601 m 853 138 q 993 274 914 138 q 1072 492 1072 411 q 1047 529 1072 529 q 935 424 1019 529 q 769 197 850 319 q 853 138 818 138 z "},"":{"ha":1169,"x_min":-78,"x_max":1160,"o":"m 1108 432 q 1160 374 1160 407 q 1158 365 1160 368 q 1135 278 1151 332 q 1087 140 1118 225 q 1011 -27 1056 54 q 913 -182 967 -108 q 788 -301 860 -256 q 640 -346 717 -346 q 504 -299 558 -346 q 450 -190 450 -253 q 453 -162 450 -172 q 472 -128 457 -143 q 500 -112 486 -112 q 513 -117 506 -112 q 506 -146 506 -133 q 530 -196 506 -175 q 588 -217 554 -217 q 953 215 778 -217 q 768 -3 799 -3 q 667 54 728 -3 q 599 181 606 111 q 436 21 532 99 q 254 -235 367 -125 q 42 -346 142 -346 q -37 -307 3 -346 q -78 -243 -78 -268 q 267 29 -78 -160 q 353 215 313 113 q 169 -3 201 -3 q 63 59 126 -3 q 0 194 0 121 q 54 366 0 264 q 192 547 108 468 q 349 625 276 625 q 492 543 414 625 q 515 478 515 519 q 510 432 515 460 q 561 374 561 407 q 560 365 561 368 q 510 199 544 294 q 643 346 594 269 q 784 540 697 456 q 949 625 871 625 q 1090 543 1013 625 q 1114 478 1114 519 q 1108 432 1114 460 m 453 451 l 453 464 q 407 529 453 529 q 307 459 371 529 q 195 303 243 389 q 147 176 147 218 q 156 154 147 161 q 164 151 161 151 q 292 262 199 151 q 432 446 385 372 l 436 446 q 436 447 436 447 l 438 450 q 443 453 438 453 q 448 452 444 453 q 453 451 451 451 m 1051 451 l 1051 464 q 1007 529 1051 529 q 907 459 971 529 q 794 303 843 389 q 746 176 746 218 q 754 154 746 161 q 763 151 760 151 q 892 262 797 151 q 1032 446 986 372 l 1035 446 q 1036 450 1035 447 q 1042 453 1036 453 q 1047 452 1043 453 q 1051 451 1050 451 z "},"":{"ha":1088,"x_min":1,"x_max":1178,"o":"m 1161 360 q 1172 347 1167 360 q 1178 317 1178 333 q 1112 195 1178 256 q 976 128 1046 135 l 974 128 q 868 32 931 71 q 768 -7 806 -7 q 608 53 671 -7 q 544 178 544 114 q 606 400 544 283 q 536 376 567 385 q 407 113 515 233 q 225 -7 299 -7 q 78 49 154 -7 q 1 178 1 106 q 46 363 1 265 q 126 492 90 460 q 157 500 138 500 q 176 497 163 500 q 227 586 176 547 q 342 625 278 625 q 471 576 406 625 q 539 476 536 526 q 540 453 540 468 q 693 515 633 475 q 776 594 721 563 q 886 625 832 625 q 1019 574 954 625 q 1083 443 1083 522 q 1035 231 1083 332 q 1161 360 1103 256 m 911 549 q 847 522 876 549 q 801 454 818 496 q 806 442 806 447 l 793 425 q 785 367 785 396 q 868 224 785 260 q 940 353 911 282 q 968 478 968 425 q 925 547 968 543 q 918 548 922 547 q 911 549 914 549 m 368 549 q 322 533 346 549 q 299 489 299 517 q 332 449 299 467 q 410 432 365 432 q 419 433 417 432 q 425 478 425 454 q 368 549 425 549 m 181 126 q 301 196 240 126 q 397 356 363 265 l 388 356 q 231 399 288 356 q 167 275 192 340 q 143 168 143 210 q 164 128 143 132 q 181 126 169 126 m 725 126 q 818 169 768 126 q 724 250 761 203 q 708 268 717 257 q 686 168 686 208 q 707 128 686 132 q 725 126 713 126 z "},"":{"ha":801,"x_min":-132,"x_max":876,"o":"m 729 635 q 814 664 747 664 q 876 642 876 664 q 874 633 876 636 q 828 460 828 572 l 828 436 q 825 414 828 417 q 813 407 819 407 q 746 510 781 407 q 724 419 724 465 q 739 294 724 379 q 754 167 754 210 q 680 -7 754 61 q 515 -75 606 -75 q 405 -47 457 -75 q 321 26 353 -19 q 223 -73 286 -36 q 96 -110 160 -110 q -60 -51 8 -110 q -132 86 -129 7 l -132 92 q -94 185 -132 149 q 8 224 -56 222 l 10 224 q 33 207 33 224 q 22 197 33 197 l 21 197 q 0 174 0 197 q 53 72 0 125 q 153 19 106 19 q 198 42 179 19 q 217 94 217 64 q 214 125 217 103 q 122 97 156 97 q 97 101 108 97 q 54 134 69 113 q 39 171 39 156 q 43 179 39 179 q 49 178 47 179 q 86 168 63 168 q 200 201 129 168 q 172 298 192 233 q 146 389 153 363 q 86 281 125 347 q 71 274 82 274 q 42 282 57 274 q 26 300 26 290 q 28 304 26 303 q 129 514 107 435 q 165 594 136 554 q 233 635 194 635 q 326 606 281 635 q 332 635 326 628 q 415 664 349 664 q 478 642 478 664 q 475 633 478 636 q 429 460 429 572 l 429 436 q 426 414 429 417 q 414 407 421 407 q 347 510 382 407 q 325 419 325 465 q 336 285 325 382 q 525 506 493 401 q 526 510 525 507 q 526 514 526 513 q 563 594 533 554 q 632 635 592 635 q 725 606 679 635 q 729 635 725 626 m 571 54 q 615 72 599 54 q 632 121 632 90 q 592 258 632 160 q 543 389 553 357 q 539 404 542 393 q 401 256 490 333 q 428 258 418 258 l 429 258 q 453 242 453 258 q 442 232 453 232 l 440 232 q 419 208 419 232 q 472 107 419 160 q 571 54 525 54 z "},"":{"ha":622,"x_min":0,"x_max":899,"o":"m 892 719 q 899 708 899 717 q 874 661 899 688 q 815 635 850 635 q 701 638 813 635 q 696 631 700 635 q 533 344 610 494 q 456 157 456 193 q 465 143 456 143 q 693 358 546 143 q 699 361 694 361 q 715 342 706 361 q 724 306 724 324 q 722 292 724 296 q 617 120 703 240 q 476 0 531 0 q 379 38 426 0 q 315 128 332 75 q 169 0 222 0 q 53 53 106 0 q 0 174 0 107 q 72 361 0 221 q 235 649 143 501 l 144 649 q 105 665 118 649 q 92 697 92 681 q 94 706 92 703 q 274 711 153 710 q 356 818 336 803 q 385 826 365 826 q 458 811 418 826 q 497 781 497 796 q 494 772 497 775 q 444 714 474 754 q 515 715 468 714 q 585 717 561 715 q 663 818 642 799 q 693 826 674 826 q 765 811 726 826 q 804 781 804 796 q 801 772 804 775 q 756 718 782 756 q 892 719 810 719 m 365 331 q 540 642 431 463 q 496 642 519 642 q 443 644 472 643 q 399 646 414 646 q 394 638 397 643 q 389 631 390 633 q 226 345 304 496 q 149 157 149 194 q 158 143 149 143 q 365 331 238 143 z "},"":{"ha":1139,"x_min":3,"x_max":1225,"o":"m 1149 636 l 1150 636 q 1199 590 1172 636 q 1225 513 1225 544 l 1225 506 q 1145 425 1225 476 q 938 303 1065 374 q 749 189 810 232 q 917 207 825 207 q 1035 192 1007 207 q 1092 126 1064 176 q 1119 32 1119 75 q 1115 3 1119 17 q 1099 -12 1110 -12 q 1086 0 1086 -12 q 1088 7 1086 3 q 1089 14 1089 10 q 932 51 1089 51 q 772 41 851 51 q 668 17 692 31 q 660 15 665 15 q 615 45 640 15 q 589 106 590 75 q 581 138 581 118 q 656 234 581 175 q 865 376 731 293 q 1044 492 999 458 q 839 453 928 453 q 790 460 811 453 l 769 472 q 651 324 753 439 q 486 164 549 208 q 543 28 543 99 q 539 0 543 13 q 521 -15 533 -15 q 508 -3 508 -15 q 510 3 508 0 q 511 10 511 6 q 356 47 511 47 q 195 37 275 47 q 92 13 115 26 q 83 11 89 11 q 38 41 64 11 q 11 101 13 71 q 3 135 3 117 q 78 231 3 172 q 288 372 154 290 q 467 488 421 454 q 261 450 349 450 q 213 457 233 450 q 206 460 210 458 q 198 465 201 463 q 192 469 194 467 q 88 274 176 438 q 72 267 83 267 q 41 275 57 267 q 25 293 25 283 q 26 297 25 296 q 143 532 110 417 q 135 582 135 556 q 140 618 135 603 q 158 632 146 632 q 167 630 163 632 q 174 623 171 628 q 180 615 178 618 q 185 604 182 613 q 190 593 189 596 q 226 590 210 590 q 327 597 267 590 q 470 617 388 604 q 572 633 553 631 l 574 633 q 622 587 596 633 q 647 508 647 540 l 647 501 q 567 422 647 472 q 359 300 488 371 q 171 186 231 229 q 340 204 247 204 q 419 199 392 204 q 606 370 510 267 q 719 536 703 474 q 711 585 711 558 q 717 621 711 606 q 735 635 722 635 q 768 596 750 635 q 804 593 788 593 q 903 600 843 593 q 1048 620 964 607 q 1149 636 1132 633 z "},"":{"ha":986,"x_min":-57,"x_max":1056,"o":"m 908 607 q 992 636 924 636 q 1056 614 1056 636 q 1051 606 1056 610 q 1006 432 1006 543 l 1006 403 q 1004 388 1006 389 q 996 381 1000 381 q 931 504 972 381 q 913 463 919 488 q 906 406 906 432 q 921 282 906 367 q 936 154 936 197 q 858 -12 936 63 q 697 -86 781 -86 q 542 -28 610 -86 q 471 110 474 31 l 471 115 q 504 203 471 165 q 438 253 467 215 q 404 324 408 290 l 404 336 q 439 476 404 389 q 217 234 333 381 q 99 28 100 88 q 100 22 100 26 q 89 3 100 13 q 68 -6 78 -6 q -19 23 19 -6 q -57 94 -57 51 q 58 350 -57 143 q 172 600 172 557 q 199 621 172 621 q 270 593 231 621 q 310 536 310 565 q 289 483 310 519 q 228 381 268 446 q 163 271 188 317 q 515 614 431 614 q 594 581 554 614 q 633 524 633 549 q 631 511 633 514 q 599 469 631 510 q 544 388 567 428 q 521 325 521 349 q 528 307 521 311 q 535 304 531 304 q 657 408 560 304 q 708 500 696 454 q 765 607 718 563 q 814 621 785 621 q 908 590 861 621 q 908 597 908 593 q 907 601 907 600 q 908 606 907 603 l 908 607 m 754 43 q 795 63 776 43 q 814 108 814 83 q 774 247 814 147 q 726 375 735 346 q 691 335 721 364 q 628 278 661 307 q 592 244 596 249 q 611 246 599 246 l 613 246 q 636 229 636 246 q 625 219 636 219 l 624 219 q 603 196 603 219 q 654 92 603 140 q 754 43 706 43 z "},"":{"ha":1194,"x_min":-57,"x_max":1304,"o":"m 1189 625 q 1269 602 1235 625 q 1304 558 1304 579 q 1301 550 1304 553 q 1297 551 1300 550 q 1292 551 1294 551 q 1151 483 1246 551 q 947 310 1057 415 q 1050 151 1021 151 q 1163 237 1089 151 q 1256 358 1236 322 q 1260 361 1258 361 q 1274 342 1267 361 q 1281 304 1281 324 q 1278 286 1281 297 q 1231 201 1269 263 q 1126 72 1192 139 q 1011 4 1061 4 q 831 190 931 4 q 664 -50 664 4 q 656 -60 664 -60 q 624 -35 642 -60 q 607 26 607 -10 q 608 33 607 28 q 608 42 608 39 q 779 297 617 113 q 738 403 761 340 q 733 412 736 406 q 729 421 731 418 q 628 284 703 368 q 529 200 553 200 q 447 242 485 200 q 404 326 408 285 l 404 339 q 439 478 404 399 q 216 236 332 382 q 99 31 100 90 q 100 25 100 29 q 90 6 100 15 q 68 -3 79 -3 q -19 26 19 -3 q -57 97 -57 54 q 58 352 -57 146 q 172 601 172 558 q 199 622 172 622 q 271 595 232 622 q 310 538 310 568 q 289 484 310 521 q 228 383 268 447 q 163 274 188 318 q 515 615 429 615 q 593 583 553 615 q 633 525 633 550 q 631 514 633 517 q 599 472 631 513 q 544 391 567 431 q 521 328 521 351 q 528 308 521 314 q 535 306 531 306 q 711 493 560 306 q 706 536 706 529 q 744 594 706 568 q 821 619 783 619 q 854 608 843 619 q 900 425 854 544 q 1124 610 1050 575 q 1189 625 1154 625 z "},"":{"ha":1142,"x_min":-57,"x_max":1224,"o":"m 1149 631 l 1150 631 q 1198 585 1172 631 q 1224 507 1224 539 l 1224 500 q 1144 420 1224 471 q 938 299 1065 369 q 750 186 810 229 q 918 204 826 204 q 1035 189 1007 204 q 1092 123 1064 174 q 1119 29 1119 72 q 1115 1 1119 14 q 1099 -14 1110 -14 q 1086 -1 1086 -14 q 1088 4 1086 1 q 1089 11 1089 7 q 933 49 1089 49 q 774 38 853 49 q 671 14 694 28 q 663 13 668 13 q 618 42 643 13 q 592 103 593 72 q 583 135 583 115 q 658 231 583 172 q 866 371 733 289 q 1044 486 999 453 q 840 449 926 449 q 792 456 813 449 q 785 459 789 457 q 777 463 781 461 q 771 468 774 465 q 652 316 753 432 q 528 200 551 200 q 445 242 483 200 q 403 326 407 285 l 403 339 q 438 478 403 399 q 216 236 332 382 q 99 31 100 90 q 100 25 100 29 q 90 6 100 15 q 68 -3 79 -3 q -19 26 19 -3 q -57 97 -57 54 q 58 352 -57 146 q 172 601 172 558 q 199 622 172 622 q 269 595 231 622 q 308 538 308 568 q 288 485 308 521 q 228 383 268 449 q 163 274 188 318 q 514 615 426 615 q 592 583 551 615 q 632 525 632 550 q 629 514 632 517 q 597 472 629 513 q 542 391 565 431 q 519 328 519 351 q 526 308 519 314 q 533 306 529 306 q 638 392 568 306 q 722 531 707 479 q 714 579 714 553 q 719 615 714 600 q 738 629 725 629 q 747 624 746 629 q 769 590 760 611 q 806 588 789 588 q 904 594 844 588 q 1047 615 964 601 q 1149 631 1131 628 z "},"":{"ha":993,"x_min":-42,"x_max":1065,"o":"m 919 622 q 1003 650 938 650 q 1065 628 1065 650 q 1063 619 1065 622 q 1017 447 1017 558 l 1017 424 q 1014 401 1017 404 q 1001 394 1008 394 q 935 497 969 394 q 914 407 914 450 q 929 283 914 368 q 944 156 944 199 q 871 -17 944 50 q 707 -85 797 -85 q 550 -26 618 -85 q 479 111 482 32 l 479 117 q 480 124 479 119 q 481 131 481 128 q 290 0 376 0 q 224 35 261 0 q 186 97 186 71 q 199 133 186 115 q 237 167 211 150 q 281 194 263 183 q 334 220 300 204 q 375 240 368 236 q 446 376 417 303 q 475 493 475 450 q 450 531 475 531 q 341 428 429 531 q 172 202 253 325 q 90 35 90 79 q 82 11 90 22 q 61 0 74 0 q -3 30 36 0 q -42 100 -42 60 q 96 428 -42 165 q 310 794 233 690 q 374 819 328 819 q 436 803 408 819 q 464 763 464 788 q 236 390 361 628 q 468 603 390 603 q 567 555 517 603 q 618 453 618 507 q 606 374 618 429 q 719 508 668 418 q 756 585 728 549 q 822 621 785 621 q 914 593 869 621 q 919 622 914 613 m 763 44 q 806 63 789 44 q 822 110 822 81 q 783 248 822 149 q 735 376 743 347 q 725 407 728 393 q 571 279 679 347 q 547 229 564 263 q 619 247 575 244 l 621 247 q 644 231 644 247 q 633 221 644 221 l 632 221 q 611 197 611 221 q 663 97 611 149 q 763 44 715 44 z "},"":{"ha":958,"x_min":-75,"x_max":1036,"o":"m 890 622 q 974 650 906 650 q 1036 629 1036 650 q 1033 621 1036 624 q 986 447 986 558 l 986 421 q 985 403 986 406 q 972 396 979 396 q 906 499 940 396 q 883 408 883 454 q 899 285 883 369 q 914 157 914 200 q 841 -16 914 51 q 678 -83 768 -83 q 549 -46 608 -83 q 465 50 490 -8 q 438 25 446 33 q 255 -231 368 -121 q 43 -340 142 -340 q -35 -301 4 -340 q -75 -237 -75 -262 q 268 33 -75 -151 q 354 219 311 113 q 171 3 203 3 q 65 64 128 3 q 1 199 1 125 q 56 369 1 268 q 194 549 110 471 q 350 628 278 628 q 492 547 411 628 q 515 482 515 524 q 510 436 515 464 q 561 378 561 411 q 560 369 561 372 q 519 232 540 292 q 549 243 539 240 q 632 357 592 292 q 686 472 672 422 q 689 503 686 492 q 724 583 696 543 q 792 622 753 622 q 885 593 839 622 q 890 622 885 615 m 438 454 q 443 457 438 457 q 448 456 444 457 q 453 456 451 456 l 453 468 q 408 533 453 533 q 308 463 372 533 q 197 308 244 393 q 149 181 149 222 q 157 158 149 164 q 165 156 163 156 q 293 266 200 156 q 433 450 386 376 l 436 450 l 436 451 q 438 454 438 453 m 732 46 q 776 63 760 46 q 792 111 792 81 q 778 178 792 139 q 743 274 765 218 q 710 361 721 329 q 585 178 668 281 q 644 89 596 132 q 732 46 692 46 z "},"":{"ha":1011,"x_min":-49,"x_max":1085,"o":"m 939 622 q 1024 650 957 650 q 1085 629 1085 650 q 1082 621 1085 624 q 1036 447 1036 560 l 1036 425 q 1033 403 1036 406 q 1021 396 1028 396 q 956 499 990 396 q 933 408 933 454 q 949 285 933 369 q 964 157 964 200 q 890 -16 964 51 q 726 -83 817 -83 q 593 -42 654 -83 q 510 63 532 0 q 469 26 496 50 q 431 -11 443 1 q 260 -246 358 -153 q 63 -339 161 -339 q -21 -303 7 -339 q -49 -228 -49 -267 l -49 -225 q -37 -188 -49 -207 q -2 -150 -26 -169 q 44 -116 22 -131 q 102 -82 65 -101 q 158 -53 139 -62 q 214 -27 176 -44 q 256 -8 251 -10 q 369 222 303 71 q 354 201 369 221 q 324 159 339 181 q 285 109 308 138 q 244 59 263 81 q 207 22 225 38 q 179 7 189 7 q 55 69 114 7 q -4 200 -4 132 q 90 411 -4 254 q 225 600 185 568 q 253 607 236 607 q 328 585 289 607 q 368 539 368 564 q 224 336 299 458 q 149 171 149 214 q 161 154 149 154 q 312 272 196 154 q 471 465 428 390 l 538 578 q 593 606 556 606 q 670 581 635 606 q 706 531 706 557 q 663 485 683 514 q 613 395 642 456 q 572 308 583 335 q 522 192 561 282 q 582 238 543 222 q 735 501 704 372 q 739 511 736 506 q 777 587 749 551 q 842 622 806 622 q 935 593 889 622 l 935 600 q 939 622 935 615 m 782 46 q 826 63 810 46 q 842 111 842 81 q 828 182 842 140 q 790 281 814 224 q 756 372 767 338 q 697 272 742 331 q 631 192 653 214 q 687 94 636 143 q 782 46 738 46 z "},"":{"ha":4082,"x_min":3,"x_max":4065,"o":"m 469 344 q 541 283 513 328 q 569 176 569 239 q 569 165 569 172 q 568 154 568 157 q 467 -8 560 60 q 268 -76 375 -76 q 155 -44 208 -76 q 96 15 101 -12 q 3 122 3 35 q 353 718 3 214 q 176 628 250 679 q 103 542 103 578 q 122 532 103 532 q 132 519 132 532 q 100 492 132 492 q 46 538 79 492 q 13 633 13 585 q 22 679 13 658 q 192 826 67 772 q 446 879 317 879 q 643 784 557 879 q 729 617 729 689 q 654 451 729 528 q 469 344 579 375 m 458 635 q 306 406 361 494 q 541 517 450 426 q 632 681 632 608 q 625 708 632 697 q 519 754 597 754 q 389 731 467 754 q 440 699 415 721 q 464 654 464 676 q 458 635 464 644 m 168 42 q 276 62 211 42 q 396 124 340 82 q 451 217 451 167 q 447 244 451 231 q 343 289 432 289 q 229 274 286 289 q 206 231 226 268 q 178 181 185 194 q 159 139 172 167 q 141 92 146 111 q 136 57 136 72 q 168 42 147 42 m 1582 617 l 1581 617 q 1550 633 1565 617 q 1533 669 1535 650 l 1533 674 q 1553 751 1533 703 q 1593 807 1574 799 q 1626 813 1608 813 q 1697 791 1664 813 q 1729 746 1729 769 q 1669 672 1729 725 q 1582 617 1608 618 m 3946 361 q 4025 314 3985 361 q 4065 194 4065 267 q 3971 19 4065 114 q 3778 -76 3876 -76 q 3626 -2 3688 -76 q 3546 147 3564 72 q 3400 0 3450 0 q 3317 42 3368 0 q 3247 142 3267 85 q 3090 3 3154 3 q 2979 71 3031 3 q 2893 225 2928 139 q 2776 53 2794 121 l 2776 43 q 2747 0 2776 0 q 2681 31 2717 0 q 2642 97 2644 61 q 2421 -3 2539 -3 q 2215 147 2253 -3 q 2072 7 2125 7 q 1946 65 2004 7 q 1888 189 1888 124 q 1920 294 1888 228 q 1985 413 1953 360 q 2018 471 2018 465 q 2017 472 2018 472 q 1916 383 2001 471 q 1749 188 1831 296 q 1667 35 1667 79 q 1668 28 1668 32 q 1658 10 1668 18 q 1636 1 1647 1 q 1567 19 1600 1 q 1519 65 1533 36 q 1417 0 1461 0 q 1319 40 1368 0 q 1250 133 1271 79 q 1125 7 1171 7 q 999 65 1057 7 q 940 189 940 124 q 997 347 940 244 q 1054 451 1054 450 q 1051 453 1054 453 q 955 368 1035 450 q 798 183 875 286 q 721 35 721 81 q 712 11 721 22 q 690 0 703 0 q 626 31 665 0 q 588 101 588 61 q 724 425 588 165 q 940 794 861 685 q 1004 819 958 819 q 1067 803 1039 819 q 1094 761 1094 788 q 843 346 978 607 q 1017 525 932 450 q 1146 600 1101 600 q 1228 563 1185 600 q 1272 500 1272 526 q 1269 490 1272 496 q 1217 412 1250 463 q 1142 284 1183 361 q 1100 179 1100 207 q 1114 163 1100 163 q 1268 289 1165 163 q 1359 469 1303 374 q 1440 585 1415 565 q 1467 592 1450 592 q 1540 571 1501 592 q 1579 526 1579 550 q 1451 335 1515 453 q 1386 171 1386 217 q 1400 151 1386 151 q 1597 304 1475 151 q 1626 354 1607 321 q 1655 407 1644 388 q 1681 455 1665 426 q 1705 502 1696 483 q 1723 542 1714 521 q 1736 578 1732 563 q 1740 604 1740 593 q 1765 625 1740 625 q 1838 597 1799 625 q 1878 540 1878 569 q 1856 488 1878 525 q 1794 385 1835 450 q 1729 274 1754 319 q 1942 510 1833 403 q 2104 618 2051 618 q 2187 581 2143 618 q 2231 519 2231 544 q 2228 510 2231 515 q 2115 327 2190 457 q 2040 154 2040 197 q 2053 138 2040 138 q 2214 283 2106 138 q 2331 510 2239 407 q 2508 614 2424 614 q 2647 560 2588 614 q 2707 449 2707 506 q 2622 302 2707 369 q 2465 235 2536 235 q 2365 256 2404 235 q 2360 215 2360 228 q 2447 138 2360 138 q 2585 181 2515 138 q 2710 293 2654 225 q 2907 653 2796 481 q 2771 646 2831 646 q 2564 675 2626 646 q 2499 742 2525 693 q 2472 840 2472 792 q 2478 879 2472 863 q 2535 921 2492 921 q 2542 919 2542 921 q 2524 892 2524 906 q 2673 813 2524 849 q 2989 774 2822 776 q 3193 964 3106 935 q 3233 972 3214 972 q 3314 938 3282 972 q 3346 875 3346 903 q 3285 784 3346 832 q 3172 712 3224 736 q 3088 676 3121 688 q 2858 293 2950 485 q 3050 501 2960 417 q 3182 586 3140 586 q 3262 544 3224 586 q 3300 478 3300 501 q 3294 471 3300 471 q 3288 472 3290 471 q 3265 476 3279 476 q 3135 426 3218 476 q 2958 290 3051 375 q 3023 209 2971 261 q 3110 157 3075 157 q 3256 285 3158 157 q 3394 515 3297 406 q 3579 624 3490 624 q 3665 592 3621 624 q 3732 531 3708 560 q 3764 539 3742 539 q 3828 523 3797 539 q 3858 485 3858 507 q 3724 297 3786 400 q 3663 135 3663 194 q 3680 93 3663 108 q 3725 78 3697 78 q 3867 151 3792 78 q 3942 293 3942 224 q 3921 350 3942 328 q 3946 361 3929 361 m 2569 525 q 2472 458 2531 525 q 2382 311 2414 390 q 2532 395 2471 331 q 2593 503 2593 460 q 2586 521 2593 517 q 2569 525 2578 525 m 3403 167 q 3682 474 3460 167 q 3692 488 3689 483 q 3636 529 3663 529 q 3539 463 3600 529 q 3431 316 3478 397 q 3385 193 3385 235 q 3403 167 3385 167 z "}}}
